{
.appVersion = "3151";
.formatVersion = 3;
.storedFormatVersion = 1;
axes = (
{
name = Weight;
tag = wght;
}
);
classes = (
{
code = "A Agrave Aacute Acircumflex Atilde Adieresis Aring Amacron Abreve Aogonek uni0200 uni0202 B C Ccedilla Cacute Ccircumflex Cdotaccent Ccaron D Dcaron E Egrave Eacute Ecircumflex Edieresis Emacron Eogonek Ecaron uni0204 uni0206 F G Gcircumflex Gbreve Gdotaccent Gcommaaccent uni01F4 H I Igrave Iacute Icircumflex Idieresis Itilde Imacron Ibreve Iogonek uni0208 uni020A J Jcircumflex K Kcommaaccent L Lacute Lcommaaccent Lcaron M N Ntilde Nacute Ncommaaccent Ncaron O Ograve Oacute Ocircumflex Otilde Odieresis Omacron Obreve Ohungarumlaut uni020C uni020E P Q R Racute Rcommaaccent Rcaron S Sacute Scircumflex Scedilla Scaron Scommaaccent T Tcaron uni021A U Ugrave Uacute Ucircumflex Udieresis Umacron Ubreve Uring Uhungarumlaut Uogonek V W X Y Yacute Ydieresis Z Zacute Zdotaccent Zcaron AE Eth Oslash Thorn Dcroat Hbar IJ Ldot Lslash OE uni01C4 uni01C7 uni01CA uni01F1 uni01C5 uni01C8 uni01CB Dz Edotaccent Idotaccent Eng Tbar Tcedilla Tcommaaccent Wacute Wcircumflex Wdieresis Wgrave Ycircumflex Ygrave";
name = Uppercase;
}
);
customParameters = (
{
name = glyphOrder;
value = (
space,
A,
Agrave,
Aacute,
Acircumflex,
Atilde,
Adieresis,
Aring,
Amacron,
Abreve,
Aogonek,
uni0200,
uni0202,
B,
C,
Ccedilla,
Cacute,
Ccircumflex,
Cdotaccent,
Ccaron,
D,
Dcaron,
E,
Egrave,
Eacute,
Ecircumflex,
Edieresis,
Emacron,
Eogonek,
Ecaron,
uni0204,
uni0206,
F,
G,
Gcircumflex,
Gbreve,
Gdotaccent,
Gcommaaccent,
uni01F4,
H,
I,
Igrave,
Iacute,
Icircumflex,
Idieresis,
Itilde,
Imacron,
Ibreve,
Iogonek,
uni0208,
uni020A,
J,
Jcircumflex,
K,
Kcommaaccent,
L,
Lacute,
Lcommaaccent,
Lcaron,
M,
N,
Ntilde,
Nacute,
Ncommaaccent,
Ncaron,
O,
Ograve,
Oacute,
Ocircumflex,
Otilde,
Odieresis,
Omacron,
Obreve,
Ohungarumlaut,
uni020C,
uni020E,
P,
Q,
R,
Racute,
Rcommaaccent,
Rcaron,
S,
Sacute,
Scircumflex,
Scedilla,
Scaron,
Scommaaccent,
T,
Tcaron,
uni021A,
U,
Ugrave,
Uacute,
Ucircumflex,

glyphs = (
{
glyphname = A;
kernLeft = _A_left;
kernRight = _A_right;
lastChange = "2013-12-31 02:57:01 +0000";
layers = (
{
anchors = (
{
name = ogonek;
pos = (1125,0);
},
{
name = top;
pos = (617,1464);
}
);
layerId = "E322F6D1-BA90-436B-BB35-51D9BD3EA9D1";
name = Regular;
shapes = (
{
closed = 1;
nodes = (
(29,0,l),
(175,0,l),
(303,399,l),
(927,399,l),
(1061,0,l),
(1211,0,l),
(725,1464,l),
(513,1464,l)
);
},
{
closed = 1;
nodes = (
(337,508,l),
(617,1368,l),
(893,508,l)
);
}
);
width = 1240;
},
{
anchors = (
{
name = ogonek;
pos = (1147,0);
},
{
name = top;
pos = (649,1464);
}
);
layerId = "5D328E58-2F78-4B3D-8E27-494E56F2C351";
name = Bold;
shapes = (
{
closed = 1;
nodes = (
(28,0,l),
(248,0,l),
(364,379,l),
(916,379,l),
(1038,0,l),
(1269,0,l),
(804,1464,l),
(484,1464,l)
);
},
{
closed = 1;
nodes = (
(412,540,l),
(640,1320,l),
(866,540,l)
);
}
);
width = 1297;
}
);
unicode = 65;
userData = {
com.typemytype.robofont.layerData = {
};
};
},
{
glyphname = B;
lastChange = "2013-12-31 02:57:01 +0000";
layers = (
{
anchors = (
{
name = top;
pos = (621,1464);
}
);
layerId = "E322F6D1-BA90-436B-BB35-51D9BD3EA9D1";
name = Regular;
shapes = (
{
closed = 1;
nodes = (
(152,0,l),
(555,0,ls),
(1013,0,o),
(1218,85,o),
(1218,413,cs),
(1218,627,o),
(1120,759,o),
(885,782,c),
(1111,806,o),
(1171,925,o),
(1174,1095,cs),
(1180,1416,o),
(893,1464,o),
(591,1464,cs),
(152,1464,l)
);
},
{
closed = 1;
nodes = (
(298,112,l),
(298,730,l),
(593,730,ls),
(893,730,o),
(1073,694,o),
(1073,415,cs),
(1073,126,o),
(833,112,o),
(612,112,cs)
);
},
{
closed = 1;
nodes = (
(298,837,l),
(298,1352,l),
(598,1352,ls),
(833,1352,o),
(1035,1343,o),
(1035,1100,cs),
(1035,851,o),
(879,837,o),
(565,837,cs)
);
}
);
width = 1302.57;
},
{
anchors = (
{
name = bot;
pos = (577,0);
},
{
name = top;
pos = (697,1464);
}
);
layerId = "5D328E58-2F78-4B3D-8E27-494E56F2C351";
name = Bold;
shapes = (
{
closed = 1;
nodes = (
(136,0,l),
(559,0,ls),
(1017,0,o),
(1251,85,o),
(1251,413,cs),
(1251,604,o),
(1190,746,o),
(976,778,c),
(1172,812,o),
(1203,948,o),
(1203,1108,cs),
(1203,1417,o),
(897,1464,o),
(595,1464,cs),
(136,1464,l)
);
},
{
closed = 1;
nodes = (
(356,164,l),
(356,697,l),
(633,697,ls),
(903,697,o),
(1032,669,o),
(1032,419,cs),
(1032,168,o),
(807,164,o),
(586,164,cs)
);
},
{
closed = 1;
nodes = (
(356,857,l),
(356,1300,l),
(602,1300,ls),
(837,1300,o),
(983,1304,o),
(994,1114,cs),
(1006,903,o),
(947,857,o),
(639,857,cs)
);
}
);
width = 1331;
}
);
unicode = 66;
userData = {
com.typemytype.robofont.layerData = {
};
};
},
{
glyphname = C;
kernLeft = _O_left;
lastChange = "2013-12-31 02:57:01 +0000";
layers = (
{
anchors = (
{
name = bot;
pos = (742,0);
},
{
name = top;
pos = (743,1464);
}
);
layerId = "E322F6D1-BA90-436B-BB35-51D9BD3EA9D1";
name = Regular;
shapes = (
{
closed = 1;
nodes = (
(742,-24,cs),
(1000,-24,o),
(1201,102,o),
(1273,365,c),
(1139,396,l),
(1093,219,o),
(968,93,o),
(737,93,cs),
(392,93,o),
(271,339,o),
(271,736,cs),
(271,1133,o),
(392,1374,o),
(737,1374,cs),
(968,1374,o),
(1093,1248,o),
(1139,1071,c),
(1273,1102,l),
(1201,1365,o),
(1000,1491,o),
(742,1491,cs),
(359,1491,o),
(118,1267,o),
(118,736,cs),
(118,205,o),
(359,-24,o)
);
}
);
width = 1384;
},
{
anchors = (
{
name = bot;
pos = (737,0);
},
{
name = top;
pos = (773,1464);
}
);
layerId = "5D328E58-2F78-4B3D-8E27-494E56F2C351";
name = Bold;
shapes = (
{
closed = 1;
nodes = (
(774,-24,cs),
(1032,-24,o),
(1248,79,o),
(1341,355,c),
(1137,402,l),
(1081,253,o),
(988,150,o),
(765,150,cs),
(453,150,o),
(346,337,o),
(346,734,cs),
(346,1131,o),
(453,1313,o),
(765,1313,cs),
(988,1313,o),
(1081,1211,o),
(1137,1062,c),
(1341,1109,l),
(1248,1385,o),
(1032,1488,o),
(774,1488,cs),
(352,1488,o),
(114,1265,o),
(114,734,cs),
(114,203,o),
(352,-24,o)
);
}
);
width = 1410;
}
);
unicode = 67;
userData = {
com.typemytype.robofont.layerData = {
};
};
},
{
glyphname = D;
kernRight = _O_right;
lastChange = "2013-12-31 02:57:01 +0000";
layers = (
{
anchors = (
{
name = top;
pos = (617,1464);
}
);
layerId = "E322F6D1-BA90-436B-BB35-51D9BD3EA9D1";
name = Regular;
shapes = (
{
closed = 1;
nodes = (
(298,112,l),
(298,1352,l),
(657,1352,ls),
(1041,1352,o),
(1144,1131,o),
(1144,737,cs),
(1144,288,o),
(1012,112,o),
(601,112,cs)
);
},
{
closed = 1;
nodes = (
(152,0,l),
(649,0,ls),
(1087,0,o),
(1291,203,o),
(1291,738,cs),
(1291,1280,o),
(1068,1464,o),
(656,1464,cs),
(152,1464,l)
);
}
);
width = 1409;
},
{
anchors = (
{
name = top;
pos = (697,1464);
}
);
layerId = "5D328E58-2F78-4B3D-8E27-494E56F2C351";
name = Bold;
shapes = (
{
closed = 1;
nodes = (
(356,168,l),
(356,1296,l),
(682,1296,ls),
(1028,1296,o),
(1125,1127,o),
(1125,737,cs),
(1125,292,o),
(999,168,o),
(622,168,cs)
);
},
{
closed = 1;
nodes = (
(136,0,l),
(685,0,ls),
(1157,0,o),
(1346,213,o),
(1346,738,cs),
(1346,1280,o),
(1126,1464,o),
(684,1464,cs),
(136,1464,l)
);
}
);
width = 1460;
}
);
unicode = 68;
userData = {
com.typemytype.robofont.layerData = {
};
};
},
{
glyphname = E;
lastChange = "2013-12-31 02:57:01 +0000";
layers = (
{
anchors = (
{
name = ogonek;
pos = (825,0);
},
{
name = top;
pos = (670,1464);
}
);
layerId = "E322F6D1-BA90-436B-BB35-51D9BD3EA9D1";
name = Regular;
shapes = (
{
closed = 1;
nodes = (
(152,0,l),
(1132,0,l),
(1132,112,l),
(298,112,l),
(298,723,l),
(1014,723,l),
(1014,838,l),
(298,838,l),
(298,1352,l),
(1121,1352,l),
(1121,1464,l),
(152,1464,l)
);
}
);
width = 1206;
},
{
anchors = (
{
name = top;
pos = (687,1464);
}
);
layerId = "5D328E58-2F78-4B3D-8E27-494E56F2C351";
name = Bold;
shapes = (
{
closed = 1;
nodes = (
(136,0,l),
(1160,0,l),
(1160,164,l),
(356,164,l),
(356,694,l),
(1047,694,l),
(1047,862,l),
(356,862,l),
(356,1300,l),
(1149,1300,l),
(1149,1464,l),
(136,1464,l)
);
}
);
width = 1230;
}
);
unicode = 69;
userData = {
anchors = (
);
b = {
};
com.typemytype.robofont.layerData = {
};
components = (
);
contours = {
};
lib = {
};
name = E;
points = {
};
segmentType = line;
unicodes = (
);
width = 1202;
x = 1128;
y = 112;
};
},
{
glyphname = F;
lastChange = "2013-12-31 02:57:01 +0000";
layers = (
{
anchors = (
{
name = top;
pos = (642,1464);
}
);
layerId = "E322F6D1-BA90-436B-BB35-51D9BD3EA9D1";
name = Regular;
shapes = (
{
closed = 1;
nodes = (
(152,0,l),
(298,0,l),
(298,716,l),
(1013,716,l),
(1013,830,l),
(298,830,l),
(298,1352,l),
(1121,1352,l),
(1121,1464,l),
(152,1464,l)
);
}
);
width = 1182.67;
},
{
anchors = (
{
name = top;
pos = (690,1464);
}
);
layerId = "5D328E58-2F78-4B3D-8E27-494E56F2C351";
name = Bold;
shapes = (
{
closed = 1;
nodes = (
(136,0,l),
(356,0,l),
(356,682,l),
(1050,682,l),
(1050,850,l),
(356,850,l),
(356,1300,l),
(1162,1300,l),
(1162,1464,l),
(136,1464,l)
);
}
);
width = 1205;
}
);
unicode = 70;
userData = {
anchors = (
);
b = {
};
com.typemytype.robofont.layerData = {
};
components = (
);
contours = {
};
lib = {
};
name = F;
points = {
};
segmentType = line;
unicodes = (
);
width = 1178.66667;
x = 1117;
y = 1464;
};
},
{
glyphname = G;
kernLeft = _O_left;
lastChange = "2013-12-31 02:57:01 +0000";
layers = (
{
anchors = (
{
name = bot;
pos = (712,0);
},
{
name = top;
pos = (747,1464);
}
);
layerId = "E322F6D1-BA90-436B-BB35-51D9BD3EA9D1";
name = Regular;
shapes = (
{
closed = 1;
nodes = (
(726,-25,cs),
(910,-25,o),
(1059,58,o),
(1123,184,c),
(1151,0,l),
(1248,0,l),
(1248,0,o),
(1258,428,o),
(1258,581,cs),
(1258,789,l),
(742,789,l),
(742,664,l),
(1114,664,l),
(1114,444,ls),
(1114,203,o),
(910,93,o),
(744,93,cs),
(406,93,o),
(271,319,o),
(271,721,cs),
(271,1149,o),
(410,1374,o),
(744,1374,cs),
(925,1374,o),
(1056,1276,o),
(1123,1095,c),
(1249,1139,l),
(1163,1374,o),
(989,1491,o),
(745,1491,cs),
(370,1491,o),
(118,1271,o),
(118,722,cs),
(118,168,o),
(385,-25,o)
);
}
);
width = 1393;
},
{
anchors = (
{
name = bot;
pos = (747,0);
},
{
name = top;
pos = (763,1464);
}
);
layerId = "5D328E58-2F78-4B3D-8E27-494E56F2C351";
name = Bold;
shapes = (
{
closed = 1;
nodes = (
(746,-24,cs),
(930,-24,o),
(1049,46,o),
(1111,138,c),
(1155,0,l),
(1297,0,l),
(1297,0,o),
(1307,428,o),
(1307,581,cs),
(1307,824,l),
(783,824,l),
(783,636,l),
(1090,636,l),
(1090,452,ls),
(1090,245,o),
(930,150,o),
(764,150,cs),
(485,150,o),
(346,316,o),
(346,721,cs),
(346,1149,o),
(449,1313,o),
(752,1313,cs),
(939,1313,o),
(1051,1227,o),
(1119,1043,c),
(1310,1107,l),
(1229,1347,o),
(1062,1488,o),
(758,1488,cs),
(359,1488,o),
(114,1288,o),
(114,722,cs),
(114,164,o),
(392,-24,o)
);
}
);
width = 1428;
}
);
unicode = 71;
userData = {
com.typemytype.robofont.layerData = {
};
};
},
{
glyphname = H;
lastChange = "2013-12-31 02:57:01 +0000";
layers = (
{
anchors = (
{
name = top;
pos = (734,1464);
}
);
layerId = "E322F6D1-BA90-436B-BB35-51D9BD3EA9D1";
name = Regular;
shapes = (
{
closed = 1;
nodes = (
(152,0,l),
(298,0,l),
(298,720,l),
(1168,720,l),
(1168,0,l),
(1314,0,l),
(1314,1464,l),
(1168,1464,l),
(1168,836,l),
(298,836,l),
(298,1464,l),
(152,1464,l)
);
}
);
width = 1466;
},
{
anchors = (
{
name = bot;
pos = (760,0);
},
{
name = top;
pos = (777,1464);
}
);
layerId = "5D328E58-2F78-4B3D-8E27-494E56F2C351";
name = Bold;
shapes = (
{
closed = 1;
nodes = (
(136,0,l),
(356,0,l),
(356,669,l),
(1152,669,l),
(1152,0,l),
(1372,0,l),
(1372,1464,l),
(1152,1464,l),
(1152,844,l),
(356,844,l),
(356,1464,l),
(136,1464,l)
);
}
);
width = 1508;
}
);
unicode = 72;
userData = {
anchors = (
);
b = {
};
com.typemytype.robofont.layerData = {
};
components = (
);
contours = {
};
lib = {
};
name = H;
points = {
};
segmentType = line;
unicodes = (
);
width = 1457;
x = 294;
y = 836;
};
},
{
glyphname = I;
lastChange = "2013-12-31 02:57:01 +0000";
layers = (
{
anchors = (
{
name = ogonek;
pos = (251,0);
},
{
name = top;
pos = (237,1464);
}
);
layerId = "E322F6D1-BA90-436B-BB35-51D9BD3EA9D1";
name = Regular;
shapes = (
{
closed = 1;
nodes = (
(163,0,l),
(309,0,l),
(309,1464,l),
(163,1464,l)
);
}
);
width = 464;
},
{
anchors = (
{
name = top;
pos = (246,1464);
}
);
layerId = "5D328E58-2F78-4B3D-8E27-494E56F2C351";
name = Bold;
shapes = (
{
closed = 1;
nodes = (
(125,0,l),
(345,0,l),
(345,1464,l),
(125,1464,l)
);
}
);
width = 464;
}
);
unicode = 73;
},
{
glyphname = J;
lastChange = "2013-12-31 02:57:01 +0000";
layers = (
{
anchors = (
{
name = top;
pos = (749,1464);
}
);
layerId = "E322F6D1-BA90-436B-BB35-51D9BD3EA9D1";
name = Regular;
shapes = (
{
closed = 1;
nodes = (
(405,-25,cs),
(718,-25,o),
(818,166,o),
(818,544,cs),
(818,1464,l),
(673,1464,l),
(673,541,ls),
(673,306,o),
(657,95,o),
(417,93,cs),
(255,93,o),
(189,198,o),
(151,369,c),
(21,334,l),
(64,117,o),
(179,-25,o)
);
}
);
width = 954;
},
{
anchors = (
{
name = top;
pos = (816,1464);
}
);
layerId = "5D328E58-2F78-4B3D-8E27-494E56F2C351";
name = Bold;
shapes = (
{
closed = 1;
nodes = (
(457,-20,cs),
(774,-20,o),
(925,166,o),
(925,544,cs),
(925,1464,l),
(705,1464,l),
(705,541,ls),
(705,275,o),
(646,158,o),
(463,158,cs),
(366,158,o),
(272,216,o),
(234,387,c),
(35,332,l),
(78,115,o),
(227,-20,o)
);
}
);
width = 1061;
}
);
unicode = 74;
},
{
glyphname = K;
kernRight = _K_right;
lastChange = "2013-12-31 02:57:01 +0000";
layers = (
{
anchors = (
{
name = bot;
pos = (660,0);
},
{
name = top;
pos = (617,1464);
}
);
layerId = "E322F6D1-BA90-436B-BB35-51D9BD3EA9D1";
name = Regular;
shapes = (
{
closed = 1;
nodes = (
(152,0,l),
(298,0,l),
(298,550,l),
(554,814,l),
(1081,0,l),
(1248,0,l),
(653,916,l),
(1184,1464,l),
(1007,1464,l),
(298,724,l),
(298,1464,l),
(152,1464,l)
);
}
);
width = 1256;
},
{
anchors = (
{
name = bot;
pos = (667,0);
},
{
name = top;
pos = (677,1464);
}
);
layerId = "5D328E58-2F78-4B3D-8E27-494E56F2C351";
name = Bold;
shapes = (
{
closed = 1;
nodes = (
(136,0,l),
(356,0,l),
(356,538,l),
(577,766,l),
(1059,0,l),
(1308,0,l),
(727,921,l),
(1254,1464,l),
(990,1464,l),
(356,798,l),
(356,1464,l),
(136,1464,l)
);
}
);
width = 1300;
}
);
unicode = 75;
userData = {
anchors = (
);
b = {
};
com.typemytype.robofont.layerData = {
};
components = (
);
contours = {
};
lib = {
};
name = K;
points = {
};
segmentType = line;
unicodes = (
);
width = 1252;
x = 1003;
y = 1464;
};
},
{
glyphname = L;
lastChange = "2013-12-31 02:57:01 +0000";
layers = (
{
anchors = (
{
name = bot;
pos = (592,0);
},
{
name = caron.alt;
pos = (424,1023);
},
{
name = top;
pos = (621,1474);
}
);
layerId = "E322F6D1-BA90-436B-BB35-51D9BD3EA9D1";
name = Regular;
shapes = (
{
closed = 1;
nodes = (
(152,0,l),
(1045,0,l),
(1045,112,l),
(298,112,l),
(298,1464,l),
(152,1464,l)
);
}
);
width = 1024;
},
{
anchors = (
{
name = bot;
pos = (617,0);
},
{
name = caron.alt;
pos = (544,1023);
},
{
name = top;
pos = (691,1474);
}
);
layerId = "5D328E58-2F78-4B3D-8E27-494E56F2C351";
name = Bold;
shapes = (
{
closed = 1;
nodes = (
(136,0,l),
(1083,0,l),
(1083,164,l),
(356,164,l),
(356,1464,l),
(136,1464,l)
);
}
);
width = 1077;
}
);
unicode = 76;
userData = {
anchors = (
);
b = {
};
com.typemytype.robofont.layerData = {
};
components = (
);
contours = {
};
lib = {
};
name = L;
points = {
};
segmentType = line;
unicodes = (
);
width = 1020;
x = 1041;
y = 112;
};
},
{
glyphname = M;
lastChange = "2013-12-31 02:57:01 +0000";
layers = (
{
anchors = (
{
name = top;
pos = (842,1464);
}
);
layerId = "E322F6D1-BA90-436B-BB35-51D9BD3EA9D1";
name = Regular;
shapes = (
{
closed = 1;
nodes = (
(152,0,l),
(291,0,l),
(291,1282,l),
(757,250,l),
(892,250,l),
(1367,1277,l),
(1367,0,l),
(1501,0,l),
(1501,1464,l),
(1310,1464,l),
(830,405,l),
(363,1464,l),
(152,1464,l)
);
}
);
width = 1653;
},
{
anchors = (
{
name = bot;
pos = (807,0);
},
{
name = top;
pos = (872,1464);
}
);
layerId = "5D328E58-2F78-4B3D-8E27-494E56F2C351";
name = Bold;
shapes = (
{
closed = 1;
nodes = (
(136,0,l),
(345,0,l),
(345,1192,l),
(734,250,l),
(935,250,l),
(1337,1182,l),
(1337,0,l),
(1539,0,l),
(1539,1464,l),
(1251,1464,l),
(843,485,l),
(455,1464,l),
(136,1464,l)
);
}
);
width = 1675;
}
);
unicode = 77;
userData = {
com.typemytype.robofont.layerData = {
};
};
},
{
glyphname = N;
lastChange = "2013-12-31 02:57:01 +0000";
layers = (
{
anchors = (
{
name = bot;
pos = (763,0);
},
{
name = top;
pos = (789,1474);
}
);
layerId = "E322F6D1-BA90-436B-BB35-51D9BD3EA9D1";
name = Regular;
shapes = (
{
closed = 1;
nodes = (
(152,0,l),
(285,0,l),
(285,1290,l),
(1215,0,l),
(1347,0,l),
(1347,1464,l),
(1218,1464,l),
(1218,221,l),
(315,1464,l),
(152,1464,l)
);
}
);
width = 1499;
},
{
anchors = (
{
name = bot;
pos = (717,0);
},
{
name = top;
pos = (767,1464);
}
);
layerId = "5D328E58-2F78-4B3D-8E27-494E56F2C351";
name = Bold;
shapes = (
{
closed = 1;
nodes = (
(136,0,l),
(333,0,l),
(333,1204,l),
(1169,0,l),
(1360,0,l),
(1360,1464,l),
(1170,1464,l),
(1170,335,l),
(377,1464,l),
(136,1464,l)
);
}
);
width = 1496;
}
);
unicode = 78;
userData = {
com.typemytype.robofont.layerData = {
};
};
},
{
glyphname = O;
kernLeft = _O_left;
kernRight = _O_right;
lastChange = "2013-12-31 02:57:01 +0000";
layers = (
{
anchors = (
{
name = ogonek;
pos = (785,0);
},
{
name = top;
pos = (747,1464);
}
);
layerId = "E322F6D1-BA90-436B-BB35-51D9BD3EA9D1";
name = Regular;
shapes = (
{
closed = 1;
nodes = (
(728,92,cs),
(388,92,o),
(272,302,o),
(272,741,cs),
(272,1131,o),
(374,1372,o),
(727,1372,cs),
(1081,1372,o),
(1185,1131,o),
(1185,740,cs),
(1185,298,o),
(1068,92,o)
);
},
{
closed = 1;
nodes = (
(726,-24,cs),
(1117,-24,o),
(1339,193,o),
(1339,741,cs),
(1339,1281,o),
(1107,1488,o),
(727,1488,cs),
(348,1488,o),
(118,1282,o),
(118,740,cs),
(118,186,o),
(343,-24,o)
);
}
);
width = 1457;
},
{
anchors = (
{
name = ogonek;
pos = (823,0);
},
{
name = top;
pos = (762,1464);
}
);
layerId = "5D328E58-2F78-4B3D-8E27-494E56F2C351";
name = Bold;
shapes = (
{
closed = 1;
nodes = (
(763,150,cs),
(448,150,o),
(346,339,o),
(346,740,cs),
(346,1094,o),
(433,1313,o),
(763,1313,cs),
(1094,1313,o),
(1183,1095,o),
(1183,739,cs),
(1183,334,o),
(1084,150,o)
);
},
{
closed = 1;
nodes = (
(762,-24,cs),
(1163,-24,o),
(1415,183,o),
(1415,741,cs),
(1415,1291,o),
(1153,1488,o),
(763,1488,cs),
(374,1488,o),
(114,1292,o),
(114,740,cs),
(114,176,o),
(369,-24,o)
);
}
);
width = 1529;
}
);
unicode = 79;
userData = {
angle = 90;
com.typemytype.robofont.guides = {
};
com.typemytype.robofont.layerData = {
};
magnetic = 5;
x = 723;
y = 1471;
};
},
{
glyphname = P;
lastChange = "2013-12-31 02:57:01 +0000";
layers = (
{
anchors = (
{
name = top;
pos = (632,1464);
}
);
layerId = "E322F6D1-BA90-436B-BB35-51D9BD3EA9D1";
name = Regular;
shapes = (
{
closed = 1;
nodes = (
(152,0,l),
(298,0,l),
(298,635,l),
(479,635,ls),
(991,635,o),
(1190,724,o),
(1190,1063,cs),
(1190,1360,o),
(1014,1464,o),
(538,1464,cs),
(152,1464,l)
);
},
{
closed = 1;
nodes = (
(298,748,l),
(298,1352,l),
(515,1352,ls),
(898,1352,o),
(1042,1306,o),
(1042,1055,cs),
(1042,807,o),
(898,749,o),
(535,748,cs)
);
}
);
width = 1252;
},
{
anchors = (
{
name = top;
pos = (617,1464);
}
);
layerId = "5D328E58-2F78-4B3D-8E27-494E56F2C351";
name = Bold;
shapes = (
{
closed = 1;
nodes = (
(136,0,l),
(356,0,l),
(356,625,l),
(541,625,ls),
(1053,625,o),
(1241,724,o),
(1241,1063,cs),
(1241,1360,o),
(1046,1464,o),
(570,1464,cs),
(136,1464,l)
);
},
{
closed = 1;
nodes = (
(356,794,l),
(356,1298,l),
(557,1298,ls),
(856,1298,o),
(1017,1283,o),
(1017,1055,cs),
(1017,830,o),
(892,794,o),
(577,794,cs)
);
}
);
width = 1295;
}
);
unicode = 80;
userData = {
com.typemytype.robofont.layerData = {
};
};
},
{
glyphname = Q;
kernLeft = _O_left;
lastChange = "2013-12-31 02:57:01 +0000";
layers = (
{
anchors = (
{
name = ogonek;
pos = (785,0);
},
{
name = top;
pos = (747,1464);
}
);
layerId = "E322F6D1-BA90-436B-BB35-51D9BD3EA9D1";
name = Regular;
shapes = (
{
closed = 1;
nodes = (
(1266,-345,l),
(1374,-263,l),
(1114,90,l),
(1260,205,o),
(1339,414,o),
(1339,741,cs),
(1339,1281,o),
(1107,1488,o),
(727,1488,cs),
(348,1488,o),
(118,1282,o),
(118,740,cs),
(118,186,o),
(343,-24,o),
(726,-24,cs),
(834,-24,o),
(929,-8,o),
(1010,28,c)
);
},
{
closed = 1;
nodes = (
(728,92,cs),
(388,92,o),
(272,302,o),
(272,741,cs),
(272,1131,o),
(374,1372,o),
(727,1372,cs),
(1081,1372,o),
(1185,1131,o),
(1185,740,cs),
(1185,298,o),
(1068,92,o)
);
}
);
width = 1462;
},
{
anchors = (
{
name = top;
pos = (762,1464);
}
);
layerId = "5D328E58-2F78-4B3D-8E27-494E56F2C351";
name = Bold;
shapes = (
{
closed = 1;
nodes = (
(1290,-364,l),
(1453,-243,l),
(1190,104,l),
(1334,221,o),
(1415,424,o),
(1415,741,cs),
(1415,1291,o),
(1153,1488,o),
(763,1488,cs),
(374,1488,o),
(114,1292,o),
(114,740,cs),
(114,176,o),
(369,-24,o),
(762,-24,cs),
(861,-24,o),
(952,-11,o),
(1031,16,c)
);
},
{
closed = 1;
nodes = (
(763,150,cs),
(448,150,o),
(346,339,o),
(346,740,cs),
(346,1094,o),
(433,1313,o),
(763,1313,cs),
(1094,1313,o),
(1183,1095,o),
(1183,739,cs),
(1183,334,o),
(1084,150,o)
);
}
);
width = 1546;
}
);
unicode = 81;
userData = {
anchors = (
);
b = {
};
com.typemytype.robofont.layerData = {
};
components = (
);
contours = {
};
lib = {
};
name = Q;
points = {
};
segmentType = curve;
unicodes = (
);
width = 1434;
x = 1076;
y = 1374;
};
},
{
glyphname = R;
lastChange = "2013-12-31 02:57:01 +0000";
layers = (
{
anchors = (
{
name = bot;
pos = (662,0);
},
{
name = top;
pos = (637,1464);
}
);
layerId = "E322F6D1-BA90-436B-BB35-51D9BD3EA9D1";
name = Regular;
shapes = (
{
closed = 1;
nodes = (
(152,0,l),
(298,0,l),
(298,675,l),
(754,675,l),
(1086,0,l),
(1242,0,l),
(902,695,l),
(1111,733,o),
(1218,869,o),
(1218,1081,cs),
(1218,1346,o),
(1068,1464,o),
(681,1464,cs),
(152,1464,l)
);
},
{
closed = 1;
nodes = (
(298,786,l),
(298,1352,l),
(672,1352,ls),
(873,1352,o),
(1069,1336,o),
(1069,1079,cs),
(1069,825,o),
(892,786,o),
(678,786,cs)
);
}
);
width = 1300;
},
{
anchors = (
{
name = bot;
pos = (667,0);
},
{
name = top;
pos = (647,1464);
}
);
layerId = "5D328E58-2F78-4B3D-8E27-494E56F2C351";
name = Bold;
shapes = (
{
closed = 1;
nodes = (
(136,0,l),
(356,0,l),
(356,662,l),
(722,662,l),
(1054,0,l),
(1291,0,l),
(942,692,l),
(1138,732,o),
(1256,876,o),
(1256,1075,cs),
(1256,1337,o),
(1100,1464,o),
(713,1464,cs),
(136,1464,l)
);
},
{
closed = 1;
nodes = (
(356,828,l),
(356,1298,l),
(704,1298,ls),
(905,1298,o),
(1032,1261,o),
(1032,1073,cs),
(1032,874,o),
(891,828,o),
(677,828,cs)
);
}
);
width = 1340;
}
);
unicode = 82;
userData = {
com.typemytype.robofont.layerData = {
};
};
},
{
glyphname = S;
lastChange = "2013-12-31 02:57:01 +0000";
layers = (
{
anchors = (
{
name = _bot;
pos = (616,0);
},
{
name = top;
pos = (632,1464);
}
);
layerId = "E322F6D1-BA90-436B-BB35-51D9BD3EA9D1";
name = Regular;
shapes = (
{
closed = 1;
nodes = (
(612,-25,cs),
(938,-25,o),
(1155,126,o),
(1155,393,cs),
(1155,646,o),
(998,735,o),
(710,829,cs),
(489,901,o),
(281,934,o),
(281,1137,cs),
(281,1308,o),
(443,1374,o),
(636,1374,cs),
(794,1374,o),
(936,1303,o),
(1016,1160,c),
(1124,1240,l),
(1006,1420,o),
(847,1491,o),
(615,1491,cs),
(369,1491,o),
(128,1378,o),
(128,1125,cs),
(128,880,o),
(325,806,o),
(562,731,cs),
(879,631,o),
(1002,584,o),
(1002,388,cs),
(1002,161,o),
(803,93,o),
(627,93,cs),
(377,93,o),
(226,200,o),
(165,426,c),
(42,373,l),
(98,69,o),
(387,-25,o)
);
}
);
width = 1213;
},
{
anchors = (
{
name = bot;
pos = (626,0);
},
{
name = top;
pos = (622,1464);
}
);
layerId = "5D328E58-2F78-4B3D-8E27-494E56F2C351";
name = Bold;
shapes = (
{
closed = 1;
nodes = (
(620,-25,cs),
(980,-25,o),
(1168,118,o),
(1168,393,cs),
(1168,676,o),
(1002,778,o),
(732,866,cs),
(457,956,o),
(335,966,o),
(335,1139,cs),
(335,1255,o),
(442,1316,o),
(648,1316,cs),
(793,1316,o),
(885,1261,o),
(970,1123,c),
(1122,1240,l),
(996,1426,o),
(868,1491,o),
(623,1491,cs),
(283,1491,o),
(106,1366,o),
(106,1125,cs),
(106,852,o),
(296,788,o),
(572,699,cs),
(860,606,o),
(938,571,o),
(939,386,cs),
(940,232,o),
(837,152,o),
(639,152,cs),
(410,152,o),
(306,230,o),
(235,454,c),
(50,373,l),
(98,111,o),
(294,-25,o)
);
}
);
width = 1235;
}
);
unicode = 83;
userData = {
anchors = (
);
b = {
};
com.typemytype.robofont.layerData = {
};
components = (
);
contours = {
};
lib = {
};
name = S;
points = {
};
segmentType = curve;
unicodes = (
);
width = 1216;
x = 372;
y = 1491;
};
},
{
glyphname = T;
kernLeft = T_left;
kernRight = T_right;
lastChange = "2013-12-31 02:57:01 +0000";
layers = (
{
anchors = (
{
name = bot;
pos = (568,0);
},
{
name = top;
pos = (572,1464);
}
);
layerId = "E322F6D1-BA90-436B-BB35-51D9BD3EA9D1";
name = Regular;
shapes = (
{
closed = 1;
nodes = (
(493,0,l),
(639,0,l),
(639,1352,l),
(1110,1352,l),
(1110,1464,l),
(9,1464,l),
(9,1352,l),
(493,1352,l)
);
}
);
width = 1119;
},
{
anchors = (
{
name = bot;
pos = (577,0);
},
{
name = top;
pos = (585,1464);
}
);
layerId = "5D328E58-2F78-4B3D-8E27-494E56F2C351";
name = Bold;
shapes = (
{
closed = 1;
nodes = (
(462,0,l),
(682,0,l),
(682,1300,l),
(1110,1300,l),
(1110,1464,l),
(9,1464,l),
(9,1300,l),
(462,1300,l)
);
}
);
width = 1119;
}
);
unicode = 84;
userData = {
anchors = (
);
b = {
};
com.typemytype.robofont.layerData = {
};
components = (
);
contours = {
};
lib = {
};
name = T;
points = {
};
segmentType = line;
unicodes = (
);
width = 1119;
x = 483;
y = 1352;
};
},
{
glyphname = U;
lastChange = "2013-12-31 02:57:01 +0000";
layers = (
{
anchors = (
{
name = ogonek;
pos = (805,0);
},
{
name = top;
pos = (709,1464);
}
);
layerId = "E322F6D1-BA90-436B-BB35-51D9BD3EA9D1";
name = Regular;
shapes = (
{
closed = 1;
nodes = (
(670,-24,cs),
(1046,-24,o),
(1223,157,o),
(1223,577,cs),
(1223,1464,l),
(1077,1464,l),
(1077,574,ls),
(1077,279,o),
(1002,92,o),
(676,92,cs),
(348,92,o),
(269,273,o),
(269,574,cs),
(269,1464,l),
(123,1464,l),
(123,570,ls),
(123,149,o),
(308,-24,o)
);
}
);
width = 1346;
},
{
anchors = (
{
name = ogonek;
pos = (803,0);
},
{
name = top;
pos = (701,1464);
}
);
layerId = "5D328E58-2F78-4B3D-8E27-494E56F2C351";
name = Bold;
shapes = (
{
closed = 1;
nodes = (
(691,-24,cs),
(1077,-24,o),
(1276,161,o),
(1276,581,cs),
(1276,1464,l),
(1056,1464,l),
(1056,598,ls),
(1056,303,o),
(988,150,o),
(697,150,cs),
(404,150,o),
(336,308,o),
(336,598,cs),
(336,1464,l),
(116,1464,l),
(116,574,ls),
(116,152,o),
(319,-24,o)
);
}
);
width = 1392;
}
);
unicode = 85;
userData = {
com.typemytype.robofont.layerData = {
};
};
},
{
glyphname = V;
kernLeft = _W_left;
kernRight = _W_right;
lastChange = "2013-12-31 02:57:01 +0000";
layers = (
{
layerId = "E322F6D1-BA90-436B-BB35-51D9BD3EA9D1";
name = Regular;
shapes = (
{
closed = 1;
nodes = (
(513,0,l),
(651,0,l),
(1162,1464,l),
(1018,1464,l),
(586,193,l),
(143,1464,l),
(-8,1464,l)
);
}
);
width = 1164;
},
{
layerId = "5D328E58-2F78-4B3D-8E27-494E56F2C351";
name = Bold;
shapes = (
{
closed = 1;
nodes = (
(477,0,l),
(688,0,l),
(1177,1464,l),
(960,1464,l),
(589,287,l),
(215,1464,l),
(-13,1464,l)
);
}
);
width = 1164;
}
);
unicode = 86;
userData = {
com.typemytype.robofont.layerData = {
};
};
},
{
glyphname = W;
kernLeft = _W_left;
kernRight = _W_right;
lastChange = "2013-12-31 02:57:01 +0000";
layers = (
{
anchors = (
{
name = top;
pos = (927,1464);
}
);
layerId = "E322F6D1-BA90-436B-BB35-51D9BD3EA9D1";
name = Regular;
shapes = (
{
closed = 1;
nodes = (
(437,0,l),
(548,0,l),
(915,1187,l),
(1252,0,l),
(1378,0,l),
(1793,1464,l),
(1654,1464,l),
(1324,217,l),
(977,1464,l),
(873,1464,l),
(498,234,l),
(172,1464,l),
(20,1464,l)
);
}
);
width = 1813;
},
{
anchors = (
{
name = top;
pos = (956,1464);
}
);
layerId = "5D328E58-2F78-4B3D-8E27-494E56F2C351";
name = Bold;
shapes = (
{
closed = 1;
nodes = (
(417,0,l),
(586,0,l),
(938,1041,l),
(1238,0,l),
(1427,0,l),
(1869,1464,l),
(1660,1464,l),
(1346,325,l),
(1030,1464,l),
(876,1464,l),
(511,351,l),
(229,1464,l),
(0,1464,l)
);
}
);
width = 1869;
}
);
unicode = 87;
userData = {
anchors = (
);
b = {
};
com.typemytype.robofont.layerData = {
};
components = (
);
contours = (
);
lib = {
};
name = W;
unicodes = (
);
width = 1797;
};
},
{
glyphname = X;
lastChange = "2013-12-31 02:57:01 +0000";
layers = (
{
layerId = "E322F6D1-BA90-436B-BB35-51D9BD3EA9D1";
name = Regular;
shapes = (
{
closed = 1;
nodes = (
(6,0,l),
(173,0,l),
(620,643,l),
(1066,0,l),
(1239,0,l),
(707,769,l),
(1195,1464,l),
(1029,1464,l),
(625,887,l),
(226,1464,l),
(51,1464,l),
(538,761,l)
);
}
);
width = 1245;
},
{
layerId = "5D328E58-2F78-4B3D-8E27-494E56F2C351";
name = Bold;
shapes = (
{
closed = 1;
nodes = (
(-4,0,l),
(246,0,l),
(648,580,l),
(1050,0,l),
(1310,0,l),
(779,768,l),
(1269,1464,l),
(1020,1464,l),
(657,944,l),
(297,1464,l),
(35,1464,l),
(526,756,l)
);
}
);
width = 1306;
}
);
unicode = 88;
userData = {
anchors = (
);
b = {
};
com.typemytype.robofont.layerData = {
};
components = (
);
contours = {
};
lib = {
};
name = X;
points = {
};
segmentType = line;
unicodes = (
);
width = 1245;
x = 1239;
y = 0;
};
},
{
glyphname = Y;
kernLeft = _Y_left;
lastChange = "2013-12-31 02:57:01 +0000";
layers = (
{
anchors = (
{
name = top;
pos = (617,1464);
}
);
layerId = "E322F6D1-BA90-436B-BB35-51D9BD3EA9D1";
name = Regular;
shapes = (
{
closed = 1;
nodes = (
(509,0,l),
(654,0,l),
(654,548,l),
(1165,1464,l),
(1009,1464,l),
(583,681,l),
(154,1464,l),
(-3,1464,l),
(509,549,l)
);
}
);
width = 1162;
},
{
anchors = (
{
name = top;
pos = (628,1464);
}
);
layerId = "5D328E58-2F78-4B3D-8E27-494E56F2C351";
name = Bold;
shapes = (
{
closed = 1;
nodes = (
(501,0,l),
(719,0,l),
(719,548,l),
(1218,1464,l),
(983,1464,l),
(612,747,l),
(234,1464,l),
(-2,1464,l),
(501,549,l)
);
}
);
width = 1216;
}
);
unicode = 89;
userData = {
com.typemytype.robofont.layerData = {
};
};
},
{
glyphname = Z;
lastChange = "2013-12-31 02:57:01 +0000";
layers = (
{
anchors = (
{
name = top;
pos = (617,1464);
}
);
layerId = "E322F6D1-BA90-436B-BB35-51D9BD3EA9D1";
name = Regular;
shapes = (
{
closed = 1;
nodes = (
(47,0,l),
(1134,0,l),
(1139,110,l),
(234,110,l),
(1132,1369,l),
(1132,1464,l),
(130,1464,l),
(130,1354,l),
(946,1354,l),
(47,98,l)
);
}
);
width = 1176;
},
{
anchors = (
{
name = top;
pos = (641,1464);
}
);
layerId = "5D328E58-2F78-4B3D-8E27-494E56F2C351";
name = Bold;
shapes = (
{
closed = 1;
nodes = (
(42,0,l),
(1134,0,l),
(1141,165,l),
(322,165,l),
(1136,1325,l),
(1136,1464,l),
(125,1464,l),
(125,1298,l),
(853,1298,l),
(42,148,l)
);
}
);
width = 1176;
}
);
unicode = 90;
userData = {
com.typemytype.robofont.layerData = {
};
};
},
{
glyphname = AE;
kernLeft = _A_left;
lastChange = "2013-12-31 02:57:01 +0000";
layers = (
{
anchors = (
{
name = top;
pos = (1380,1464);
}
);
layerId = "E322F6D1-BA90-436B-BB35-51D9BD3EA9D1";
name = Regular;
shapes = (
{
closed = 1;
nodes = (
(-36,0,l),
(124,0,l),
(371,399,l),
(974,399,l),
(974,0,l),
(2015,0,l),
(2015,112,l),
(1118,112,l),
(1118,723,l),
(1842,723,l),
(1843,838,l),
(1118,838,l),
(1118,1352,l),
(2005,1352,l),
(2005,1464,l),
(870,1464,l)
);
},
{
closed = 1;
nodes = (
(431,508,l),
(974,1406,l),
(974,508,l)
);
}
);
width = 2030;
},
{
anchors = (
{
name = top;
pos = (1455,1464);
}
);
layerId = "5D328E58-2F78-4B3D-8E27-494E56F2C351";
name = Bold;
shapes = (
{
closed = 1;
nodes = (
(-47,0,l),
(193,0,l),
(410,369,l),
(974,369,l),
(974,0,l),
(2015,0,l),
(2015,168,l),
(1192,168,l),
(1192,696,l),
(1842,696,l),
(1843,868,l),
(1192,868,l),
(1192,1296,l),
(2005,1296,l),
(2005,1464,l),
(817,1464,l)
);
},
{
closed = 1;
nodes = (
(500,532,l),
(974,1378,l),
(974,532,l)
);
}
);
width = 2030;
}
);
unicode = 198;
userData = {
anchors = (
);
b = {
};
com.typemytype.robofont.layerData = {
};
components = (
);
contours = (
);
lib = {
};
name = AE;
unicodes = (
);
width = 2030;
};
},
{
glyphname = Eth;
kernRight = _O_right;
lastChange = "2013-12-31 02:57:01 +0000";
layers = (
{
layerId = "E322F6D1-BA90-436B-BB35-51D9BD3EA9D1";
name = Regular;
shapes = (
{
closed = 1;
nodes = (
(0,702,l),
(550,702,l),
(550,788,l),
(0,788,l)
);
},
{
ref = D;
}
);
width = 1444;
},
{
layerId = "5D328E58-2F78-4B3D-8E27-494E56F2C351";
name = Bold;
shapes = (
{
closed = 1;
nodes = (
(0,681,l),
(570,681,l),
(570,808,l),
(0,808,l)
);
},
{
ref = D;
}
);
width = 1444;
}
);
unicode = 208;
userData = {
anchors = (
);
b = {
};
com.typemytype.robofont.layerData = {
};
components = (
);
contours = (
);
lib = {
};
name = Eth;
unicodes = (
);
width = 1444;
};
},
{
glyphname = Oslash;
kernLeft = _O_left;
kernRight = _O_right;
lastChange = "2013-12-31 02:57:01 +0000";
layers = (
{
layerId = "E322F6D1-BA90-436B-BB35-51D9BD3EA9D1";
name = Regular;
shapes = (
{
closed = 1;
nodes = (
(320,-204,l),
(1210,1614,l),
(1126,1658,l),
(235,-160,l)
);
},
{
ref = O;
}
);
width = 1497;
},
{
layerId = "5D328E58-2F78-4B3D-8E27-494E56F2C351";
name = Bold;
shapes = (
{
closed = 1;
nodes = (
(362,-214,l),
(1252,1604,l),
(1126,1670,l),
(235,-148,l)
);
},
{
ref = O;
}
);
width = 1497;
}
);
unicode = 216;
userData = {
anchors = (
);
b = {
};
com.typemytype.robofont.layerData = {
};
components = (
);
contours = (
);
lib = {
};
name = Oslash;
unicodes = (
);
width = 1497;
};
},
{
glyphname = Thorn;
lastChange = "2013-12-31 02:57:01 +0000";
layers = (
{
layerId = "E322F6D1-BA90-436B-BB35-51D9BD3EA9D1";
name = Regular;
shapes = (
{
closed = 1;
nodes = (
(140,0,l),
(296,0,l),
(296,335,l),
(502,335,ls),
(1007,335,o),
(1203,442,o),
(1203,773,cs),
(1203,1062,o),
(1030,1194,o),
(561,1194,cs),
(296,1194,l),
(296,1464,l),
(140,1464,l)
);
},
{
closed = 1;
nodes = (
(296,449,l),
(296,1080,l),
(538,1080,ls),
(914,1080,o),
(1055,1005,o),
(1055,765,cs),
(1055,526,o),
(914,450,o),
(558,449,cs)
);
}
);
width = 1261;
},
{
layerId = "5D328E58-2F78-4B3D-8E27-494E56F2C351";
name = Bold;
shapes = (
{
closed = 1;
nodes = (
(140,0,l),
(376,0,l),
(376,335,l),
(516,335,ls),
(1044,335,o),
(1224,449,o),
(1224,780,cs),
(1224,1069,o),
(1052,1204,o),
(575,1204,cs),
(376,1204,l),
(376,1464,l),
(140,1464,l)
);
},
{
closed = 1;
nodes = (
(376,505,l),
(376,1033,l),
(552,1033,ls),
(868,1033,o),
(1001,986,o),
(1001,780,cs),
(1001,541,o),
(869,505,o),
(572,505,cs)
);
}
);
width = 1261;
}
);
unicode = 222;
userData = {
com.typemytype.robofont.layerData = {
};
};
},
{
glyphname = Hbar;
lastChange = "2013-12-31 02:57:01 +0000";
layers = (
{
layerId = "E322F6D1-BA90-436B-BB35-51D9BD3EA9D1";
name = Regular;
shapes = (
{
closed = 1;
nodes = (
(48,1144,l),
(1400,1144,l),
(1400,1230,l),
(48,1230,l)
);
},
{
ref = H;
}
);
width = 1457;
},
{
layerId = "5D328E58-2F78-4B3D-8E27-494E56F2C351";
name = Bold;
shapes = (
{
closed = 1;
nodes = (
(48,1144,l),
(1458,1144,l),
(1458,1254,l),
(48,1254,l)
);
},
{
ref = H;
}
);
width = 1457;
}
);
unicode = 294;
},
{
glyphname = Lslash;
lastChange = "2013-12-31 02:57:01 +0000";
layers = (
{
layerId = "E322F6D1-BA90-436B-BB35-51D9BD3EA9D1";
name = Regular;
shapes = (
{
closed = 1;
nodes = (
(-21,642,l),
(589,902,l),
(589,1024,l),
(-21,764,l)
);
},
{
ref = L;
}
);
width = 1055;
},
{
layerId = "5D328E58-2F78-4B3D-8E27-494E56F2C351";
name = Bold;
shapes = (
{
closed = 1;
nodes = (
(-31,582,l),
(642,842,l),
(642,1024,l),
(-31,764,l)
);
},
{
ref = L;
}
);
width = 1055;
}
);
unicode = 321;
userData = {
anchors = (
);
b = {
};
com.typemytype.robofont.layerData = {
};
components = (
);
contours = (
);
lib = {
};
name = Lslash;
unicodes = (
);
width = 1055;
};
},
{
glyphname = OE;
kernLeft = _O_left;
lastChange = "2013-12-31 02:57:01 +0000";
layers = (
{
layerId = "E322F6D1-BA90-436B-BB35-51D9BD3EA9D1";
name = Regular;
shapes = (
{
closed = 1;
nodes = (
(707,-25,cs),
(956,-25,o),
(1116,80,o),
(1164,260,c),
(1164,0,l),
(2121,0,l),
(2121,113,l),
(1310,113,l),
(1310,723,l),
(1996,723,l),
(1996,838,l),
(1310,838,l),
(1310,1352,l),
(2110,1352,l),
(2110,1464,l),
(1163,1464,l),
(1164,1228,l),
(1100,1397,o),
(956,1491,o),
(711,1491,cs),
(332,1491,o),
(112,1282,o),
(112,740,cs),
(112,186,o),
(324,-25,o)
);
},
{
closed = 1;
nodes = (
(708,93,cs),
(370,93,o),
(265,302,o),
(265,741,cs),
(265,1130,o),
(358,1371,o),
(710,1374,cs),
(1061,1377,o),
(1164,1235,o),
(1164,700,cs),
(1164,268,o),
(1043,93,o)
);
}
);
width = 2171;
},
{
layerId = "5D328E58-2F78-4B3D-8E27-494E56F2C351";
name = Bold;
shapes = (
{
closed = 1;
nodes = (
(720,-25,cs),
(979,-25,o),
(1094,57,o),
(1164,170,c),
(1164,0,l),
(2121,0,l),
(2121,166,l),
(1384,166,l),
(1384,694,l),
(2016,694,l),
(2016,862,l),
(1384,862,l),
(1384,1298,l),
(2110,1298,l),
(2110,1464,l),
(1163,1464,l),
(1163,1298,l),
(1083,1420,o),
(946,1491,o),
(721,1491,cs),
(342,1491,o),
(99,1282,o),
(99,740,cs),
(99,186,o),
(337,-25,o)
);
},
{
closed = 1;
nodes = (
(721,152,cs),
(425,160,o),
(329,336,o),
(329,741,cs),
(329,1130,o),
(432,1307,o),
(720,1315,cs),
(1062,1325,o),
(1164,1160,o),
(1164,740,cs),
(1164,283,o),
(1046,143,o)
);
}
);
width = 2171;
}
);
unicode = 338;
userData = {
anchors = (
);
b = {
};
com.typemytype.robofont.layerData = {
};
components = (
);
contours = {
};
lib = {
};
name = OE;
points = {
};
segmentType = curve;
unicodes = (
);
width = 2171;
x = 368;
y = 1374;
};
},
{
glyphname = a;
lastChange = "2013-12-31 02:57:01 +0000";
layers = (
{
anchors = (
{
name = ogonek;
pos = (812,0);
},
{
name = top;
pos = (520,1023);
}
);
layerId = "E322F6D1-BA90-436B-BB35-51D9BD3EA9D1";
name = Regular;
shapes = (
{
closed = 1;
nodes = (
(398,-25,cs),
(553,-25,o),
(668,30,o),
(743,133,c),
(756,0,l),
(878,0,l),
(878,673,ls),
(878,926,o),
(763,1044,o),
(522,1044,cs),
(360,1044,o),
(239,999,o),
(133,918,c),
(133,918,o),
(190,834,o),
(190,833,c),
(289,909,o),
(400,942,o),
(514,942,cs),
(686,942,o),
(736,879,o),
(736,647,cs),
(736,589,l),
(628,573,ls),
(290,526,o),
(103,485,o),
(103,229,cs),
(103,50,o),
(237,-25,o)
);
},
{
closed = 1;
nodes = (
(423,75,cs),
(293,75,o),
(235,124,o),
(235,243,cs),
(235,380,o),
(294,431,o),
(609,478,cs),
(736,498,l),
(736,230,l),
(649,123,o),
(544,75,o)
);
}
);
width = 1001;
},
{
anchors = (
{
name = top;
pos = (518,1023);
}
);
layerId = "5D328E58-2F78-4B3D-8E27-494E56F2C351";
name = Bold;
shapes = (
{
closed = 1;
nodes = (
(389,-24,cs),
(522,-24,o),
(632,25,o),
(700,120,c),
(718,0,l),
(900,0,l),
(900,680,ls),
(900,934,o),
(743,1047,o),
(499,1047,cs),
(323,1047,o),
(213,1003,o),
(99,921,c),
(99,921,o),
(182,796,o),
(182,795,c),
(269,853,o),
(349,896,o),
(491,896,cs),
(662,896,o),
(688,821,o),
(688,642,cs),
(688,601,l),
(569,582,ls),
(284,537,o),
(70,501,o),
(70,245,cs),
(70,68,o),
(207,-24,o)
);
},
{
closed = 1;
nodes = (
(417,125,cs),
(300,125,o),
(269,180,o),
(267,261,cs),
(264,373,o),
(323,399,o),
(555,443,cs),
(688,468,l),
(688,263,l),
(618,183,o),
(538,125,o)
);
}
);
width = 1004;
}
);
unicode = 97;
userData = {
anchors = (
);
b = {
};
com.typemytype.robofont.layerData = {
};
components = (
);
contours = {
};
lib = {
};
name = a;
points = {
};
segmentType = line;
unicodes = (
);
width = 999;
x = 736;
y = 500;
};
},
{
glyphname = b;
kernRight = _o_right;
lastChange = "2013-12-31 03:01:08 +0000";
layers = (
{
anchors = (
{
name = top;
pos = (594,1023);
}
);
layerId = "E322F6D1-BA90-436B-BB35-51D9BD3EA9D1";
name = Regular;
shapes = (
{
closed = 1;
nodes = (
(581,-24,cs),
(844,-24,o),
(991,190,o),
(991,502,cs),
(991,849,o),
(833,1044,o),
(588,1044,cs),
(448,1044,o),
(340,978,o),
(274,864,c),
(274,1473,l),
(132,1473,l),
(132,-1,l),
(242,-1,l),
(250,180,l),
(304,57,o),
(408,-24,o)
);
},
{
closed = 1;
nodes = (
(576,77,cs),
(355,77,o),
(269,205,o),
(269,520,cs),
(269,811,o),
(391,943,o),
(577,943,cs),
(750,943,o),
(847,792,o),
(847,514,cs),
(847,229,o),
(751,77,o)
);
}
);
width = 1091;
},
{
anchors = (
{
name = top;
pos = (662,1023);
}
);
layerId = "5D328E58-2F78-4B3D-8E27-494E56F2C351";
name = Bold;
shapes = (
{
closed = 1;
nodes = (
(620,-24,cs),
(903,-24,o),
(1063,169,o),
(1063,521,cs),
(1063,868,o),
(881,1047,o),
(619,1047,cs),
(493,1047,o),
(400,991,o),
(336,909,c),
(336,1474,l),
(124,1474,l),
(124,0,l),
(287,0,l),
(297,145,l),
(362,37,o),
(473,-24,o)
);
},
{
closed = 1;
nodes = (
(605,126,cs),
(373,126,o),
(329,275,o),
(329,522,cs),
(329,834,o),
(476,897,o),
(606,897,cs),
(771,897,o),
(846,761,o),
(846,518,cs),
(846,254,o),
(777,126,o)
);
}
);
width = 1155;
}
);
unicode = 98;
userData = {
anchors = (
);
b = {
};
com.typemytype.robofont.layerData = {
};
components = (
);
contours = {
};
lib = {
};
name = b;
points = {
};
segmentType = curve;
unicodes = (
);
width = 1079;
x = 436;
y = 940;
};
},
{
glyphname = c;
kernLeft = _o_left;
kernRight = o_right;
lastChange = "2013-12-31 03:01:12 +0000";
layers = (
{
anchors = (
{
name = bot;
pos = (535,-1);
},
{
name = top;
pos = (535,1023);
}
);
layerId = "E322F6D1-BA90-436B-BB35-51D9BD3EA9D1";
name = Regular;
shapes = (
{
closed = 1;
nodes = (
(536,-24,cs),
(702,-24,o),
(864,52,o),
(918,281,c),
(806,315,l),
(764,158,o),
(672,78,o),
(539,78,cs),
(331,78,o),
(245,255,o),
(245,512,cs),
(245,767,o),
(327,942,o),
(539,942,cs),
(669,942,o),
(760,865,o),
(802,704,c),
(919,733,l),
(863,975,o),
(689,1044,o),
(535,1044,cs),
(239,1044,o),
(100,817,o),
(100,509,cs),
(100,197,o),
(244,-24,o)
);
}
);
width = 986;
},
{
anchors = (
{
name = bot;
pos = (558,0);
},
{
name = top;
pos = (548,1023);
}
);
layerId = "5D328E58-2F78-4B3D-8E27-494E56F2C351";
name = Bold;
shapes = (
{
closed = 1;
nodes = (
(544,-24,cs),
(742,-24,o),
(904,47,o),
(960,297,c),
(792,348,l),
(755,192,o),
(679,127,o),
(552,127,cs),
(402,127,o),
(309,249,o),
(309,514,cs),
(309,769,o),
(399,896,o),
(552,896,cs),
(677,896,o),
(749,832,o),
(787,682,c),
(962,725,l),
(906,970,o),
(743,1047,o),
(545,1047,cs),
(249,1047,o),
(92,819,o),
(92,511,cs),
(92,203,o),
(248,-24,o)
);
}
);
width = 1022;
}
);
unicode = 99;
userData = {
com.typemytype.robofont.layerData = {
};
};
},
{
glyphname = d;
kernLeft = _o_left;
kernRight = o_right;
lastChange = "2013-12-31 03:00:48 +0000";
layers = (
{
anchors = (
{
name = caron.alt;
pos = (955,1023);
},
{
name = top;
pos = (502,1023);
}
);
layerId = "E322F6D1-BA90-436B-BB35-51D9BD3EA9D1";
name = Regular;
shapes = (
{
closed = 1;
nodes = (
(510,-24,cs),
(684,-24,o),
(785,61,o),
(839,183,c),
(847,0,l),
(957,0,l),
(957,1474,l),
(815,1474,l),
(815,874,l),
(750,982,o),
(646,1044,o),
(510,1044,cs),
(262,1044,o),
(100,856,o),
(100,502,cs),
(100,190,o),
(247,-24,o)
);
},
{
closed = 1;
nodes = (
(515,78,cs),
(340,87,o),
(244,229,o),
(244,514,cs),
(244,791,o),
(341,942,o),
(518,942,cs),
(704,942,o),
(822,811,o),
(822,520,cs),
(822,205,o),
(710,68,o)
);
}
);
width = 1085;
},
{
anchors = (
{
name = caron.alt;
pos = (939,1023);
}
);
layerId = "5D328E58-2F78-4B3D-8E27-494E56F2C351";
name = Bold;
shapes = (
{
closed = 1;
nodes = (
(538,-24,cs),
(682,-24,o),
(791,36,o),
(857,140,c),
(866,4,l),
(1029,4,l),
(1029,1478,l),
(817,1478,l),
(817,916,l),
(755,995,o),
(665,1047,o),
(542,1047,cs),
(280,1047,o),
(92,873,o),
(92,523,cs),
(92,171,o),
(255,-24,o)
);
},
{
closed = 1;
nodes = (
(553,126,cs),
(377,135,o),
(308,259,o),
(308,523,cs),
(308,769,o),
(383,890,o),
(549,897,cs),
(679,902,o),
(827,830,o),
(827,522,cs),
(827,291,o),
(768,115,o)
);
}
);
width = 1153;
}
);
unicode = 100;
userData = {
anchors = (
);
b = {
};
com.typemytype.robofont.layerData = {
};
components = (
);
contours = {
};
lib = {
};
name = b;
points = {
};
segmentType = curve;
unicodes = (
);
width = 1077;
x = 407;
y = 940;
};
},
{
glyphname = e;
kernLeft = _o_left;
kernRight = o_right;
lastChange = "2013-12-31 03:09:41 +0000";
layers = (
{
anchors = (
{
name = bot;
pos = (547,0);
},
{
name = ogonek;
pos = (635,0);
},
{
name = top;
pos = (535,1023);
}
);
layerId = "E322F6D1-BA90-436B-BB35-51D9BD3EA9D1";
name = Regular;
shapes = (
{
closed = 1;
nodes = (
(550,-24,cs),
(711,-23,o),
(876,68,o),
(923,246,c),
(816,270,l),
(781,160,o),
(687,78,o),
(547,78,cs),
(335,78,o),
(242,269,o),
(242,500,c),
(944,500,l),
(946,517,o),
(947,553,o),
(947,562,cs),
(947,834,o),
(825,1044,o),
(540,1044,cs),
(258,1044,o),
(100,824,o),
(100,512,cs),
(100,229,o),
(234,-24,o)
);
},
{
closed = 1;
nodes = (
(242,594,l),
(258,782,o),
(353,942,o),
(539,942,cs),
(735,942,o),
(811,809,o),
(814,594,c)
);
}
);
width = 1023;
},
{
anchors = (
{
name = bot;
pos = (557,0);
},
{
name = ogonek;
pos = (651,0);
},
{
name = top;
pos = (548,1023);
}
);
layerId = "5D328E58-2F78-4B3D-8E27-494E56F2C351";
name = Bold;
shapes = (
{
closed = 1;
nodes = (
(556,-24,cs),
(753,-24,o),
(900,94,o),
(947,272,c),
(788,307,l),
(753,212,o),
(691,127,o),
(553,127,cs),
(369,127,o),
(307,304,o),
(304,468,c),
(962,468,l),
(964,485,o),
(965,559,o),
(965,568,cs),
(965,841,o),
(832,1047,o),
(547,1047,cs),
(258,1047,o),
(92,843,o),
(92,512,cs),
(92,217,o),
(233,-24,o)
);
},
{
closed = 1;
nodes = (
(304,607,l),
(309,721,o),
(362,896,o),
(543,896,cs),
(705,896,o),
(766,796,o),
(766,607,c)
);
}
);
width = 1039;
}
);
unicode = 101;
userData = {
com.typemytype.robofont.layerData = {
};
};
},
{
glyphname = f;
lastChange = "2013-12-31 02:57:01 +0000";
layers = (
{
anchors = (
{
name = top;
pos = (310,1388);
}
);
layerId = "E322F6D1-BA90-436B-BB35-51D9BD3EA9D1";
name = Regular;
shapes = (
{
closed = 1;
nodes = (
(223,0,l),
(365,0,l),
(365,917,l),
(565,917,l),
(565,1023,l),
(365,1023,l),
(365,1146,ls),
(365,1305,o),
(377,1366,o),
(469,1366,cs),
(511,1366,o),
(546,1353,o),
(577,1338,c),
(614,1428,l),
(584,1449,o),
(523,1474,o),
(455,1474,cs),
(280,1474,o),
(223,1364,o),
(223,1142,cs),
(223,1023,l),
(50,1023,l),
(50,917,l),
(223,917,l)
);
}
);
width = 623;
},
{
anchors = (
{
name = bot;
pos = (327,0);
},
{
name = top;
pos = (387,1464);
}
);
layerId = "5D328E58-2F78-4B3D-8E27-494E56F2C351";
name = Bold;
shapes = (
{
closed = 1;
nodes = (
(196,0,l),
(408,0,l),
(408,868,l),
(624,868,l),
(624,1023,l),
(408,1023,l),
(407,1143,ls),
(406,1282,o),
(420,1312,o),
(506,1312,cs),
(538,1312,o),
(579,1300,o),
(612,1283,c),
(665,1424,l),
(621,1448,o),
(539,1474,o),
(481,1474,cs),
(301,1474,o),
(196,1417,o),
(196,1135,cs),
(196,1023,l),
(21,1023,l),
(21,868,l),
(196,868,l)
);
}
);
width = 640;
}
);
unicode = 102;
userData = {
anchors = (
);
b = {
};
com.typemytype.robofont.layerData = {
};
components = (
);
contours = {
};
lib = {
};
name = f;
points = {
};
segmentType = line;
unicodes = (
);
width = 623;
x = 492;
y = 1368;
};
},
{
glyphname = g;
kernLeft = _o_left;
lastChange = "2013-12-31 02:57:01 +0000";
layers = (
{
anchors = (
{
name = top;
pos = (529,1023);
}
);
layerId = "E322F6D1-BA90-436B-BB35-51D9BD3EA9D1";
name = Regular;
shapes = (
{
closed = 1;
nodes = (
(536,-429,cs),
(818,-426,o),
(967,-247,o),
(967,40,cs),
(967,1023,l),
(845,1023,l),
(832,844,l),
(768,970,o),
(657,1044,o),
(509,1044,cs),
(261,1044,o),
(84,857,o),
(84,503,cs),
(84,190,o),
(248,-24,o),
(512,-24,cs),
(668,-24,o),
(767,44,o),
(826,147,c),
(826,36,ls),
(826,-186,o),
(737,-322,o),
(535,-322,cs),
(388,-322,o),
(304,-276,o),
(233,-189,c),
(157,-268,l),
(223,-352,o),
(351,-431,o)
);
},
{
closed = 1;
nodes = (
(518,77,cs),
(342,77,o),
(227,228,o),
(228,514,cs),
(229,787,o),
(342,943,o),
(517,943,cs),
(704,943,o),
(826,816,o),
(826,520,cs),
(826,205,o),
(739,77,o)
);
}
);
width = 1097;
},
{
anchors = (
{
name = top;
pos = (548,1023);
}
);
layerId = "5D328E58-2F78-4B3D-8E27-494E56F2C351";
name = Bold;
shapes = (
{
closed = 1;
nodes = (
(564,-476,cs),
(848,-476,o),
(1043,-331,o),
(1043,24,cs),
(1043,1023,l),
(862,1023,l),
(842,885,l),
(779,980,o),
(680,1047,o),
(542,1047,cs),
(280,1047,o),
(88,864,o),
(88,521,cs),
(88,179,o),
(260,-24,o),
(543,-24,cs),
(667,-24,o),
(765,19,o),
(831,97,c),
(831,28,ls),
(831,-187,o),
(773,-314,o),
(567,-317,cs),
(410,-319,o),
(324,-257,o),
(262,-178,c),
(147,-296,l),
(225,-393,o),
(378,-476,o)
);
},
{
closed = 1;
nodes = (
(556,126,cs),
(385,126,o),
(304,257,o),
(303,520,cs),
(302,758,o),
(395,897,o),
(555,897,cs),
(691,897,o),
(832,847,o),
(832,482,cs),
(832,259,o),
(775,126,o)
);
}
);
width = 1157;
}
);
unicode = 103;
userData = {
anchors = (
);
b = {
};
com.typemytype.robofont.layerData = {
};
components = (
);
contours = {
};
lib = {
};
name = g;
points = {
};
segmentType = line;
unicodes = (
);
width = 1074;
x = 805;
y = "-429";
};
},
{
glyphname = h;
lastChange = "2013-12-31 03:05:23 +0000";
layers = (
{
anchors = (
{
name = top;
pos = (614,1188);
}
);
layerId = "E322F6D1-BA90-436B-BB35-51D9BD3EA9D1";
name = Regular;
shapes = (
{
closed = 1;
nodes = (
(128,0,l),
(271,0,l),
(271,538,ls),
(278,767,o),
(359,942,o),
(604,942,cs),
(781,942,o),
(824,812,o),
(824,603,cs),
(824,0,l),
(966,0,l),
(966,584,ls),
(966,790,o),
(947,1044,o),
(624,1044,cs),
(458,1044,o),
(339,975,o),
(270,849,c),
(270,1474,l),
(128,1474,l)
);
}
);
width = 1086;
},
{
anchors = (
{
name = bot;
pos = (587,0);
},
{
name = top;
pos = (705,1323);
}
);
layerId = "5D328E58-2F78-4B3D-8E27-494E56F2C351";
name = Bold;
shapes = (
{
closed = 1;
nodes = (
(124,0,l),
(337,0,l),
(337,537,l),
(345,724,o),
(409,896,o),
(611,896,cs),
(759,896,o),
(809,801,o),
(809,602,cs),
(809,0,l),
(1021,0,l),
(1021,595,ls),
(1021,801,o),
(980,1044,o),
(657,1044,cs),
(509,1044,o),
(406,989,o),
(337,891,c),
(337,1474,l),
(124,1474,l)
);
}
);
width = 1135;
}
);
unicode = 104;
userData = {
anchors = (
);
b = {
};
com.typemytype.robofont.guides = (
);
com.typemytype.robofont.layerData = {
};
components = (
);
contours = {
};
lib = {
};
name = h;
points = {
};
segmentType = line;
unicodes = (
);
width = 1086;
x = 783;
y = 940;
};
},
{
glyphname = i;
lastChange = "2013-12-31 02:57:01 +0000";
layers = (
{
anchors = (
{
name = _top;
pos = (220,1023);
},
{
name = ogonek;
pos = (221,0);
},
{
name = top;
pos = (220,1023);
}
);
layerId = "E322F6D1-BA90-436B-BB35-51D9BD3EA9D1";
name = Regular;
shapes = (
{
closed = 1;
nodes = (
(145,0,l),
(287,0,l),
(287,1023,l),
(145,1023,l)
);
},
{
closed = 1;
nodes = (
(145,1231,l),
(289,1231,l),
(289,1446,l),
(145,1446,l)
);
}
);
width = 424;
},
{
layerId = "5D328E58-2F78-4B3D-8E27-494E56F2C351";
name = Bold;
shapes = (
{
closed = 1;
nodes = (
(137,0,l),
(349,0,l),
(349,1023,l),
(137,1023,l)
);
},
{
closed = 1;
nodes = (
(133,1234,l),
(351,1234,l),
(351,1474,l),
(133,1474,l)
);
}
);
width = 470;
}
);
unicode = 105;
userData = {
com.typemytype.robofont.layerData = {
};
};
},
{
glyphname = j;
lastChange = "2013-12-31 03:07:05 +0000";
layers = (
{
anchors = (
{
name = _top;
pos = (286,1023);
},
{
name = top;
pos = (286,1023);
}
);
background = {
shapes = (
{
closed = 1;
nodes = (
(356,-225,o),
(356,21,cs),
(356,622,l),
(509,622,l),
(509,719,l),
(356,719,l),
(350,1046,l),
(214,1083,l),
(214,719,l),
(-10,719,l),
(-10,622,l),
(214,622,l),
(214,-37,ls),
(214,-166,o),
(169,-213,o),
(85,-214,cs),
(39,-215,o),
(-6,-202,o),
(-47,-184,c),
(-71,-275,l),
(-36,-297,o),
(33,-320,o),
(99,-320,cs),
(275,-320,o)
);
}
);
};
layerId = "E322F6D1-BA90-436B-BB35-51D9BD3EA9D1";
name = Regular;
shapes = (
{
closed = 1;
nodes = (
(109,-320,cs),
(291,-320,o),
(356,-195,o),
(356,10,cs),
(356,1023,l),
(214,1023,l),
(214,-51,ls),
(214,-142,o),
(182,-214,o),
(85,-214,cs),
(32,-214,o),
(-3,-202,o),
(-30,-190,c),
(-54,-284,l),
(-14,-306,o),
(38,-320,o)
);
},
{
closed = 1;
nodes = (
(211,1231,l),
(355,1231,l),
(355,1446,l),
(211,1446,l)
);
}
);
width = 482;
},
{
anchors = (
{
name = _top;
pos = (302,1023);
},
{
name = top;
pos = (302,1023);
}
);
layerId = "5D328E58-2F78-4B3D-8E27-494E56F2C351";
name = Bold;
shapes = (
{
closed = 1;
nodes = (
(134,-380,cs),
(323,-380,o),
(407,-304,o),
(407,-42,cs),
(407,1023,l),
(195,1023,l),
(195,-91,ls),
(195,-177,o),
(155,-207,o),
(100,-207,cs),
(64,-207,o),
(22,-195,o),
(-20,-176,c),
(-61,-334,l),
(-13,-362,o),
(63,-380,o)
);
},
{
closed = 1;
nodes = (
(187,1234,l),
(405,1234,l),
(405,1474,l),
(187,1474,l)
);
}
);
width = 513;
}
);
unicode = 106;
userData = {
anchors = (
);
b = {
};
com.typemytype.robofont.layerData = {
};
components = (
);
contours = (
);
lib = {
};
name = j;
unicodes = (
);
width = 482;
};
},
{
glyphname = k;
lastChange = "2013-12-31 02:57:01 +0000";
layers = (
{
anchors = (
{
name = bot;
pos = (512,0);
},
{
name = top;
pos = (614,1188);
}
);
layerId = "E322F6D1-BA90-436B-BB35-51D9BD3EA9D1";
name = Regular;
shapes = (
{
closed = 1;
nodes = (
(128,0,l),
(271,0,l),
(271,364,l),
(481,564,l),
(856,0,l),
(1016,0,l),
(573,652,l),
(963,1023,l),
(801,1023,l),
(271,516,l),
(270,1474,l),
(128,1474,l)
);
}
);
width = 1006;
},
{
anchors = (
{
name = bot;
pos = (587,0);
},
{
name = top;
pos = (695,1323);
}
);
layerId = "5D328E58-2F78-4B3D-8E27-494E56F2C351";
name = Bold;
shapes = (
{
closed = 1;
nodes = (
(124,0,l),
(337,0,l),
(337,334,l),
(510,501,l),
(834,0,l),
(1073,0,l),
(649,635,l),
(1053,1023,l),
(814,1023,l),
(337,559,l),
(337,1474,l),
(124,1474,l)
);
}
);
width = 1063;
}
);
unicode = 107;
userData = {
anchors = (
);
b = {
};
com.typemytype.robofont.layerData = {
};
components = (
);
contours = {
};
lib = {
};
name = k;
points = {
};
segmentType = line;
unicodes = (
);
width = 1005;
x = 268;
y = 511;
};
},
{
glyphname = l;
lastChange = "2013-12-31 02:57:01 +0000";
layers = (
{
anchors = (
{
name = bot;
pos = (212,0);
},
{
name = caron.alt;
pos = (274,1023);
},
{
name = top;
pos = (226,1474);
}
);
layerId = "E322F6D1-BA90-436B-BB35-51D9BD3EA9D1";
name = Regular;
shapes = (
{
closed = 1;
nodes = (
(133,0,l),
(275,0,l),
(275,1474,l),
(133,1474,l)
);
}
);
width = 418;
},
{
anchors = (
{
name = bot;
pos = (249,0);
},
{
name = caron.alt;
pos = (346,1023);
},
{
name = top;
pos = (308,1474);
}
);
layerId = "5D328E58-2F78-4B3D-8E27-494E56F2C351";
name = Bold;
shapes = (
{
closed = 1;
nodes = (
(139,0,l),
(351,0,l),
(351,1474,l),
(139,1474,l)
);
}
);
width = 485;
}
);
unicode = 108;
userData = {
com.typemytype.robofont.layerData = {
};
};
},
{
glyphname = m;
lastChange = "2013-12-31 03:05:13 +0000";
layers = (
{
anchors = (
{
name = top;
pos = (935,1023);
}
);
layerId = "E322F6D1-BA90-436B-BB35-51D9BD3EA9D1";
name = Regular;
shapes = (
{
closed = 1;
nodes = (
(128,0,l),
(270,0,l),
(269,532,l),
(276,764,o),
(360,943,o),
(603,943,cs),
(780,943,o),
(823,812,o),
(823,603,cs),
(823,0,l),
(965,0,l),
(965,494,ls),
(965,742,o),
(1043,943,o),
(1299,943,cs),
(1476,943,o),
(1519,812,o),
(1519,603,cs),
(1519,0,l),
(1661,0,l),
(1661,584,ls),
(1661,790,o),
(1642,1044,o),
(1319,1044,cs),
(1135,1044,o),
(1009,962,o),
(945,809,c),
(913,939,o),
(831,1044,o),
(623,1044,cs),
(457,1044,o),
(338,976,o),
(269,850,c),
(269,1023,l),
(128,1023,l)
);
}
);
width = 1781;
},
{
anchors = (
{
name = bot;
pos = (907,0);
}
);
layerId = "5D328E58-2F78-4B3D-8E27-494E56F2C351";
name = Bold;
shapes = (
{
closed = 1;
nodes = (
(124,0,l),
(336,0,l),
(336,491,ls),
(336,695,o),
(392,897,o),
(611,897,cs),
(759,897,o),
(809,801,o),
(809,602,cs),
(809,0,l),
(1021,0,l),
(1021,497,ls),
(1021,701,o),
(1073,897,o),
(1296,897,cs),
(1444,897,o),
(1494,801,o),
(1494,602,cs),
(1494,0,l),
(1706,0,l),
(1706,595,ls),
(1706,801,o),
(1665,1047,o),
(1342,1047,cs),
(1168,1047,o),
(1053,977,o),
(987,844,c),
(944,960,o),
(852,1047,o),
(657,1047,cs),
(508,1047,o),
(405,979,o),
(336,880,c),
(336,1023,l),
(124,1023,l)
);
}
);
width = 1820;
}
);
unicode = 109;
userData = {
anchors = (
);
b = {
};
com.typemytype.robofont.layerData = {
};
components = (
);
contours = {
};
lib = {
};
name = m;
points = {
};
segmentType = curve;
unicodes = (
);
width = 1782;
x = 269;
y = 757;
};
},
{
glyphname = n;
lastChange = "2013-12-31 03:05:08 +0000";
layers = (
{
anchors = (
{
name = bot;
pos = (542,0);
},
{
name = top;
pos = (591,1023);
}
);
layerId = "E322F6D1-BA90-436B-BB35-51D9BD3EA9D1";
name = Regular;
shapes = (
{
closed = 1;
nodes = (
(128,0,l),
(270,0,l),
(269,564,l),
(281,780,o),
(368,943,o),
(601,943,cs),
(778,943,o),
(823,816,o),
(823,605,cs),
(823,0,l),
(965,0,l),
(965,584,ls),
(965,787,o),
(944,1044,o),
(623,1044,cs),
(457,1044,o),
(338,980,o),
(269,852,c),
(269,1023,l),
(128,1023,l)
);
}
);
width = 1085;
},
{
anchors = (
{
name = bot;
pos = (577,0);
},
{
name = top;
pos = (621,1023);
}
);
layerId = "5D328E58-2F78-4B3D-8E27-494E56F2C351";
name = Bold;
shapes = (
{
closed = 1;
nodes = (
(124,0,l),
(336,0,l),
(336,491,ls),
(336,685,o),
(397,897,o),
(616,897,cs),
(764,897,o),
(809,796,o),
(809,597,cs),
(809,0,l),
(1021,0,l),
(1021,595,ls),
(1021,801,o),
(980,1047,o),
(657,1047,cs),
(509,1047,o),
(405,977,o),
(336,878,c),
(336,1023,l),
(124,1023,l)
);
}
);
width = 1135;
}
);
unicode = 110;
userData = {
anchors = (
);
b = {
};
com.typemytype.robofont.layerData = {
};
components = (
);
contours = {
};
lib = {
};
name = n;
points = {
};
segmentType = curve;
unicodes = (
);
width = 1086;
x = 265;
y = 830;
};
},
{
glyphname = o;
kernLeft = _o_left;
kernRight = _o_right;
lastChange = "2013-12-31 03:00:55 +0000";
layers = (
{
anchors = (
{
name = ogonek;
pos = (631,0);
},
{
name = top;
pos = (535,1023);
}
);
layerId = "E322F6D1-BA90-436B-BB35-51D9BD3EA9D1";
name = Regular;
shapes = (
{
closed = 1;
nodes = (
(540,77,cs),
(306,77,o),
(245,299,o),
(245,510,cs),
(245,721,o),
(306,943,o),
(540,943,cs),
(774,943,o),
(835,721,o),
(835,510,cs),
(835,299,o),
(774,77,o)
);
},
{
closed = 1;
nodes = (
(540,-24,cs),
(805,-24,o),
(980,160,o),
(980,510,cs),
(980,860,o),
(805,1044,o),
(540,1044,cs),
(275,1044,o),
(100,860,o),
(100,510,cs),
(100,160,o),
(275,-24,o)
);
}
);
width = 1080;
},
{
anchors = (
{
name = top;
pos = (557,1023);
}
);
layerId = "5D328E58-2F78-4B3D-8E27-494E56F2C351";
name = Bold;
shapes = (
{
closed = 1;
nodes = (
(556,126,cs),
(350,126,o),
(309,322,o),
(309,512,cs),
(309,702,o),
(350,897,o),
(556,897,cs),
(762,897,o),
(803,702,o),
(803,512,cs),
(803,322,o),
(762,126,o)
);
},
{
closed = 1;
nodes = (
(556,-24,cs),
(842,-24,o),
(1020,158,o),
(1020,512,cs),
(1020,866,o),
(842,1047,o),
(556,1047,cs),
(270,1047,o),
(92,866,o),
(92,512,cs),
(92,158,o),
(270,-24,o)
);
}
);
width = 1112;
}
);
unicode = 111;
userData = {
com.typemytype.robofont.guides = (
);
com.typemytype.robofont.layerData = {
};
};
},
{
glyphname = p;
kernRight = _o_right;
lastChange = "2013-12-31 03:01:32 +0000";
layers = (
{
layerId = "E322F6D1-BA90-436B-BB35-51D9BD3EA9D1";
name = Regular;
shapes = (
{
closed = 1;
nodes = (
(128,-350,l),
(270,-350,l),
(270,141,l),
(328,40,o),
(427,-24,o),
(581,-24,cs),
(844,-24,o),
(991,190,o),
(991,502,cs),
(991,856,o),
(829,1044,o),
(581,1044,cs),
(436,1044,o),
(328,973,o),
(265,850,c),
(250,1023,l),
(128,1023,l)
);
},
{
closed = 1;
nodes = (
(576,77,cs),
(358,77,o),
(269,187,o),
(269,542,cs),
(275,818,o),
(392,943,o),
(573,943,cs),
(750,943,o),
(847,791,o),
(847,514,cs),
(847,229,o),
(751,77,o)
);
}
);
width = 1091;
},
{
anchors = (
{
name = top;
pos = (628,1023);
}
);
layerId = "5D328E58-2F78-4B3D-8E27-494E56F2C351";
name = Bold;
shapes = (
{
closed = 1;
nodes = (
(124,-370,l),
(336,-370,l),
(336,99,l),
(403,20,o),
(502,-24,o),
(627,-24,cs),
(910,-24,o),
(1070,169,o),
(1070,521,cs),
(1070,868,o),
(888,1047,o),
(626,1047,cs),
(487,1047,o),
(387,978,o),
(324,882,c),
(310,1023,l),
(124,1023,l)
);
},
{
closed = 1;
nodes = (
(612,126,cs),
(380,126,o),
(336,275,o),
(336,522,cs),
(336,834,o),
(483,897,o),
(613,897,cs),
(778,897,o),
(853,761,o),
(853,518,cs),
(853,254,o),
(784,126,o)
);
}
);
width = 1162;
}
);
unicode = 112;
userData = {
anchors = (
);
b = {
};
com.typemytype.robofont.layerData = {
};
components = (
);
contours = (
);
lib = {
};
name = p;
unicodes = (
);
width = 1082;
};
},
{
glyphname = q;
kernLeft = _o_left;
lastChange = "2013-12-31 03:01:28 +0000";
layers = (
{
layerId = "E322F6D1-BA90-436B-BB35-51D9BD3EA9D1";
name = Regular;
shapes = (
{
closed = 1;
nodes = (
(821,-350,l),
(963,-350,l),
(963,1023,l),
(841,1023,l),
(826,850,l),
(763,973,o),
(655,1044,o),
(510,1044,cs),
(262,1044,o),
(100,856,o),
(100,502,cs),
(100,190,o),
(247,-24,o),
(510,-24,cs),
(664,-24,o),
(763,40,o),
(821,141,c)
);
},
{
closed = 1;
nodes = (
(515,77,cs),
(340,77,o),
(244,229,o),
(244,514,cs),
(244,791,o),
(341,943,o),
(518,943,cs),
(707,943,o),
(822,826,o),
(822,490,cs),
(822,197,o),
(729,77,o)
);
}
);
width = 1090;
},
{
layerId = "5D328E58-2F78-4B3D-8E27-494E56F2C351";
name = Bold;
shapes = (
{
closed = 1;
nodes = (
(826,-350,l),
(1038,-350,l),
(1038,1023,l),
(852,1023,l),
(838,882,l),
(775,978,o),
(675,1047,o),
(536,1047,cs),
(274,1047,o),
(92,868,o),
(92,521,cs),
(92,169,o),
(252,-24,o),
(535,-24,cs),
(660,-24,o),
(759,20,o),
(826,99,c)
);
},
{
closed = 1;
nodes = (
(550,126,cs),
(378,126,o),
(309,254,o),
(309,518,cs),
(309,761,o),
(384,897,o),
(549,897,cs),
(679,897,o),
(826,834,o),
(826,522,cs),
(826,275,o),
(782,126,o)
);
}
);
width = 1159;
}
);
unicode = 113;
userData = {
anchors = (
);
b = {
};
com.typemytype.robofont.layerData = {
};
components = (
);
contours = (
);
lib = {
};
name = p;
unicodes = (
);
width = 1082;
};
},
{
glyphname = r;
lastChange = "2013-12-31 02:57:01 +0000";
layers = (
{
anchors = (
{
name = bot;
pos = (212,0);
},
{
name = top;
pos = (365,1023);
}
);
layerId = "E322F6D1-BA90-436B-BB35-51D9BD3EA9D1";
name = Regular;
shapes = (
{
closed = 1;
nodes = (
(128,0,l),
(270,0,l),
(269,556,l),
(276,733,o),
(359,903,o),
(578,903,c),
(578,1029,l),
(442,1029,o),
(336,967,o),
(269,832,c),
(269,1023,l),
(128,1023,l)
);
}
);
width = 634;
},
{
anchors = (
{
name = bot;
pos = (257,0);
},
{
name = top;
pos = (442,1023);
}
);
layerId = "5D328E58-2F78-4B3D-8E27-494E56F2C351";
name = Bold;
shapes = (
{
closed = 1;
nodes = (
(122,0,l),
(334,0,l),
(334,502,ls),
(334,687,o),
(417,847,o),
(636,847,c),
(636,1035,l),
(506,1035,o),
(406,984,o),
(334,865,c),
(334,1023,l),
(122,1023,l)
);
}
);
width = 676;
}
);
unicode = 114;
userData = {
anchors = (
);
b = {
};
com.typemytype.robofont.layerData = {
};
components = (
);
contours = {
};
lib = {
};
name = r;
points = {
};
segmentType = line;
unicodes = (
);
width = 626;
x = 127;
y = 1023;
};
},
{
glyphname = s;
lastChange = "2013-12-31 02:57:01 +0000";
layers = (
{
anchors = (
{
name = bot;
pos = (462,0);
},
{
name = top;
pos = (471,1023);
}
);
layerId = "E322F6D1-BA90-436B-BB35-51D9BD3EA9D1";
name = Regular;
shapes = (
{
closed = 1;
nodes = (
(445,-24,cs),
(720,-24,o),
(841,83,o),
(841,283,cs),
(841,472,o),
(741,528,o),
(497,577,cs),
(287,619,o),
(239,639,o),
(239,761,cs),
(239,881,o),
(307,943,o),
(483,943,cs),
(618,943,o),
(692,897,o),
(738,790,c),
(738,791,o),
(829,841,o),
(829,841,c),
(759,992,o),
(652,1044,o),
(475,1044,cs),
(256,1044,o),
(105,944,o),
(105,761,cs),
(105,560,o),
(210,520,o),
(405,477,cs),
(672,418,o),
(717,416,o),
(717,263,cs),
(717,122,o),
(603,77,o),
(458,77,cs),
(295,77,o),
(224,138,o),
(177,269,c),
(72,227,l),
(124,36,o),
(291,-24,o)
);
}
);
width = 913;
},
{
anchors = (
{
name = bot;
pos = (477,0);
},
{
name = top;
pos = (490,1023);
}
);
layerId = "5D328E58-2F78-4B3D-8E27-494E56F2C351";
name = Bold;
shapes = (
{
closed = 1;
nodes = (
(463,-24,cs),
(754,-24,o),
(866,86,o),
(866,286,cs),
(866,484,o),
(768,548,o),
(502,608,cs),
(338,645,o),
(287,661,o),
(290,761,cs),
(293,858,o),
(332,897,o),
(490,897,cs),
(616,897,o),
(669,870,o),
(723,774,c),
(723,775,o),
(853,849,o),
(853,849,c),
(780,996,o),
(666,1047,o),
(484,1047,cs),
(249,1047,o),
(92,946,o),
(92,761,cs),
(92,557,o),
(186,504,o),
(412,452,cs),
(658,395,o),
(685,391,o),
(683,260,cs),
(681,155,o),
(605,126,o),
(478,126,cs),
(315,126,o),
(268,160,o),
(218,288,c),
(63,224,l),
(115,33,o),
(280,-24,o)
);
}
);
width = 931;
}
);
unicode = 115;
userData = {
anchors = (
);
b = {
};
com.typemytype.robofont.layerData = {
};
components = (
);
contours = {
};
lib = {
};
name = s;
points = {
};
segmentType = curve;
unicodes = (
);
width = 913;
x = 765;
y = 993;
};
},
{
glyphname = t;
lastChange = "2013-12-31 02:57:01 +0000";
layers = (
{
anchors = (
{
name = bot;
pos = (387,0);
},
{
name = caron.alt;
pos = (284,1023);
},
{
name = top;
pos = (273,1263);
}
);
layerId = "E322F6D1-BA90-436B-BB35-51D9BD3EA9D1";
name = Regular;
shapes = (
{
closed = 1;
nodes = (
(455,-16,cs),
(521,-16,o),
(590,7,o),
(625,29,c),
(601,120,l),
(560,102,o),
(515,89,o),
(469,90,cs),
(385,91,o),
(340,138,o),
(340,267,cs),
(340,926,l),
(564,926,l),
(564,1023,l),
(340,1023,l),
(340,1387,l),
(204,1350,l),
(198,1023,l),
(45,1023,l),
(45,926,l),
(198,926,l),
(198,325,ls),
(198,79,o),
(279,-16,o)
);
}
);
width = 656;
},
{
anchors = (
{
name = bot;
pos = (397,0);
},
{
name = caron.alt;
pos = (346,1023);
},
{
name = top;
pos = (299,1283);
}
);
layerId = "5D328E58-2F78-4B3D-8E27-494E56F2C351";
name = Bold;
shapes = (
{
closed = 1;
nodes = (
(484,-16,cs),
(549,-16,o),
(619,1,o),
(684,32,c),
(650,173,l),
(602,153,o),
(554,141,o),
(519,141,cs),
(445,141,o),
(392,183,o),
(392,311,cs),
(392,879,l),
(617,879,l),
(617,1023,l),
(392,1023,l),
(392,1394,l),
(189,1340,l),
(181,1023,l),
(37,1023,l),
(37,879,l),
(180,879,l),
(180,298,ls),
(180,61,o),
(323,-16,o)
);
}
);
width = 693;
}
);
unicode = 116;
userData = {
com.typemytype.robofont.layerData = {
};
};
},
{
glyphname = u;
lastChange = "2013-12-31 02:57:01 +0000";
layers = (
{
anchors = (
{
name = ogonek;
pos = (898,0);
},
{
name = top;
pos = (540,1023);
}
);
layerId = "E322F6D1-BA90-436B-BB35-51D9BD3EA9D1";
name = Regular;
shapes = (
{
closed = 1;
nodes = (
(477,-24,cs),
(644,-24,o),
(756,44,o),
(821,171,c),
(821,0,l),
(963,0,l),
(962,1023,l),
(821,1023,l),
(820,517,ls),
(820,274,o),
(741,77,o),
(506,77,cs),
(310,77,o),
(266,202,o),
(266,427,cs),
(266,1023,l),
(124,1023,l),
(124,462,ls),
(124,253,o),
(137,-24,o)
);
}
);
width = 1091;
},
{
anchors = (
{
name = top;
pos = (570,1023);
}
);
layerId = "5D328E58-2F78-4B3D-8E27-494E56F2C351";
name = Bold;
shapes = (
{
closed = 1;
nodes = (
(478,-24,cs),
(626,-24,o),
(729,31,o),
(799,129,c),
(799,0,l),
(1011,0,l),
(1011,1023,l),
(799,1023,l),
(799,532,ls),
(799,328,o),
(738,126,o),
(519,126,cs),
(374,126,o),
(326,222,o),
(326,421,cs),
(326,1023,l),
(114,1023,l),
(114,428,ls),
(114,220,o),
(155,-24,o)
);
}
);
width = 1135;
}
);
unicode = 117;
userData = {
anchors = (
);
b = {
};
baseGlyph = lc_main_stem;
com.typemytype.robofont.layerData = {
};
components = {
};
contours = {
};
lib = {
};
name = u;
points = {
};
segmentType = curve;
transformation = (
"-0.9999999999999996",
"-1.665334536937734e-16",
"1.665334536937734e-16",
"-0.9999999999999996",
1086,
1024
);
unicodes = (
);
width = 1086;
x = 263;
y = 421;
};
},
{
glyphname = v;
lastChange = "2013-12-31 02:57:01 +0000";
layers = (
{
layerId = "E322F6D1-BA90-436B-BB35-51D9BD3EA9D1";
name = Regular;
shapes = (
{
closed = 1;
nodes = (
(406,0,l),
(532,0,l),
(926,1023,l),
(788,1023,l),
(476,174,l),
(167,1023,l),
(23,1023,l)
);
}
);
width = 952;
},
{
layerId = "5D328E58-2F78-4B3D-8E27-494E56F2C351";
name = Bold;
shapes = (
{
closed = 1;
nodes = (
(381,0,l),
(559,0,l),
(947,1023,l),
(744,1023,l),
(482,271,l),
(225,1023,l),
(12,1023,l)
);
}
);
width = 959;
}
);
unicode = 118;
userData = {
com.typemytype.robofont.layerData = {
};
};
},
{
glyphname = w;
lastChange = "2013-12-31 02:57:01 +0000";
layers = (
{
anchors = (
{
name = top;
pos = (755,1023);
}
);
layerId = "E322F6D1-BA90-436B-BB35-51D9BD3EA9D1";
name = Regular;
shapes = (
{
closed = 1;
nodes = (
(350,0,l),
(475,0,l),
(742,792,l),
(991,0,l),
(1117,0,l),
(1461,1023,l),
(1323,1023,l),
(1061,177,l),
(791,1023,l),
(705,1023,l),
(419,177,l),
(173,1023,l),
(27,1023,l)
);
}
);
width = 1487;
},
{
anchors = (
{
name = top;
pos = (752,1023);
}
);
layerId = "5D328E58-2F78-4B3D-8E27-494E56F2C351";
name = Bold;
shapes = (
{
closed = 1;
nodes = (
(335,0,l),
(514,0,l),
(746,657,l),
(967,0,l),
(1145,0,l),
(1503,1023,l),
(1294,1023,l),
(1067,271,l),
(811,1023,l),
(699,1023,l),
(436,271,l),
(214,1023,l),
(-7,1023,l)
);
}
);
width = 1499;
}
);
unicode = 119;
userData = {
com.typemytype.robofont.layerData = {
};
};
},
{
glyphname = x;
lastChange = "2013-12-31 02:57:01 +0000";
layers = (
{
layerId = "E322F6D1-BA90-436B-BB35-51D9BD3EA9D1";
name = Regular;
shapes = (
{
closed = 1;
nodes = (
(31,0,l),
(184,0,l),
(479,414,l),
(782,0,l),
(938,0,l),
(559,517,l),
(926,1023,l),
(773,1023,l),
(486,616,l),
(188,1023,l),
(32,1023,l),
(405,515,l)
);
}
);
width = 966;
},
{
layerId = "5D328E58-2F78-4B3D-8E27-494E56F2C351";
name = Bold;
shapes = (
{
closed = 1;
nodes = (
(5,0,l),
(229,0,l),
(486,359,l),
(749,0,l),
(982,0,l),
(609,509,l),
(980,1023,l),
(756,1023,l),
(501,656,l),
(232,1023,l),
(-1,1023,l),
(376,508,l)
);
}
);
width = 979;
}
);
unicode = 120;
userData = {
anchors = (
);
b = {
};
com.typemytype.robofont.layerData = {
};
components = (
);
contours = (
);
lib = {
};
name = x;
unicodes = (
);
width = 966;
};
},
{
glyphname = y;
lastChange = "2013-12-31 03:04:50 +0000";
layers = (
{
anchors = (
{
name = top;
pos = (492,1023);
}
);
layerId = "E322F6D1-BA90-436B-BB35-51D9BD3EA9D1";
name = Regular;
shapes = (
{
closed = 1;
nodes = (
(180,-320,cs),
(396,-329,o),
(466,-191,o),
(575,97,cs),
(926,1023,l),
(786,1023,l),
(489,211,l),
(191,1023,l),
(45,1023,l),
(417,64,l),
(397,4,ls),
(344,-155,o),
(293,-199,o),
(178,-199,cs),
(152,-199,o),
(124,-196,o),
(91,-191,c),
(75,-306,l),
(112,-316,o),
(147,-319,o)
);
}
);
width = 974;
},
{
anchors = (
{
name = top;
pos = (515,1023);
}
);
layerId = "5D328E58-2F78-4B3D-8E27-494E56F2C351";
name = Bold;
shapes = (
{
closed = 1;
nodes = (
(176,-317,cs),
(394,-317,o),
(497,-199,o),
(604,68,cs),
(988,1023,l),
(778,1023,l),
(518,353,l),
(254,1023,l),
(36,1023,l),
(409,135,l),
(396,94,ls),
(335,-98,o),
(268,-135,o),
(153,-135,cs),
(135,-135,o),
(114,-132,o),
(92,-129,c),
(67,-302,l),
(104,-312,o),
(143,-317,o)
);
}
);
width = 1002;
}
);
unicode = 121;
userData = {
anchors = (
);
b = {
};
com.typemytype.robofont.layerData = {
};
components = (
);
contours = (
);
lib = {
};
name = y;
unicodes = (
);
width = 971;
};
},
{
glyphname = z;
lastChange = "2013-12-31 02:57:01 +0000";
layers = (
{
anchors = (
{
name = top;
pos = (453,1023);
}
);
layerId = "E322F6D1-BA90-436B-BB35-51D9BD3EA9D1";
name = Regular;
shapes = (
{
closed = 1;
nodes = (
(66,0,l),
(820,0,l),
(820,103,l),
(227,103,l),
(822,928,l),
(822,1023,l),
(86,1023,l),
(86,919,l),
(653,919,l),
(66,94,l)
);
}
);
width = 879;
},
{
anchors = (
{
name = bot;
pos = (475,0);
},
{
name = top;
pos = (485,1023);
}
);
layerId = "5D328E58-2F78-4B3D-8E27-494E56F2C351";
name = Bold;
shapes = (
{
closed = 1;
nodes = (
(62,0,l),
(834,0,l),
(834,152,l),
(299,152,l),
(836,878,l),
(836,1023,l),
(86,1023,l),
(86,870,l),
(587,870,l),
(62,144,l)
);
}
);
width = 878;
}
);
unicode = 122;
userData = {
com.typemytype.robofont.layerData = {
};
};
},
{
glyphname = ordfeminine;
lastChange = "2013-12-31 02:57:01 +0000";
layers = (
{
layerId = "E322F6D1-BA90-436B-BB35-51D9BD3EA9D1";
name = Regular;
shapes = (
{
closed = 1;
nodes = (
(398,583,cs),
(527,583,o),
(605,630,o),
(676,693,c),
(690,603,l),
(797,603,l),
(797,1147,ls),
(797,1365,o),
(689,1474,o),
(495,1474,cs),
(398,1474,o),
(260,1422,o),
(185,1340,c),
(185,1340,o),
(263,1270,o),
(263,1269,c),
(320,1325,o),
(410,1373,o),
(497,1373,cs),
(592,1373,o),
(674,1321,o),
(674,1176,cs),
(674,1110,l),
(577,1098,ls),
(336,1068,o),
(157,1018,o),
(157,804,cs),
(157,656,o),
(272,583,o)
);
},
{
closed = 1;
nodes = (
(394,664,cs),
(295,677,o),
(265,745,o),
(271,830,cs),
(278,934,o),
(359,982,o),
(572,1009,cs),
(674,1022,l),
(674,771,l),
(599,704,o),
(475,653,o)
);
}
);
width = 946;
},
{
layerId = "5D328E58-2F78-4B3D-8E27-494E56F2C351";
name = Bold;
shapes = (
{
closed = 1;
nodes = (
(416,583,cs),
(523,588,o),
(596,644,o),
(640,700,c),
(659,603,l),
(819,603,l),
(819,1140,ls),
(819,1358,o),
(695,1474,o),
(495,1474,cs),
(398,1474,o),
(260,1422,o),
(185,1340,c),
(185,1340,o),
(300,1234,o),
(300,1233,c),
(357,1289,o),
(423,1325,o),
(497,1325,cs),
(590,1325,o),
(635,1266,o),
(635,1161,cs),
(635,1111,l),
(548,1105,ls),
(321,1089,o),
(145,1018,o),
(145,804,cs),
(145,656,o),
(277,577,o)
);
},
{
closed = 1;
nodes = (
(418,700,cs),
(341,707,o),
(304,755,o),
(314,832,cs),
(325,914,o),
(365,961,o),
(549,976,cs),
(635,983,l),
(635,814,l),
(591,760,o),
(500,693,o)
);
}
);
width = 946;
}
);
unicode = 170;
userData = {
com.typemytype.robofont.layerData = {
};
};
},
{
glyphname = ordmasculine;
lastChange = "2013-12-31 02:57:01 +0000";
layers = (
{
layerId = "E322F6D1-BA90-436B-BB35-51D9BD3EA9D1";
name = Regular;
shapes = (
{
closed = 1;
nodes = (
(517,682,cs),
(341,682,o),
(270,855,o),
(270,1031,cs),
(270,1204,o),
(341,1376,o),
(516,1376,cs),
(690,1376,o),
(763,1204,o),
(763,1029,cs),
(763,854,o),
(690,682,o)
);
},
{
closed = 1;
nodes = (
(516,583,cs),
(737,583,o),
(893,738,o),
(893,1031,cs),
(893,1331,o),
(726,1474,o),
(517,1474,cs),
(305,1474,o),
(139,1330,o),
(139,1028,cs),
(139,737,o),
(295,583,o)
);
}
);
width = 1000;
},
{
layerId = "5D328E58-2F78-4B3D-8E27-494E56F2C351";
name = Bold;
shapes = (
{
closed = 1;
nodes = (
(517,730,cs),
(381,730,o),
(317,845,o),
(317,1031,cs),
(317,1214,o),
(381,1330,o),
(516,1330,cs),
(650,1330,o),
(716,1214,o),
(716,1029,cs),
(716,844,o),
(650,730,o)
);
},
{
closed = 1;
nodes = (
(516,583,cs),
(757,583,o),
(913,728,o),
(913,1031,cs),
(913,1341,o),
(746,1474,o),
(517,1474,cs),
(285,1474,o),
(119,1340,o),
(119,1028,cs),
(119,727,o),
(275,583,o)
);
}
);
width = 1000;
}
);
unicode = 186;
userData = {
anchors = (
);
b = {
};
com.typemytype.robofont.layerData = {
};
components = (
);
contours = (
);
lib = {
};
name = ordmasculine;
unicodes = (
);
width = 1000;
};
},
{
glyphname = germandbls;
lastChange = "2013-12-31 02:57:01 +0000";
layers = (
{
layerId = "E322F6D1-BA90-436B-BB35-51D9BD3EA9D1";
name = Regular;
shapes = (
{
closed = 1;
nodes = (
(130,0,l),
(276,0,l),
(276,1140,ls),
(276,1303,o),
(420,1388,o),
(565,1388,cs),
(721,1388,o),
(804,1322,o),
(804,1209,cs),
(804,996,o),
(445,1001,o),
(441,816,cs),
(436,586,o),
(984,572,o),
(975,334,cs),
(970,206,o),
(895,117,o),
(441,117,c),
(441,0,l),
(481,0,ls),
(1022,0,o),
(1121,111,o),
(1121,336,cs),
(1121,654,o),
(580,685,o),
(585,823,cs),
(587,890,o),
(940,949,o),
(940,1203,cs),
(940,1360,o),
(829,1492,o),
(568,1492,cs),
(350,1492,o),
(130,1373,o),
(130,1151,cs)
);
}
);
width = 1199;
},
{
layerId = "5D328E58-2F78-4B3D-8E27-494E56F2C351";
name = Bold;
shapes = (
{
closed = 1;
nodes = (
(103,0,l),
(324,0,l),
(324,1135,ls),
(324,1258,o),
(420,1339,o),
(565,1337,cs),
(708,1335,o),
(756,1282,o),
(756,1209,cs),
(756,996,o),
(431,1041,o),
(431,816,cs),
(431,569,o),
(907,551,o),
(903,335,cs),
(900,199,o),
(736,176,o),
(441,176,c),
(441,0,l),
(481,0,ls),
(1043,0,o),
(1122,117,o),
(1125,336,cs),
(1129,654,o),
(649,725,o),
(649,823,cs),
(649,880,o),
(964,926,o),
(960,1203,cs),
(958,1370,o),
(833,1487,o),
(568,1492,cs),
(330,1496,o),
(103,1373,o),
(103,1151,cs)
);
}
);
width = 1199;
}
);
unicode = 223;
userData = {
anchors = (
);
b = {
};
com.typemytype.robofont.layerData = {
};
components = (
);
contours = (
);
lib = {
};
name = germandbls;
unicodes = (
);
width = 1199;
};
},
{
glyphname = ae;
lastChange = "2013-12-31 03:21:21 +0000";
layers = (
{
anchors = (
{
name = top;
pos = (884,1023);
}
);
background = {
shapes = (
{
closed = 1;
nodes = (
(421,-25,cs),
(576,-25,o),
(691,30,o),
(766,133,c),
(779,0,l),
(901,0,l),
(901,673,ls),
(901,926,o),
(786,1044,o),
(545,1044,cs),
(383,1044,o),
(262,999,o),
(156,918,c),
(156,918,o),
(213,834,o),
(213,833,c),
(312,909,o),
(423,942,o),
(537,942,cs),
(709,942,o),
(759,879,o),
(759,647,cs),
(759,589,l),
(651,573,ls),
(313,526,o),
(126,485,o),
(126,229,cs),
(126,50,o),
(260,-25,o)
);
},
{
closed = 1;
nodes = (
(446,75,cs),
(316,75,o),
(258,124,o),
(258,243,cs),
(258,380,o),
(317,431,o),
(632,478,cs),
(759,498,l),
(759,230,l),
(672,123,o),
(567,75,o)
);
}
);
};
layerId = "E322F6D1-BA90-436B-BB35-51D9BD3EA9D1";
name = Regular;
shapes = (
{
closed = 1;
nodes = (
(429,-24,cs),
(635,-24,o),
(777,50,o),
(831,220,c),
(886,46,o),
(1053,-24,o),
(1195,-24,cs),
(1379,-23,o),
(1515,83,o),
(1570,234,c),
(1474,276,l),
(1444,204,o),
(1374,78,o),
(1198,78,cs),
(989,78,o),
(906,250,o),
(900,494,c),
(1584,506,l),
(1586,523,o),
(1587,563,o),
(1587,572,cs),
(1587,844,o),
(1478,1044,o),
(1193,1044,cs),
(1047,1044,o),
(912,969,o),
(848,814,c),
(804,977,o),
(695,1044,o),
(518,1044,cs),
(366,1044,o),
(270,1006,o),
(156,927,c),
(210,840,l),
(297,896,o),
(370,948,o),
(530,942,cs),
(723,934,o),
(757,841,o),
(760,584,c),
(596,568,ls),
(310,540,o),
(96,503,o),
(107,251,cs),
(115,58,o),
(264,-24,o)
);
},
{
closed = 1;
nodes = (
(440,78,cs),
(336,78,o),
(256,134,o),
(249,256,cs),
(238,436,o),
(384,447,o),
(603,469,cs),
(760,485,l),
(760,414,ls),
(760,154,o),
(642,78,o)
);
},
{
closed = 1;
nodes = (
(901,590,l),
(909,802,o),
(1020,942,o),
(1196,942,cs),
(1375,942,o),
(1454,832,o),
(1464,600,c)
);
}
);
width = 1667;
},
{
anchors = (
{
name = top;
pos = (839,1023);
}
);
background = {
anchors = (
{
name = top;
pos = (475,1023);
}
);
shapes = (
{
closed = 1;
nodes = (
(379,-24,cs),
(512,-24,o),
(622,25,o),
(690,120,c),
(708,0,l),
(890,0,l),
(890,680,ls),
(890,934,o),
(733,1047,o),
(489,1047,cs),
(313,1047,o),
(203,1003,o),
(89,921,c),
(89,921,o),
(172,796,o),
(172,795,c),
(259,853,o),
(339,896,o),
(481,896,cs),
(652,896,o),
(678,821,o),
(678,642,cs),
(678,601,l),
(559,582,ls),
(274,537,o),
(60,501,o),
(60,245,cs),
(60,68,o),
(197,-24,o)
);
},
{
closed = 1;
nodes = (
(407,125,cs),
(290,125,o),
(259,180,o),
(257,261,cs),
(254,373,o),
(313,399,o),
(545,443,cs),
(678,468,l),
(678,263,l),
(608,183,o),
(528,125,o)
);
},
{
pos = (589,0);
ref = e;
}
);
};
layerId = "5D328E58-2F78-4B3D-8E27-494E56F2C351";
name = Bold;
shapes = (
{
closed = 1;
nodes = (
(386,-25,cs),
(555,-25,o),
(736,54,o),
(805,233,c),
(850,78,o),
(1008,-27,o),
(1164,-25,cs),
(1378,-22,o),
(1498,123,o),
(1537,271,c),
(1394,304,l),
(1370,231,o),
(1313,126,o),
(1170,126,cs),
(1025,126,o),
(919,244,o),
(912,472,c),
(1551,472,l),
(1553,489,o),
(1554,563,o),
(1554,572,cs),
(1554,824,o),
(1433,1044,o),
(1148,1044,cs),
(1019,1044,o),
(879,980,o),
(818,825,c),
(776,990,o),
(652,1044,o),
(484,1044,cs),
(332,1044,o),
(204,1001,o),
(90,922,c),
(165,801,l),
(232,845,o),
(323,896,o),
(496,896,cs),
(654,896,o),
(685,787,o),
(688,600,c),
(556,591,ls),
(195,566,o),
(70,476,o),
(70,251,cs),
(70,58,o),
(211,-25,o)
);
},
{
closed = 1;
nodes = (
(387,125,cs),
(291,125,o),
(240,181,o),
(240,264,cs),
(240,372,o),
(291,434,o),
(538,456,cs),
(687,469,l),
(687,358,l),
(687,247,o),
(551,125,o)
);
},
{
closed = 1;
nodes = (
(912,601,l),
(920,759,o),
(996,909,o),
(1151,909,cs),
(1308,909,o),
(1367,778,o),
(1367,602,c)
);
}
);
width = 1628;
}
);
unicode = 230;
userData = {
anchors = (
);
b = {
};
com.typemytype.robofont.layerData = {
};
components = (
);
contours = {
};
lib = {
};
name = ae;
points = {
};
segmentType = curve;
unicodes = (
);
width = 1667;
x = 771;
y = 158;
};
},
{
glyphname = eth;
lastChange = "2013-12-31 02:57:01 +0000";
layers = (
{
layerId = "E322F6D1-BA90-436B-BB35-51D9BD3EA9D1";
name = Regular;
shapes = (
{
closed = 1;
nodes = (
(518,-24,cs),
(835,-24,o),
(959,213,o),
(959,529,cs),
(959,775,o),
(903,1045,o),
(729,1225,c),
(920,1349,l),
(867,1424,l),
(658,1288,l),
(541,1377,o),
(381,1432,o),
(169,1432,c),
(169,1338,l),
(337,1338,o),
(464,1292,o),
(559,1223,c),
(381,1107,l),
(434,1032,l),
(631,1161,l),
(743,1046,o),
(794,895,o),
(810,772,c),
(730,867,o),
(617,909,o),
(503,908,cs),
(294,906,o),
(94,746,o),
(94,454,cs),
(94,208,o),
(231,-24,o)
);
},
{
closed = 1;
nodes = (
(525,85,cs),
(360,85,o),
(236,216,o),
(236,441,cs),
(236,670,o),
(366,798,o),
(523,798,cs),
(629,798,o),
(724,748,o),
(816,650,c),
(822,624,o),
(823,535,o),
(823,511,cs),
(823,262,o),
(736,85,o)
);
}
);
width = 1053;
},
{
layerId = "5D328E58-2F78-4B3D-8E27-494E56F2C351";
name = Bold;
shapes = (
{
closed = 1;
nodes = (
(518,-24,cs),
(847,-27,o),
(991,213,o),
(991,529,cs),
(991,774,o),
(931,1027,o),
(768,1203,c),
(938,1314,l),
(860,1424,l),
(662,1295,l),
(541,1380,o),
(379,1432,o),
(169,1432,c),
(169,1293,l),
(311,1293,o),
(425,1257,o),
(515,1199,c),
(374,1107,l),
(452,997,l),
(622,1108,l),
(713,1010,o),
(762,886,o),
(776,774,c),
(711,864,o),
(611,908,o),
(503,908,cs),
(282,908,o),
(64,746,o),
(64,454,cs),
(64,208,o),
(219,-21,o)
);
},
{
closed = 1;
nodes = (
(518,138,cs),
(385,146,o),
(276,253,o),
(276,444,cs),
(276,624,o),
(381,744,o),
(523,744,cs),
(619,744,o),
(690,697,o),
(782,596,c),
(788,570,o),
(789,535,o),
(789,511,cs),
(789,308,o),
(710,127,o)
);
}
);
width = 1053;
}
);
unicode = 240;
userData = {
anchors = (
);
b = {
};
com.typemytype.robofont.layerData = {
};
components = (
);
contours = {
};
lib = {
};
name = eth;
points = {
};
segmentType = line;
unicodes = (
);
width = 1053;
x = 421;
y = 1026;
};
},
{
glyphname = oslash;
kernLeft = _o_left;
kernRight = _o_right;
lastChange = "2013-12-31 02:57:01 +0000";
layers = (
{
layerId = "E322F6D1-BA90-436B-BB35-51D9BD3EA9D1";
name = Regular;
shapes = (
{
closed = 1;
nodes = (
(254,-197,l),
(906,1178,l),
(834,1216,l),
(181,-159,l)
);
},
{
ref = o;
}
);
width = 1104;
},
{
layerId = "5D328E58-2F78-4B3D-8E27-494E56F2C351";
name = Bold;
shapes = (
{
closed = 1;
nodes = (
(291,-200,l),
(942,1175,l),
(835,1232,l),
(182,-143,l)
);
},
{
ref = o;
}
);
width = 1104;
}
);
unicode = 248;
userData = {
anchors = (
);
b = {
};
com.typemytype.robofont.layerData = {
};
components = (
);
contours = (
);
lib = {
};
name = oslash;
unicodes = (
);
width = 1104;
};
},
{
glyphname = thorn;
lastChange = "2013-12-31 02:57:01 +0000";
layers = (
{
layerId = "E322F6D1-BA90-436B-BB35-51D9BD3EA9D1";
name = Regular;
shapes = (
{
closed = 1;
nodes = (
(131,-394,l),
(273,-378,l),
(273,174,l),
(327,52,o),
(417,-24,o),
(576,-24,cs),
(817,-24,o),
(967,217,o),
(967,520,cs),
(967,812,o),
(848,1044,o),
(573,1044,cs),
(431,1044,o),
(325,972,o),
(272,834,c),
(272,1464,l),
(131,1464,l)
);
},
{
closed = 1;
nodes = (
(559,78,cs),
(351,78,o),
(273,294,o),
(273,519,cs),
(273,803,o),
(396,942,o),
(557,942,cs),
(708,942,o),
(821,810,o),
(821,521,cs),
(821,243,o),
(724,78,o)
);
}
);
width = 1058;
},
{
layerId = "5D328E58-2F78-4B3D-8E27-494E56F2C351";
name = Bold;
shapes = (
{
closed = 1;
nodes = (
(82,-394,l),
(294,-372,l),
(294,94,l),
(351,34,o),
(448,-24,o),
(587,-24,cs),
(853,-24,o),
(1014,217,o),
(1014,520,cs),
(1014,842,o),
(866,1047,o),
(580,1047,cs),
(438,1047,o),
(351,990,o),
(293,932,c),
(293,1464,l),
(82,1464,l)
);
},
{
closed = 1;
nodes = (
(571,128,cs),
(407,128,o),
(297,230,o),
(294,519,cs),
(291,816,o),
(426,897,o),
(557,895,cs),
(690,893,o),
(796,780,o),
(796,521,cs),
(796,293,o),
(736,128,o)
);
}
);
width = 1058;
}
);
unicode = 254;
userData = {
anchors = (
);
b = {
};
com.typemytype.robofont.layerData = {
};
components = (
);
contours = (
);
lib = {
};
name = thorn;
unicodes = (
);
width = 1058;
};
},
{
glyphname = dcroat;
lastChange = "2013-12-31 02:57:01 +0000";
layers = (
{
layerId = "E322F6D1-BA90-436B-BB35-51D9BD3EA9D1";
name = Regular;
shapes = (
{
closed = 1;
nodes = (
(574,1201,l),
(1094,1201,l),
(1094,1287,l),
(574,1287,l)
);
},
{
ref = d;
}
);
width = 1137;
},
{
layerId = "5D328E58-2F78-4B3D-8E27-494E56F2C351";
name = Bold;
shapes = (
{
closed = 1;
nodes = (
(589,1176,l),
(1139,1176,l),
(1139,1304,l),
(589,1304,l)
);
},
{
ref = d;
}
);
width = 1137;
}
);
unicode = 273;
userData = {
anchors = (
);
b = {
};
com.typemytype.robofont.layerData = {
};
components = (
);
contours = (
);
lib = {
};
name = dcroat;
unicodes = (
);
width = 1137;
};
},
{
glyphname = hbar;
lastChange = "2013-12-31 02:57:01 +0000";
layers = (
{
layerId = "E322F6D1-BA90-436B-BB35-51D9BD3EA9D1";
name = Regular;
shapes = (
{
closed = 1;
nodes = (
(0,1201,l),
(520,1201,l),
(520,1287,l),
(0,1287,l)
);
},
{
ref = h;
}
);
width = 1117;
},
{
layerId = "5D328E58-2F78-4B3D-8E27-494E56F2C351";
name = Bold;
shapes = (
{
closed = 1;
nodes = (
(-12,1176,l),
(538,1176,l),
(538,1304,l),
(-12,1304,l)
);
},
{
ref = h;
}
);
width = 1117;
}
);
unicode = 295;
userData = {
anchors = (
);
b = {
};
com.typemytype.robofont.layerData = {
};
components = (
);
contours = (
);
lib = {
};
name = hbar;
unicodes = (
);
width = 1117;
};
},
{
glyphname = dotlessi;
lastChange = "2013-12-31 02:57:01 +0000";
layers = (
{
anchors = (
{
name = ogonek;
pos = (219,0);
},
{
name = top;
pos = (215,1023);
}
);
layerId = "E322F6D1-BA90-436B-BB35-51D9BD3EA9D1";
name = Regular;
shapes = (
{
closed = 1;
nodes = (
(140,0,l),
(282,0,l),
(282,1023,l),
(140,1023,l)
);
}
);
width = 411;
},
{
anchors = (
{
name = top;
pos = (248,1023);
}
);
layerId = "5D328E58-2F78-4B3D-8E27-494E56F2C351";
name = Bold;
shapes = (
{
closed = 1;
nodes = (
(137,0,l),
(349,0,l),
(349,1023,l),
(137,1023,l)
);
}
);
width = 456;
}
);
unicode = 305;
},
{
glyphname = kgreenlandic;
lastChange = "2013-12-31 02:57:01 +0000";
layers = (
{
layerId = "E322F6D1-BA90-436B-BB35-51D9BD3EA9D1";
name = Regular;
shapes = (
{
closed = 1;
nodes = (
(858,0,l),
(1018,0,l),
(585,604,l),
(959,1023,l),
(797,1023,l),
(203,372,l),
(203,231,l),
(490,527,l)
);
},
{
ref = lc_main_stem;
}
);
width = 1010;
},
{
layerId = "5D328E58-2F78-4B3D-8E27-494E56F2C351";
name = Bold;
shapes = (
{
closed = 1;
nodes = (
(825,0,l),
(1066,0,l),
(639,586,l),
(1011,1023,l),
(767,1023,l),
(207,382,l),
(207,172,l),
(496,470,l)
);
},
{
ref = lc_main_stem;
}
);
width = 1010;
}
);
unicode = 312;
userData = {
anchors = (
);
b = {
};
com.typemytype.robofont.layerData = {
};
components = (
);
contours = {
};
lib = {
};
name = kgreenlandic;
points = {
};
segmentType = curve;
unicodes = (
);
width = 1010;
x = 271;
y = 446;
};
},
{
glyphname = lslash;
lastChange = "2013-12-31 02:57:01 +0000";
layers = (
{
layerId = "E322F6D1-BA90-436B-BB35-51D9BD3EA9D1";
name = Regular;
shapes = (
{
closed = 1;
nodes = (
(-60,669,l),
(457,914,l),
(457,1032,l),
(-60,787,l)
);
},
{
ref = l;
}
);
width = 421;
},
{
layerId = "5D328E58-2F78-4B3D-8E27-494E56F2C351";
name = Bold;
shapes = (
{
closed = 1;
nodes = (
(-39,612,l),
(507,857,l),
(507,1032,l),
(-39,787,l)
);
},
{
ref = l;
}
);
width = 421;
}
);
unicode = 322;
userData = {
anchors = (
);
b = {
};
com.typemytype.robofont.layerData = {
};
components = (
);
contours = (
);
lib = {
};
name = lslash;
unicodes = (
);
width = 421;
};
},
{
glyphname = oe;
kernLeft = _o_left;
lastChange = "2013-12-31 02:57:01 +0000";
layers = (
{
anchors = (
{
name = ogonek;
pos = (1719,0);
},
{
name = top;
pos = (1619,1023);
}
);
layerId = "E322F6D1-BA90-436B-BB35-51D9BD3EA9D1";
name = Regular;
shapes = (
{
closed = 1;
nodes = (
(558,-24,cs),
(731,-24,o),
(858,74,o),
(919,235,c),
(988,79,o),
(1112,-24,o),
(1304,-24,cs),
(1465,-23,o),
(1630,68,o),
(1677,246,c),
(1570,270,l),
(1535,160,o),
(1441,78,o),
(1301,78,cs),
(1089,78,o),
(996,269,o),
(996,500,c),
(1698,500,l),
(1700,517,o),
(1701,553,o),
(1701,562,cs),
(1701,834,o),
(1579,1044,o),
(1294,1044,cs),
(1117,1044,o),
(979,934,o),
(918,782,c),
(863,943,o),
(730,1044,o),
(558,1044,cs),
(293,1044,o),
(118,860,o),
(118,510,cs),
(118,160,o),
(293,-24,o)
);
},
{
closed = 1;
nodes = (
(558,77,cs),
(324,77,o),
(263,299,o),
(263,510,cs),
(263,721,o),
(324,943,o),
(558,943,cs),
(792,943,o),
(853,721,o),
(853,510,cs),
(853,299,o),
(792,77,o)
);
},
{
closed = 1;
nodes = (
(996,594,l),
(1012,782,o),
(1107,942,o),
(1293,942,cs),
(1489,942,o),
(1565,809,o),
(1568,594,c)
);
}
);
width = 2103;
},
{
anchors = (
{
name = ogonek;
pos = (1752,0);
},
{
name = top;
pos = (1649,1023);
}
);
layerId = "5D328E58-2F78-4B3D-8E27-494E56F2C351";
name = Bold;
shapes = (
{
closed = 1;
nodes = (
(552,-24,cs),
(708,-24,o),
(842,40,o),
(912,167,c),
(968,57,o),
(1105,-24,o),
(1268,-24,cs),
(1465,-24,o),
(1612,94,o),
(1659,272,c),
(1500,307,l),
(1465,212,o),
(1403,127,o),
(1265,127,cs),
(1081,127,o),
(1019,304,o),
(1016,468,c),
(1674,468,l),
(1676,485,o),
(1677,559,o),
(1677,568,cs),
(1677,841,o),
(1544,1047,o),
(1259,1047,cs),
(1107,1047,o),
(979,970,o),
(911,848,c),
(844,974,o),
(707,1047,o),
(552,1047,cs),
(266,1047,o),
(88,866,o),
(88,512,cs),
(88,158,o),
(266,-24,o)
);
},
{
closed = 1;
nodes = (
(552,126,cs),
(346,126,o),
(305,322,o),
(305,512,cs),
(305,702,o),
(346,897,o),
(552,897,cs),
(758,897,o),
(799,702,o),
(799,512,cs),
(799,322,o),
(758,126,o)
);
},
{
closed = 1;
nodes = (
(1016,607,l),
(1021,721,o),
(1074,896,o),
(1255,896,cs),
(1417,896,o),
(1478,796,o),
(1478,607,c)
);
}
);
width = 2136;
}
);
unicode = 339;
userData = {
com.typemytype.robofont.layerData = {
};
};
},
{
glyphname = uni0237;
lastChange = "2013-12-31 02:57:01 +0000";
layers = (
{
anchors = (
{
name = top;
pos = (294,1023);
}
);
layerId = "E322F6D1-BA90-436B-BB35-51D9BD3EA9D1";
name = Regular;
shapes = (
{
closed = 1;
nodes = (
(140,-325,cs),
(322,-325,o),
(356,-217,o),
(356,-12,cs),
(356,1023,l),
(214,1023,l),
(214,-91,ls),
(214,-182,o),
(177,-207,o),
(118,-207,cs),
(65,-207,o),
(29,-189,o),
(2,-177,c),
(-27,-284,l),
(13,-306,o),
(69,-325,o)
);
}
);
width = 482;
},
{
anchors = (
{
name = top;
pos = (302,1023);
}
);
layerId = "5D328E58-2F78-4B3D-8E27-494E56F2C351";
name = Bold;
shapes = (
{
closed = 1;
nodes = (
(134,-380,cs),
(323,-380,o),
(407,-304,o),
(407,-42,cs),
(407,1023,l),
(195,1023,l),
(195,-91,ls),
(195,-177,o),
(155,-207,o),
(100,-207,cs),
(64,-207,o),
(22,-195,o),
(-20,-176,c),
(-61,-334,l),
(-13,-362,o),
(63,-380,o)
);
}
);
width = 513;
}
);
unicode = 567;
userData = {
anchors = (
);
b = {
};
com.typemytype.robofont.layerData = {
};
components = (
);
contours = (
);
lib = {
};
name = j;
unicodes = (
);
width = 482;
};
},
{
glyphname = mu;
lastChange = "2013-12-31 02:57:01 +0000";
layers = (
{
layerId = "E322F6D1-BA90-436B-BB35-51D9BD3EA9D1";
name = Regular;
shapes = (
{
closed = 1;
nodes = (
(121,-224,l),
(263,-224,l),
(263,1023,l),
(121,1023,l)
);
},
{
ref = u;
}
);
width = 1119;
},
{
layerId = "5D328E58-2F78-4B3D-8E27-494E56F2C351";
name = Bold;
shapes = (
{
closed = 1;
nodes = (
(107,-224,l),
(319,-224,l),
(319,1023,l),
(107,1023,l)
);
},
{
ref = u;
}
);
width = 1119;
}
);
unicode = 956;
userData = {
com.typemytype.robofont.layerData = {
};
};
},
{
glyphname = uni0307;
lastChange = "2013-12-31 02:57:01 +0000";
layers = (
{
layerId = "E322F6D1-BA90-436B-BB35-51D9BD3EA9D1";
name = Regular;
shapes = (
{
closed = 1;
nodes = (
(270,1268,cs),
(351,1268,o),
(392,1331,o),
(392,1393,cs),
(392,1455,o),
(351,1517,o),
(270,1517,cs),
(189,1517,o),
(148,1455,o),
(148,1393,cs),
(148,1331,o),
(189,1268,o)
);
}
);
width = 539;
},
{
layerId = "5D328E58-2F78-4B3D-8E27-494E56F2C351";
name = Bold;
shapes = (
{
closed = 1;
nodes = (
(270,1268,cs),
(351,1268,o),
(392,1331,o),
(392,1393,cs),
(392,1455,o),
(351,1517,o),
(270,1517,cs),
(189,1517,o),
(148,1455,o),
(148,1393,cs),
(148,1331,o),
(189,1268,o)
);
}
);
width = 539;
}
);
unicode = 775;
},
{
glyphname = zero;
lastChange = "2013-12-31 02:57:01 +0000";
layers = (
{
layerId = "E322F6D1-BA90-436B-BB35-51D9BD3EA9D1";
name = Regular;
shapes = (
{
closed = 1;
nodes = (
(623,93,c),
(390,93,o),
(269,297,o),
(269,724,c),
(269,1151,o),
(390,1372,o),
(623,1372,c),
(856,1372,o),
(977,1151,o),
(977,724,c),
(977,297,o),
(856,93,o)
);
},
{
closed = 1;
nodes = (
(623,-24,c),
(963,-24,o),
(1132,262,o),
(1132,724,c),
(1132,1186,o),
(963,1489,o),
(623,1489,c),
(283,1489,o),
(114,1186,o),
(114,724,c),
(114,262,o),
(283,-24,o)
);
}
);
width = 1246;
},
{
layerId = "5D328E58-2F78-4B3D-8E27-494E56F2C351";
name = Bold;
shapes = (
{
closed = 1;
nodes = (
(623,152,c),
(390,152,o),
(304,347,o),
(304,724,c),
(304,1101,o),
(390,1313,o),
(623,1313,c),
(856,1313,o),
(942,1101,o),
(942,724,c),
(942,347,o),
(856,152,o)
);
},
{
closed = 1;
nodes = (
(623,-24,c),
(1003,-24,o),
(1175,264,o),
(1175,724,c),
(1175,1184,o),
(1003,1489,o),
(623,1489,c),
(243,1489,o),
(71,1184,o),
(71,724,c),
(71,264,o),
(243,-24,o)
);
}
);
width = 1246;
}
);
unicode = 48;
userData = {
com.typemytype.robofont.layerData = {
};
};
},
{
glyphname = one;
lastChange = "2013-12-31 02:57:01 +0000";
layers = (
{
layerId = "E322F6D1-BA90-436B-BB35-51D9BD3EA9D1";
name = Regular;
shapes = (
{
closed = 1;
nodes = (
(365,0,l),
(511,0,l),
(511,1464,l),
(382,1464,l),
(105,1344,l),
(149,1228,l),
(365,1328,l)
);
}
);
width = 777;
},
{
layerId = "5D328E58-2F78-4B3D-8E27-494E56F2C351";
name = Bold;
shapes = (
{
closed = 1;
nodes = (
(423,0,l),
(643,0,l),
(643,1464,l),
(452,1464,l),
(132,1333,l),
(197,1158,l),
(423,1258,l)
);
}
);
width = 924;
}
);
unicode = 49;
userData = {
com.typemytype.robofont.layerData = {
};
};
},
{
glyphname = two;
lastChange = "2013-12-31 02:57:01 +0000";
layers = (
{
layerId = "E322F6D1-BA90-436B-BB35-51D9BD3EA9D1";
name = Regular;
shapes = (
{
closed = 1;
nodes = (
(190,0,c),
(1055,0,l),
(1055,125,l),
(350,125,l),
(504,475,o),
(1053,606,o),
(1053,1057,cs),
(1053,1359,o),
(868,1491,o),
(621,1491,cs),
(396,1491,o),
(258,1387,o),
(146,1141,c),
(275,1089,l),
(358,1275,o),
(456,1374,o),
(633,1374,cs),
(792,1374,o),
(909,1263,o),
(909,1060,cs),
(909,625,o),
(206,481,o)
);
}
);
width = 1246;
},
{
layerId = "5D328E58-2F78-4B3D-8E27-494E56F2C351";
name = Bold;
shapes = (
{
closed = 1;
nodes = (
(154,0,c),
(1080,0,l),
(1080,175,l),
(404,175,l),
(602,482,o),
(1090,607,o),
(1078,1044,cs),
(1070,1346,o),
(883,1489,o),
(616,1489,cs),
(391,1489,o),
(228,1396,o),
(110,1141,c),
(303,1064,l),
(387,1231,o),
(479,1314,o),
(628,1314,cs),
(773,1314,o),
(857,1203,o),
(857,1049,cs),
(857,592,o),
(159,551,o)
);
}
);
width = 1246;
}
);
unicode = 50;
userData = {
com.typemytype.robofont.layerData = {
};
};
},
{
glyphname = three;
lastChange = "2013-12-31 02:57:01 +0000";
layers = (
{
layerId = "E322F6D1-BA90-436B-BB35-51D9BD3EA9D1";
name = Regular;
shapes = (
{
closed = 1;
nodes = (
(545,-25,cs),
(844,-24,o),
(993,190,o),
(997,403,cs),
(1000,581,o),
(906,766,o),
(667,815,c),
(852,863,o),
(926,1012,o),
(926,1152,cs),
(926,1350.83,o),
(781,1491,o),
(535,1491,cs),
(365,1491,o),
(223,1411.68,o),
(123,1256,c),
(229,1192,l),
(320,1332.59,o),
(430,1374,o),
(542,1374,cs),
(708,1374,o),
(783,1257.49,o),
(783,1140,cs),
(783,1006,o),
(715,864,o),
(441,864,c),
(441,751,l),
(695,751,o),
(851,655,o),
(848,396,cs),
(846,239,o),
(745,93,o),
(533,93,cs),
(377,93,o),
(268,184.345,o),
(213,358,c),
(89,316,l),
(150,68.273,o),
(351,-26,o)
);
}
);
width = 1092;
},
{
layerId = "5D328E58-2F78-4B3D-8E27-494E56F2C351";
name = Bold;
shapes = (
{
closed = 1;
nodes = (
(612,-24,cs),
(922,-25,o),
(1086,196,o),
(1086,399,cs),
(1086,577,o),
(1018,754,o),
(803,821,c),
(967,882,o),
(1015,1016,o),
(1015,1156,cs),
(1015,1355,o),
(854,1489,o),
(600,1489,cs),
(430,1489,o),
(288,1412,o),
(188,1256,c),
(346,1161,l),
(428,1282,o),
(505,1316,o),
(607,1316,cs),
(729,1316,o),
(802,1240,o),
(802,1140,cs),
(802,1006,o),
(768,894,o),
(494,894,c),
(494,726,l),
(721,726,o),
(872,660,o),
(863,396,cs),
(859,265,o),
(786,146,o),
(595,152,cs),
(447,157,o),
(388,243,o),
(340,378,c),
(154,316,l),
(215,68,o),
(387,-23,o)
);
}
);
width = 1246;
}
);
unicode = 51;
userData = {
com.typemytype.robofont.layerData = {
};
};
},
{
glyphname = four;
lastChange = "2013-12-31 02:57:01 +0000";
layers = (
{
layerId = "E322F6D1-BA90-436B-BB35-51D9BD3EA9D1";
name = Regular;
shapes = (
{
closed = 1;
nodes = (
(756,0,l),
(896,0,l),
(896,357,l),
(1150,357,l),
(1150,467,l),
(895,467,l),
(895,1464,l),
(691,1464,l),
(106,464,l),
(106,357,l),
(756,357,l)
);
},
{
closed = 1;
nodes = (
(267,467,l),
(756,1332,l),
(756,467,l)
);
}
);
width = 1206;
},
{
layerId = "5D328E58-2F78-4B3D-8E27-494E56F2C351";
name = Bold;
shapes = (
{
closed = 1;
nodes = (
(751,0,l),
(959,0,l),
(959,347,l),
(1193,347,l),
(1193,510,l),
(958,510,l),
(958,1464,l),
(656,1464,l),
(103,507,l),
(103,347,l),
(751,347,l)
);
},
{
closed = 1;
nodes = (
(309,510,l),
(751,1319,l),
(751,510,l)
);
}
);
width = 1246;
}
);
unicode = 52;
userData = {
com.typemytype.robofont.layerData = {
};
};
},
{
glyphname = five;
lastChange = "2013-12-31 02:57:01 +0000";
layers = (
{
layerId = "E322F6D1-BA90-436B-BB35-51D9BD3EA9D1";
name = Regular;
shapes = (
{
closed = 1;
nodes = (
(595,-24,cs),
(888,-24,o),
(1079,170,o),
(1079,461,cs),
(1079,703,o),
(937,928,o),
(615,928,cs),
(535,928,o),
(402,903,o),
(305,823,c),
(345,821,l),
(419,1337,l),
(965,1337,l),
(965,1464,l),
(288,1464,l),
(192,744,l),
(285,685,l),
(381,768,o),
(492,808,o),
(609,808,cs),
(824,808,o),
(930,634,o),
(930,453,cs),
(930,237,o),
(796,93,o),
(587,93,cs),
(440,93,o),
(303,192,o),
(230,359,c),
(106,309,l),
(197,76,o),
(378,-24,o)
);
}
);
width = 1163;
},
{
layerId = "5D328E58-2F78-4B3D-8E27-494E56F2C351";
name = Bold;
shapes = (
{
closed = 1;
nodes = (
(632,-24,cs),
(941,-24,o),
(1135,181,o),
(1135,461,cs),
(1135,719,o),
(983,928,o),
(652,928,cs),
(572,928,o),
(465,908,o),
(375,858,c),
(438,856,l),
(502,1275,l),
(1019,1275,l),
(1019,1464,l),
(308,1464,l),
(212,744,l),
(347,658,l),
(446,725,o),
(541,751,o),
(642,751,cs),
(813,751,o),
(914,621,o),
(914,453,cs),
(914,273,o),
(782,149,o),
(623,149,cs),
(491,149,o),
(373,229,o),
(300,382,c),
(116,309,l),
(210,66,o),
(395,-24,o)
);
}
);
width = 1246;
}
);
unicode = 53;
userData = {
anchors = (
);
b = {
};
com.typemytype.robofont.layerData = {
};
components = (
);
contours = {
};
lib = {
};
name = five;
points = {
};
segmentType = line;
unicodes = (
);
width = 1163;
x = 528;
y = 928;
};
},
{
glyphname = six;
lastChange = "2013-12-31 02:57:01 +0000";
layers = (
{
layerId = "E322F6D1-BA90-436B-BB35-51D9BD3EA9D1";
name = Regular;
shapes = (
{
closed = 1;
nodes = (
(623,-25,cs),
(925,-25,o),
(1083,233.508,o),
(1083,484,cs),
(1083,789,o),
(892,957,o),
(622,946,cs),
(509,941,o),
(380,897,o),
(283,820,c),
(296,1177,o),
(435,1369,o),
(644,1374,cs),
(736,1376,o),
(835,1346,o),
(922,1285,c),
(963,1396,l),
(867,1460,o),
(739,1491,o),
(641,1491,cs),
(339,1491,o),
(124,1201,o),
(124,700,cs),
(124,252.383,o),
(280,-25,o)
);
},
{
closed = 1;
nodes = (
(623,93,cs),
(346,93,o),
(283,369,o),
(283,659,cs),
(283,701,l),
(382,779,o),
(497,830,o),
(609,834,cs),
(834,842,o),
(932,722,o),
(932,480,cs),
(932,237,o),
(811,93,o)
);
}
);
width = 1202;
},
{
layerId = "5D328E58-2F78-4B3D-8E27-494E56F2C351";
name = Bold;
shapes = (
{
closed = 1;
nodes = (
(658,-24,cs),
(957,-24,o),
(1134,217,o),
(1134,477,cs),
(1134,782,o),
(933,948,o),
(686,948,cs),
(573,948,o),
(464,925,o),
(360,850,c),
(374,1202,o),
(505,1313,o),
(683,1313,cs),
(765,1313,o),
(863,1288,o),
(966,1229,c),
(1026,1396,l),
(910,1460,o),
(767,1489,o),
(669,1489,cs),
(337,1489,o),
(119,1197,o),
(119,696,cs),
(119,248,o),
(323,-24,o)
);
},
{
closed = 1;
nodes = (
(658,153,cs),
(437,153,o),
(360,393,o),
(360,639,cs),
(360,671,l),
(460,746,o),
(553,779,o),
(656,779,cs),
(825,779,o),
(907,702,o),
(907,473,cs),
(907,262,o),
(811,153,o)
);
}
);
width = 1246;
}
);
unicode = 54;
userData = {
com.typemytype.robofont.layerData = {
};
};
},
{
glyphname = seven;
lastChange = "2013-12-31 02:57:01 +0000";
layers = (
{
layerId = "E322F6D1-BA90-436B-BB35-51D9BD3EA9D1";
name = Regular;
shapes = (
{
closed = 1;
nodes = (
(523,-1,l),
(1070,1351,l),
(1070,1464,l),
(202,1464,l),
(214,1352,l),
(918,1352,l),
(365,1,l)
);
}
);
width = 1246;
},
{
layerId = "5D328E58-2F78-4B3D-8E27-494E56F2C351";
name = Bold;
shapes = (
{
closed = 1;
nodes = (
(563,-1,l),
(1077,1295,l),
(1077,1464,l),
(194,1464,l),
(210,1294,l),
(846,1294,l),
(323,0,l)
);
}
);
width = 1246;
}
);
unicode = 55;
userData = {
com.typemytype.robofont.layerData = {
};
};
},
{
glyphname = eight;
lastChange = "2013-12-31 02:57:01 +0000";
layers = (
{
layerId = "E322F6D1-BA90-436B-BB35-51D9BD3EA9D1";
name = Regular;
shapes = (
{
closed = 1;
nodes = (
(569,-25,cs),
(885,-25,o),
(1062,160.476,o),
(1062,365,cs),
(1062,506,o),
(1023,628,o),
(768,751,c),
(857,783,o),
(1049,903,o),
(1049,1099,cs),
(1049,1375.3,o),
(839,1491,o),
(594,1491,cs),
(356,1491,o),
(127,1379.29,o),
(127,1101,cs),
(127,925,o),
(285,812,o),
(398,759,c),
(194,640,o),
(106,502,o),
(106,351,cs),
(106,154.477,o),
(281,-25,o)
);
},
{
closed = 1;
nodes = (
(584,93,cs),
(379,93,o),
(264,223.246,o),
(264,367,cs),
(264,487,o),
(347,623,o),
(501,716,c),
(716,654,o),
(914,586,o),
(914,368,cs),
(914,188.526,o),
(741,93,o)
);
},
{
closed = 1;
nodes = (
(659,792,c),
(454,857,o),
(278,914,o),
(278,1104,cs),
(278,1301.35,o),
(441,1374,o),
(594,1374,cs),
(758,1374,o),
(899,1291.51,o),
(899,1101,cs),
(899,932,o),
(753,839,o)
);
}
);
width = 1160;
},
{
layerId = "5D328E58-2F78-4B3D-8E27-494E56F2C351";
name = Bold;
shapes = (
{
closed = 1;
nodes = (
(608,-24,cs),
(926,-24,o),
(1101,160,o),
(1101,365,cs),
(1101,506,o),
(1094,643,o),
(839,766,c),
(928,798,o),
(1100,903,o),
(1100,1099,cs),
(1100,1375,o),
(878,1489,o),
(633,1489,cs),
(395,1489,o),
(154,1379,o),
(154,1101,cs),
(154,925,o),
(276,797,o),
(389,744,c),
(185,625,o),
(142,503,o),
(145,351,cs),
(149,154,o),
(320,-24,o)
);
},
{
closed = 1;
nodes = (
(623,154,cs),
(477,155,o),
(395,247,o),
(384,361,cs),
(373,477,o),
(395,586,o),
(541,680,c),
(756,618,o),
(877,586,o),
(877,368,cs),
(877,236,o),
(755,153,o)
);
},
{
closed = 1;
nodes = (
(676,827,c),
(471,892,o),
(383,914,o),
(383,1104,cs),
(383,1241,o),
(483,1313,o),
(633,1313,cs),
(790,1313,o),
(873,1228,o),
(873,1101,cs),
(873,942,o),
(768,875,o)
);
}
);
width = 1246;
}
);
unicode = 56;
},
{
glyphname = nine;
lastChange = "2013-12-31 02:57:01 +0000";
layers = (
{
layerId = "E322F6D1-BA90-436B-BB35-51D9BD3EA9D1";
name = Regular;
shapes = (
{
closed = 1;
nodes = (
(565,-25,cs),
(867,-25,o),
(1082,265,o),
(1082,766,cs),
(1082,1214,o),
(926,1491,o),
(583,1491,cs),
(281,1491,o),
(123,1232,o),
(123,982,cs),
(123,677,o),
(314,509,o),
(584,520,cs),
(697,525,o),
(826,569,o),
(923,646,c),
(910,289,o),
(771,97,o),
(562,92,cs),
(470,90,o),
(371,120,o),
(284,181,c),
(243,70,l),
(339,6,o),
(467,-25,o)
);
},
{
closed = 1;
nodes = (
(597,632,cs),
(372,624,o),
(274,744,o),
(274,986,cs),
(274,1229,o),
(395,1373,o),
(583,1373,cs),
(860,1373,o),
(923,1097,o),
(923,807,cs),
(923,765,l),
(824,687,o),
(709,636,o)
);
}
);
width = 1202;
},
{
layerId = "5D328E58-2F78-4B3D-8E27-494E56F2C351";
name = Bold;
shapes = (
{
closed = 1;
nodes = (
(570,-24,cs),
(902,-24,o),
(1120,268,o),
(1120,769,cs),
(1120,1217,o),
(916,1489,o),
(581,1489,cs),
(282,1489,o),
(105,1248,o),
(105,988,cs),
(105,683,o),
(306,517,o),
(553,517,cs),
(666,517,o),
(775,540,o),
(879,615,c),
(865,263,o),
(734,152,o),
(556,152,cs),
(474,152,o),
(376,177,o),
(273,236,c),
(213,69,l),
(329,5,o),
(472,-24,o)
);
},
{
closed = 1;
nodes = (
(583,686,cs),
(414,686,o),
(332,763,o),
(332,992,cs),
(332,1203,o),
(428,1312,o),
(581,1312,cs),
(802,1312,o),
(879,1072,o),
(879,826,cs),
(879,794,l),
(779,719,o),
(686,686,o)
);
}
);
width = 1246;
}
);
unicode = 57;
userData = {
anchors = (
);
b = {
};
com.typemytype.robofont.layerData = {
};
components = (
);
contours = (
);
lib = {
};
name = nine;
unicodes = (
);
width = 1202;
};
},
{
glyphname = onequarter;
lastChange = "2013-12-31 02:57:01 +0000";
layers = (
{
layerId = "E322F6D1-BA90-436B-BB35-51D9BD3EA9D1";
name = Regular;
shapes = (
{
closed = 1;
nodes = (
(1140,0,l),
(1255,0,l),
(1255,152,l),
(1355,152,l),
(1355,234,l),
(1255,234,l),
(1255,693,l),
(1109,693,l),
(789,220,l),
(789,152,l),
(1140,152,l)
);
},
{
closed = 1;
nodes = (
(242,769,l),
(355,769,l),
(355,1464,l),
(252,1464,l),
(104,1397,l),
(125,1307,l),
(242,1365,l)
);
},
{
closed = 1;
nodes = (
(155,-14,l),
(1390,1415,l),
(1314,1481,l),
(78,52,l)
);
},
{
closed = 1;
nodes = (
(903,234,l),
(1140,585,l),
(1140,234,l)
);
}
);
width = 1403;
},
{
layerId = "5D328E58-2F78-4B3D-8E27-494E56F2C351";
name = Bold;
shapes = (
{
closed = 1;
nodes = (
(1102,0,l),
(1266,0,l),
(1266,121,l),
(1374,121,l),
(1374,243,l),
(1266,243,l),
(1266,693,l),
(1051,693,l),
(762,220,l),
(762,121,l),
(1102,121,l)
);
},
{
closed = 1;
nodes = (
(184,769,l),
(353,769,l),
(353,1464,l),
(199,1464,l),
(41,1390,l),
(72,1256,l),
(184,1316,l)
);
},
{
closed = 1;
nodes = (
(146,-14,l),
(1381,1415,l),
(1265,1513,l),
(29,84,l)
);
},
{
closed = 1;
nodes = (
(932,243,l),
(1102,542,l),
(1102,243,l)
);
}
);
width = 1403;
}
);
unicode = 188;
userData = {
com.typemytype.robofont.layerData = {
};
};
},
{
glyphname = onehalf;
lastChange = "2013-12-31 02:57:01 +0000";
layers = (
{
layerId = "E322F6D1-BA90-436B-BB35-51D9BD3EA9D1";
name = Regular;
shapes = (
{
closed = 1;
nodes = (
(966,0,l),
(1441,0,l),
(1441,79,l),
(1098,79,l),
(1311,265,o),
(1454,339,o),
(1440,495,cs),
(1427,638,o),
(1317,712,o),
(1200,712,cs),
(1094,712,o),
(988,658,o),
(945,537,c),
(1035,492,l),
(1053,574,o),
(1127,619,o),
(1198,619,cs),
(1266,619,o),
(1327,576,o),
(1335,486,cs),
(1346,364,o),
(1217,295,o),
(965,82,c)
);
},
{
closed = 1;
nodes = (
(302,769,l),
(415,769,l),
(415,1464,l),
(312,1464,l),
(164,1397,l),
(185,1307,l),
(302,1365,l)
);
},
{
closed = 1;
nodes = (
(195,-14,l),
(1430,1415,l),
(1354,1481,l),
(118,52,l)
);
}
);
width = 1548;
},
{
layerId = "5D328E58-2F78-4B3D-8E27-494E56F2C351";
name = Bold;
shapes = (
{
closed = 1;
nodes = (
(919,0,l),
(1412,0,l),
(1412,119,l),
(1143,120,l),
(1311,266,o),
(1431,344,o),
(1411,516,cs),
(1394,658,o),
(1278,712,o),
(1161,712,cs),
(1055,712,o),
(941,658,o),
(898,537,c),
(1032,470,l),
(1050,532,o),
(1081,573,o),
(1152,573,cs),
(1217,573,o),
(1244,536,o),
(1246,487,cs),
(1250,379,o),
(1110,293,o),
(919,123,c)
);
},
{
closed = 1;
nodes = (
(184,769,l),
(353,769,l),
(353,1464,l),
(199,1464,l),
(41,1390,l),
(72,1256,l),
(184,1316,l)
);
},
{
closed = 1;
nodes = (
(146,-14,l),
(1381,1415,l),
(1265,1513,l),
(29,84,l)
);
}
);
width = 1361;
}
);
unicode = 189;
userData = {
com.typemytype.robofont.layerData = {
};
};
},
{
glyphname = threequarters;
lastChange = "2013-12-31 02:57:01 +0000";
layers = (
{
layerId = "E322F6D1-BA90-436B-BB35-51D9BD3EA9D1";
name = Regular;
shapes = (
{
closed = 1;
nodes = (
(360,745,c),
(520,745,o),
(600,843,o),
(602,949,cs),
(603,1001,o),
(586,1108,o),
(442,1144,c),
(536,1171,o),
(570,1242,o),
(570,1308,cs),
(570,1396,o),
(488,1481,o),
(346,1481,cs),
(264,1481,o),
(161,1440,o),
(131,1358,c),
(204,1307,l),
(232,1368,o),
(293,1396,o),
(347,1396,cs),
(421,1396,o),
(466,1357,o),
(466,1299,cs),
(466,1234,o),
(429,1184,o),
(307,1182,c),
(307,1095,l),
(443,1095,o),
(495,1040,o),
(495,953,cs),
(495,895,o),
(448,834,o),
(368,834,cs),
(292,834,o),
(229,863,o),
(200,942,c),
(119,910,l),
(148,791,o),
(266,746,o)
);
},
{
closed = 1;
nodes = (
(1195,0,l),
(1310,0,l),
(1310,152,l),
(1410,152,l),
(1410,234,l),
(1310,234,l),
(1310,693,l),
(1164,693,l),
(844,220,l),
(844,152,l),
(1195,152,l)
);
},
{
closed = 1;
nodes = (
(248,-14,l),
(1483,1415,l),
(1407,1481,l),
(171,52,l)
);
},
{
closed = 1;
nodes = (
(958,234,l),
(1195,585,l),
(1195,234,l)
);
}
);
width = 1548;
},
{
layerId = "5D328E58-2F78-4B3D-8E27-494E56F2C351";
name = Bold;
shapes = (
{
closed = 1;
nodes = (
(369,743,c),
(535,740,o),
(633,824,o),
(636,954,cs),
(637,1006,o),
(632,1098,o),
(501,1145,c),
(582,1174,o),
(611,1237,o),
(611,1303,cs),
(611,1411,o),
(505,1481,o),
(363,1481,cs),
(281,1481,o),
(176,1441,o),
(146,1359,c),
(250,1281,l),
(273,1321,o),
(310,1354,o),
(364,1354,cs),
(418,1354,o),
(455,1333,o),
(458,1295,cs),
(462,1237,o),
(440,1204,o),
(318,1202,c),
(318,1072,l),
(454,1072,o),
(477,1024,o),
(477,957,cs),
(477,907,o),
(430,874,o),
(376,874,cs),
(330,874,o),
(272,889,o),
(246,973,c),
(130,910,l),
(159,791,o),
(275,744,o)
);
},
{
closed = 1;
nodes = (
(1280,0,l),
(1448,0,l),
(1448,121,l),
(1552,121,l),
(1552,243,l),
(1448,243,l),
(1448,693,l),
(1229,693,l),
(940,220,l),
(940,121,l),
(1280,121,l)
);
},
{
closed = 1;
nodes = (
(324,-14,l),
(1559,1415,l),
(1443,1513,l),
(207,84,l)
);
},
{
closed = 1;
nodes = (
(1110,243,l),
(1280,542,l),
(1280,243,l)
);
}
);
width = 1441;
}
);
unicode = 190;
userData = {
com.typemytype.robofont.layerData = {
};
};
},
{
glyphname = underscore;
lastChange = "2013-12-31 02:57:01 +0000";
layers = (
{
layerId = "E322F6D1-BA90-436B-BB35-51D9BD3EA9D1";
name = Regular;
shapes = (
{
closed = 1;
nodes = (
(99,-99,l),
(750,-99,l),
(750,-1,l),
(99,-1,l)
);
}
);
width = 870;
},
{
layerId = "5D328E58-2F78-4B3D-8E27-494E56F2C351";
name = Bold;
shapes = (
{
closed = 1;
nodes = (
(99,-147,l),
(750,-147,l),
(750,-1,l),
(99,-1,l)
);
}
);
width = 870;
}
);
unicode = 95;
},
{
glyphname = hyphen;
lastChange = "2013-12-31 02:57:01 +0000";
layers = (
{
layerId = "E322F6D1-BA90-436B-BB35-51D9BD3EA9D1";
name = Regular;
shapes = (
{
closed = 1;
nodes = (
(100,400,l),
(600,400,l),
(600,511,l),
(100,511,l)
);
}
);
width = 724;
},
{
layerId = "5D328E58-2F78-4B3D-8E27-494E56F2C351";
name = Bold;
shapes = (
{
closed = 1;
nodes = (
(100,360,l),
(600,360,l),
(600,527,l),
(100,527,l)
);
}
);
width = 724;
}
);
unicode = 45;
},
{
glyphname = endash;
lastChange = "2013-12-31 02:57:01 +0000";
layers = (
{
layerId = "E322F6D1-BA90-436B-BB35-51D9BD3EA9D1";
name = Regular;
shapes = (
{
closed = 1;
nodes = (
(135,334,l),
(889,334,l),
(889,420,l),
(135,420,l)
);
}
);
width = 1024;
},
{
layerId = "5D328E58-2F78-4B3D-8E27-494E56F2C351";
name = Bold;
shapes = (
{
closed = 1;
nodes = (
(135,294,l),
(889,294,l),
(889,420,l),
(135,420,l)
);
}
);
width = 1024;
}
);
unicode = 8211;
},
{
glyphname = emdash;
lastChange = "2013-12-31 02:57:01 +0000";
layers = (
{
layerId = "E322F6D1-BA90-436B-BB35-51D9BD3EA9D1";
name = Regular;
shapes = (
{
closed = 1;
nodes = (
(135,334,l),
(1913,334,l),
(1913,420,l),
(135,420,l)
);
}
);
width = 2048;
},
{
layerId = "5D328E58-2F78-4B3D-8E27-494E56F2C351";
name = Bold;
shapes = (
{
closed = 1;
nodes = (
(135,294,l),
(1912,294,l),
(1912,420,l),
(135,420,l)
);
}
);
width = 2048;
}
);
unicode = 8212;
},
{
glyphname = parenleft;
lastChange = "2013-12-31 02:57:01 +0000";
layers = (
{
layerId = "E322F6D1-BA90-436B-BB35-51D9BD3EA9D1";
name = Regular;
shapes = (
{
closed = 1;
nodes = (
(523,-181,c),
(552,-96,l),
(282,-20,o),
(184,289,o),
(184,703,c),
(184,1117,o),
(282,1426,o),
(552,1502,c),
(523,1587,l),
(232,1518,o),
(34,1242,o),
(34,703,c),
(34,164,o),
(232,-112,o)
);
}
);
width = 602;
},
{
layerId = "5D328E58-2F78-4B3D-8E27-494E56F2C351";
name = Bold;
shapes = (
{
closed = 1;
nodes = (
(523,-181,c),
(564,-54,l),
(338,19,o),
(222,289,o),
(222,703,c),
(222,1117,o),
(338,1387,o),
(564,1460,c),
(523,1587,l),
(232,1518,o),
(-5,1242,o),
(-5,703,c),
(-5,164,o),
(232,-112,o)
);
}
);
width = 602;
}
);
unicode = 40;
userData = {
anchors = (
);
b = {
};
com.typemytype.robofont.layerData = {
};
components = (
);
contours = {
};
lib = {
};
name = parenleft;
points = {
};
segmentType = curve;
unicodes = (
);
width = 602;
x = 232;
y = 1518;
};
},
{
glyphname = parenright;
lastChange = "2013-12-31 02:57:01 +0000";
layers = (
{
layerId = "E322F6D1-BA90-436B-BB35-51D9BD3EA9D1";
name = Regular;
shapes = (
{
closed = 1;
nodes = (
(63,-181,l),
(354,-112,o),
(552,164,o),
(552,703,c),
(552,1242,o),
(354,1518,o),
(63,1587,c),
(34,1502,l),
(304,1426,o),
(402,1117,o),
(402,703,c),
(402,289,o),
(304,-20,o),
(34,-96,c)
);
}
);
width = 602;
},
{
layerId = "5D328E58-2F78-4B3D-8E27-494E56F2C351";
name = Bold;
shapes = (
{
closed = 1;
nodes = (
(36,-181,l),
(327,-112,o),
(564,164,o),
(564,703,c),
(564,1242,o),
(327,1518,o),
(36,1587,c),
(-5,1460,l),
(221,1387,o),
(337,1117,o),
(337,703,c),
(337,289,o),
(221,19,o),
(-5,-54,c)
);
}
);
width = 602;
}
);
unicode = 41;
userData = {
anchors = (
);
b = {
};
com.typemytype.robofont.layerData = {
};
components = (
);
contours = {
};
lib = {
};
name = parenright;
points = {
};
segmentType = curve;
unicodes = (
);
width = 602;
x = 232;
y = 1518;
};
},
{
glyphname = bracketleft;
lastChange = "2013-12-31 02:57:01 +0000";
layers = (
{
layerId = "E322F6D1-BA90-436B-BB35-51D9BD3EA9D1";
name = Regular;
shapes = (
{
closed = 1;
nodes = (
(132,-52,l),
(590,-52,l),
(590,55,l),
(277,55,l),
(277,1374,l),
(590,1374,l),
(590,1480,l),
(132,1480,l)
);
}
);
width = 708;
},
{
layerId = "5D328E58-2F78-4B3D-8E27-494E56F2C351";
name = Bold;
shapes = (
{
closed = 1;
nodes = (
(132,-52,l),
(620,-52,l),
(620,110,l),
(352,110,l),
(352,1320,l),
(620,1320,l),
(620,1480,l),
(132,1480,l)
);
}
);
width = 708;
}
);
unicode = 91;
},
{
glyphname = bracketright;
lastChange = "2013-12-31 02:57:01 +0000";
layers = (
{
layerId = "E322F6D1-BA90-436B-BB35-51D9BD3EA9D1";
name = Regular;
shapes = (
{
closed = 1;
nodes = (
(119,-52,l),
(576,-52,l),
(576,1480,l),
(119,1480,l),
(119,1374,l),
(431,1374,l),
(431,55,l),
(119,55,l)
);
}
);
width = 707;
},
{
layerId = "5D328E58-2F78-4B3D-8E27-494E56F2C351";
name = Bold;
shapes = (
{
closed = 1;
nodes = (
(132,-52,l),
(620,-52,l),
(620,1480,l),
(132,1480,l),
(132,1320,l),
(400,1320,l),
(400,110,l),
(132,110,l)
);
}
);
width = 708;
}
);
unicode = 93;
},
{
glyphname = braceleft;
lastChange = "2013-12-31 02:57:01 +0000";
layers = (
{
layerId = "E322F6D1-BA90-436B-BB35-51D9BD3EA9D1";
name = Regular;
shapes = (
{
closed = 1;
nodes = (
(608,-130,c),
(608,-40,l),
(350,-40,o),
(349,38,o),
(349,381,cs),
(349,563,o),
(319,676,o),
(190,707,c),
(319,738,o),
(349,851,o),
(349,1033,cs),
(349,1376,o),
(350,1454,o),
(608,1454,c),
(608,1544,l),
(228,1544,o),
(198,1402,o),
(198,1033,cs),
(198,902,o),
(200,766,o),
(35,754,c),
(35,660,l),
(200,648,o),
(198,512,o),
(198,381,cs),
(198,12,o),
(228,-130,o)
);
}
);
width = 644;
},
{
layerId = "5D328E58-2F78-4B3D-8E27-494E56F2C351";
name = Bold;
shapes = (
{
closed = 1;
nodes = (
(628,-130,c),
(628,3,l),
(411,3,o),
(387,48,o),
(387,381,cs),
(387,563,o),
(347,676,o),
(218,707,c),
(347,738,o),
(387,851,o),
(387,1033,cs),
(387,1366,o),
(411,1411,o),
(628,1411,c),
(628,1544,l),
(232,1544,o),
(158,1417,o),
(158,1046,cs),
(158,915,o),
(160,789,o),
(-5,777,c),
(-5,637,l),
(160,625,o),
(158,499,o),
(158,368,cs),
(158,-3,o),
(232,-130,o)
);
}
);
width = 644;
}
);
unicode = 123;
userData = {
anchors = (
);
b = {
};
com.typemytype.robofont.layerData = {
};
components = (
);
contours = (
);
lib = {
};
name = braceleft;
unicodes = (
);
width = 644;
};
},
{
glyphname = braceright;
lastChange = "2013-12-31 02:57:01 +0000";
layers = (
{
layerId = "E322F6D1-BA90-436B-BB35-51D9BD3EA9D1";
name = Regular;
shapes = (
{
closed = 1;
nodes = (
(35,-130,l),
(415,-130,o),
(445,12,o),
(445,381,cs),
(445,512,o),
(443,648,o),
(608,660,c),
(608,754,l),
(443,766,o),
(445,902,o),
(445,1033,cs),
(445,1402,o),
(415,1544,o),
(35,1544,c),
(35,1454,l),
(293,1454,o),
(294,1376,o),
(294,1033,cs),
(294,851,o),
(324,738,o),
(453,707,c),
(324,676,o),
(294,563,o),
(294,381,cs),
(294,38,o),
(293,-40,o),
(35,-40,c)
);
}
);
width = 644;
},
{
layerId = "5D328E58-2F78-4B3D-8E27-494E56F2C351";
name = Bold;
shapes = (
{
closed = 1;
nodes = (
(-5,-130,l),
(391,-130,o),
(465,-3,o),
(465,368,cs),
(465,499,o),
(463,625,o),
(628,637,c),
(628,777,l),
(463,789,o),
(465,915,o),
(465,1046,cs),
(465,1417,o),
(391,1544,o),
(-5,1544,c),
(-5,1411,l),
(212,1411,o),
(236,1366,o),
(236,1033,cs),
(236,851,o),
(276,738,o),
(405,707,c),
(276,676,o),
(236,563,o),
(236,381,cs),
(236,48,o),
(212,3,o),
(-5,3,c)
);
}
);
width = 644;
}
);
unicode = 125;
userData = {
anchors = (
);
b = {
};
com.typemytype.robofont.layerData = {
};
components = (
);
contours = (
);
lib = {
};
name = braceleft;
unicodes = (
);
width = 644;
};
},
{
glyphname = numbersign;
lastChange = "2013-12-31 02:57:01 +0000";
layers = (
{
layerId = "E322F6D1-BA90-436B-BB35-51D9BD3EA9D1";
name = Regular;
shapes = (
{
closed = 1;
nodes = (
(145,0,l),
(278,1,l),
(391,551,l),
(718,551,l),
(607,0,l),
(740,1,l),
(853,551,l),
(1077,551,l),
(1106,649,l),
(873,649,l),
(925,901,l),
(1146,901,l),
(1175,999,l),
(945,999,l),
(1041,1464,l),
(903,1463,l),
(808,999,l),
(483,999,l),
(579,1464,l),
(441,1463,l),
(347,999,l),
(149,999,l),
(120,901,l),
(327,901,l),
(276,649,l),
(80,649,l),
(51,551,l),
(256,551,l)
);
},
{
closed = 1;
nodes = (
(411,649,l),
(463,901,l),
(788,901,l),
(738,649,l)
);
}
);
width = 1221;
},
{
layerId = "5D328E58-2F78-4B3D-8E27-494E56F2C351";
name = Bold;
shapes = (
{
closed = 1;
nodes = (
(124,-1,l),
(324,0,l),
(432,526,l),
(666,526,l),
(560,-1,l),
(760,0,l),
(868,526,l),
(1072,526,l),
(1113,672,l),
(897,672,l),
(941,877,l),
(1142,877,l),
(1180,1023,l),
(970,1023,l),
(1061,1464,l),
(854,1464,l),
(765,1023,l),
(535,1023,l),
(626,1464,l),
(420,1464,l),
(331,1023,l),
(154,1023,l),
(116,877,l),
(302,877,l),
(259,672,l),
(87,672,l),
(46,526,l),
(230,526,l)
);
},
{
closed = 1;
nodes = (
(461,672,l),
(506,877,l),
(736,877,l),
(695,672,l)
);
}
);
width = 1221;
}
);
unicode = 35;
userData = {
com.typemytype.robofont.layerData = {
};
};
},
{
glyphname = percent;
lastChange = "2013-12-31 02:57:01 +0000";
layers = (
{
layerId = "E322F6D1-BA90-436B-BB35-51D9BD3EA9D1";
name = Regular;
shapes = (
{
closed = 1;
nodes = (
(357,863,c),
(225,863,o),
(160,982,o),
(160,1118,c),
(160,1254,o),
(225,1374,o),
(357,1374,c),
(489,1374,o),
(555,1257,o),
(555,1118,c),
(555,982,o),
(489,863,o)
);
},
{
closed = 1;
nodes = (
(357,770,c),
(560,770,o),
(664,945,o),
(664,1118,c),
(664,1291,o),
(560,1466,o),
(357,1466,c),
(154,1466,o),
(50,1291,o),
(50,1118,c),
(50,945,o),
(154,770,o)
);
},
{
closed = 1;
nodes = (
(268,-14,l),
(1503,1415,l),
(1426,1481,l),
(190,52,l)
);
},
{
closed = 1;
nodes = (
(1309,93,c),
(1177,93,o),
(1112,212,o),
(1112,348,c),
(1112,484,o),
(1177,604,o),
(1309,604,c),
(1441,604,o),
(1507,487,o),
(1507,348,c),
(1507,212,o),
(1441,93,o)
);
},
{
closed = 1;
nodes = (
(1309,0,c),
(1512,0,o),
(1616,175,o),
(1616,348,c),
(1616,521,o),
(1512,696,o),
(1309,696,c),
(1106,696,o),
(1002,521,o),
(1002,348,c),
(1002,175,o),
(1106,0,o)
);
}
);
width = 1677;
},
{
layerId = "5D328E58-2F78-4B3D-8E27-494E56F2C351";
name = Bold;
shapes = (
{
closed = 1;
nodes = (
(356,913,cs),
(256,913,o),
(204,1005,o),
(204,1123,cs),
(204,1234,o),
(261,1329,o),
(356,1329,cs),
(454,1329,o),
(507,1238,o),
(507,1122,cs),
(507,1005,o),
(453,913,o)
);
},
{
closed = 1;
nodes = (
(357,774,cs),
(558,774,o),
(670,946,o),
(670,1120,cs),
(670,1292,o),
(558,1466,o),
(357,1466,cs),
(154,1466,o),
(40,1291,o),
(40,1118,cs),
(40,945,o),
(152,774,o)
);
},
{
closed = 1;
nodes = (
(281,-32,l),
(1516,1398,l),
(1405,1502,l),
(169,73,l)
);
},
{
closed = 1;
nodes = (
(1279,115,cs),
(1179,115,o),
(1127,207,o),
(1127,325,cs),
(1127,436,o),
(1184,531,o),
(1279,531,cs),
(1377,531,o),
(1430,440,o),
(1430,324,cs),
(1430,207,o),
(1376,115,o)
);
},
{
closed = 1;
nodes = (
(1280,-24,cs),
(1481,-24,o),
(1593,148,o),
(1593,322,cs),
(1593,494,o),
(1481,668,o),
(1280,668,cs),
(1077,668,o),
(963,493,o),
(963,320,cs),
(963,147,o),
(1075,-24,o)
);
}
);
width = 1677;
}
);
unicode = 37;
userData = {
anchors = (
);
b = {
};
com.typemytype.robofont.layerData = {
};
components = (
);
contours = (
);
lib = {
};
name = percent;
unicodes = (
);
width = 1677;
};
},
{
glyphname = quotesingle;
lastChange = "2013-12-31 02:57:01 +0000";
layers = (
{
layerId = "E322F6D1-BA90-436B-BB35-51D9BD3EA9D1";
name = Regular;
shapes = (
{
closed = 1;
nodes = (
(123,1000,l),
(172,1000,l),
(213,1464,l),
(81,1464,l)
);
}
);
width = 280;
},
{
layerId = "5D328E58-2F78-4B3D-8E27-494E56F2C351";
name = Bold;
shapes = (
{
closed = 1;
nodes = (
(122,1000,l),
(195,1000,l),
(256,1464,l),
(60,1464,l)
);
}
);
width = 280;
}
);
unicode = 39;
userData = {
com.typemytype.robofont.layerData = {
};
};
},
{
glyphname = quotedbl;
lastChange = "2013-12-31 02:57:01 +0000";
layers = (
{
layerId = "E322F6D1-BA90-436B-BB35-51D9BD3EA9D1";
name = Regular;
shapes = (
{
closed = 1;
nodes = (
(100,1000,l),
(149,1000,l),
(190,1464,l),
(58,1464,l)
);
},
{
closed = 1;
nodes = (
(357,1000,l),
(406,1000,l),
(447,1464,l),
(315,1464,l)
);
}
);
width = 510;
},
{
layerId = "5D328E58-2F78-4B3D-8E27-494E56F2C351";
name = Bold;
shapes = (
{
closed = 1;
nodes = (
(73,1000,l),
(146,1000,l),
(207,1464,l),
(11,1464,l)
);
},
{
closed = 1;
nodes = (
(365,1000,l),
(438,1000,l),
(499,1464,l),
(303,1464,l)
);
}
);
width = 510;
}
);
unicode = 34;
userData = {
com.typemytype.robofont.layerData = {
};
};
},
{
glyphname = quoteleft;
lastChange = "2013-12-31 02:57:01 +0000";
layers = (
{
layerId = "E322F6D1-BA90-436B-BB35-51D9BD3EA9D1";
name = Regular;
shapes = (
{
closed = 1;
nodes = (
(30,992,l),
(230,992,l),
(229.667,1013.67,o),
(229.556,1035.33,o),
(229.556,1057,cs),
(229.556,1100.33,o),
(230,1143.67,o),
(230,1187,c),
(136,1200,l),
(136,1298,o),
(157,1335,o),
(214,1431,c),
(213,1431,o),
(145,1468,o),
(145,1469,c),
(31.868,1374.24,o),
(29.998,1243.95,o),
(29.998,1103.45,cs),
(29.998,1098.64,o),
(30,1093.83,o),
(30,1089,cs)
);
}
);
width = 330;
},
{
layerId = "5D328E58-2F78-4B3D-8E27-494E56F2C351";
name = Bold;
shapes = (
{
closed = 1;
nodes = (
(20,992,l),
(250,992,l),
(250,1014,o),
(250,1035,o),
(250,1057,cs),
(250,1100,o),
(250,1144,o),
(250,1187,c),
(156,1200,l),
(156,1298,o),
(177,1325,o),
(234,1421,c),
(233,1421,o),
(145,1468,o),
(145,1469,c),
(22,1374,o),
(20,1244,o),
(20,1103,cs),
(20,1099,o),
(20,1094,o),
(20,1089,cs)
);
}
);
width = 330;
}
);
unicode = 8216;
},
{
glyphname = quoteright;
lastChange = "2013-12-31 02:57:01 +0000";
layers = (
{
layerId = "E322F6D1-BA90-436B-BB35-51D9BD3EA9D1";
name = Regular;
shapes = (
{
closed = 1;
nodes = (
(160,991,l),
(330,1104,o),
(306,1284,o),
(310,1464,c),
(90,1464,l),
(90,1292,ls),
(90,1291,o),
(180,1273,o),
(180,1274,c),
(177,1154,o),
(126,1087,o),
(101,1064,c)
);
}
);
width = 330;
},
{
layerId = "5D328E58-2F78-4B3D-8E27-494E56F2C351";
name = Bold;
shapes = (
{
closed = 1;
nodes = (
(160,991,l),
(320,1104,o),
(296,1284,o),
(300,1464,c),
(100,1464,l),
(100,1292,ls),
(100,1291,o),
(190,1273,o),
(190,1274,c),
(187,1154,o),
(136,1077,o),
(111,1054,c)
);
}
);
width = 330;
}
);
unicode = 8217;
},
{
glyphname = quotedblleft;
lastChange = "2013-12-31 02:57:01 +0000";
layers = (
{
layerId = "E322F6D1-BA90-436B-BB35-51D9BD3EA9D1";
name = Regular;
shapes = (
{
closed = 1;
nodes = (
(20,995,l),
(240,995,l),
(240,1183,l),
(143,1197,l),
(146,1319,o),
(199,1387,o),
(224,1410,c),
(165,1473,l),
(31,1379,o),
(20,1240,o),
(20,1084,cs)
);
},
{
closed = 1;
nodes = (
(340,995,l),
(560,995,l),
(560,1183,l),
(457,1196,l),
(460,1319,o),
(513,1387,o),
(538,1410,c),
(479,1473,l),
(345,1378,o),
(345,1242,o),
(340,1084,c)
);
}
);
width = 630;
},
{
layerId = "5D328E58-2F78-4B3D-8E27-494E56F2C351";
name = Bold;
shapes = (
{
closed = 1;
nodes = (
(30,995,l),
(230,995,l),
(230,1183,l),
(133,1197,l),
(136,1319,o),
(189,1387,o),
(214,1410,c),
(165,1473,l),
(31,1379,o),
(30,1240,o),
(30,1084,cs)
);
},
{
closed = 1;
nodes = (
(330,995,l),
(530,995,l),
(530,1183,l),
(427,1196,l),
(430,1319,o),
(483,1387,o),
(508,1410,c),
(459,1473,l),
(325,1378,o),
(335,1242,o),
(330,1084,c)
);
}
);
width = 630;
}
);
unicode = 8220;
},
{
glyphname = quotedblright;
lastChange = "2013-12-31 02:57:01 +0000";
layers = (
{
layerId = "E322F6D1-BA90-436B-BB35-51D9BD3EA9D1";
name = Regular;
shapes = (
{
closed = 1;
nodes = (
(140,991,l),
(300,1104,o),
(277,1284,o),
(281,1464,c),
(60,1464,l),
(60,1292,ls),
(60,1291,o),
(150,1273,o),
(150,1274,c),
(147,1154,o),
(96,1077,o),
(70,1054,c)
);
},
{
closed = 1;
nodes = (
(453,991,l),
(612,1103,o),
(606,1285,o),
(611,1464,c),
(391,1464,l),
(391,1292,l),
(472,1273,l),
(469,1152,o),
(417,1075,o),
(392,1054,c)
);
}
);
width = 631;
},
{
layerId = "5D328E58-2F78-4B3D-8E27-494E56F2C351";
name = Bold;
shapes = (
{
closed = 1;
nodes = (
(160,991,l),
(320,1104,o),
(297,1284,o),
(301,1464,c),
(100,1464,l),
(100,1292,ls),
(100,1291,o),
(190,1273,o),
(190,1274,c),
(187,1154,o),
(136,1077,o),
(110,1054,c)
);
},
{
closed = 1;
nodes = (
(453,991,l),
(612,1103,o),
(596,1285,o),
(601,1464,c),
(401,1464,l),
(401,1292,l),
(482,1273,l),
(479,1152,o),
(427,1075,o),
(402,1054,c)
);
}
);
width = 631;
}
);
unicode = 8221;
},
{
glyphname = quotesinglbase;
lastChange = "2013-12-31 02:57:01 +0000";
layers = (
{
layerId = "E322F6D1-BA90-436B-BB35-51D9BD3EA9D1";
name = Regular;
shapes = (
{
closed = 1;
nodes = (
(189,-382,l),
(349,-269,o),
(346,-87,o),
(350,93,c),
(118,93,l),
(118,-81,ls),
(118,-82,o),
(199,-99,o),
(199,-99,c),
(196,-219,o),
(145,-296,o),
(120,-319,c)
);
}
);
width = 436;
},
{
layerId = "5D328E58-2F78-4B3D-8E27-494E56F2C351";
name = Bold;
shapes = (
{
closed = 1;
nodes = (
(159,-382,l),
(319,-269,o),
(316,-87,o),
(320,93,c),
(128,93,l),
(128,-81,ls),
(128,-82,o),
(189,-99,o),
(189,-99,c),
(186,-219,o),
(135,-296,o),
(110,-319,c)
);
}
);
width = 436;
}
);
unicode = 8218;
},
{
glyphname = quotedblbase;
lastChange = "2013-12-31 02:57:01 +0000";
layers = (
{
layerId = "E322F6D1-BA90-436B-BB35-51D9BD3EA9D1";
name = Regular;
shapes = (
{
closed = 1;
nodes = (
(159,-382,l),
(319,-269,o),
(316,-87,o),
(320,93,c),
(86,93,l),
(86,-81,l),
(85,-82,o),
(169,-99,o),
(169,-99,c),
(166,-219,o),
(115,-296,o),
(90,-319,c)
);
},
{
closed = 1;
nodes = (
(507,-382,l),
(667,-269,o),
(664,-87,o),
(668,93,c),
(434,93,l),
(434,-81,ls),
(434,-82,o),
(517,-99,o),
(517,-99,c),
(514,-219,o),
(463,-296,o),
(438,-319,c)
);
}
);
width = 744;
},
{
layerId = "5D328E58-2F78-4B3D-8E27-494E56F2C351";
name = Bold;
shapes = (
{
closed = 1;
nodes = (
(159,-382,l),
(319,-269,o),
(316,-87,o),
(320,93,c),
(126,93,l),
(126,-81,l),
(125,-82,o),
(189,-99,o),
(189,-99,c),
(186,-219,o),
(135,-296,o),
(110,-319,c)
);
},
{
closed = 1;
nodes = (
(467,-382,l),
(627,-269,o),
(624,-87,o),
(628,93,c),
(434,93,l),
(434,-81,ls),
(434,-82,o),
(497,-99,o),
(497,-99,c),
(494,-219,o),
(443,-296,o),
(418,-319,c)
);
}
);
width = 744;
}
);
unicode = 8222;
},
{
glyphname = guilsinglleft;
lastChange = "2013-12-31 02:57:01 +0000";
layers = (
{
layerId = "E322F6D1-BA90-436B-BB35-51D9BD3EA9D1";
name = Regular;
shapes = (
{
closed = 1;
nodes = (
(435,251,l),
(435,393,l),
(149,650,l),
(435,909,l),
(435,1050,l),
(51,749,l),
(51,552,l)
);
}
);
width = 528;
},
{
layerId = "5D328E58-2F78-4B3D-8E27-494E56F2C351";
name = Bold;
shapes = (
{
closed = 1;
nodes = (
(498,230,l),
(498,441,l),
(191,650,l),
(498,857,l),
(498,1069,l),
(43,798,l),
(43,501,l)
);
}
);
width = 528;
}
);
unicode = 8249;
},
{
glyphname = guilsinglright;
lastChange = "2013-12-31 02:57:01 +0000";
layers = (
{
layerId = "E322F6D1-BA90-436B-BB35-51D9BD3EA9D1";
name = Regular;
shapes = (
{
closed = 1;
nodes = (
(51,251,l),
(435,552,l),
(435,749,l),
(51,1050,l),
(51,909,l),
(337,650,l),
(51,393,l)
);
}
);
width = 528;
},
{
layerId = "5D328E58-2F78-4B3D-8E27-494E56F2C351";
name = Bold;
shapes = (
{
closed = 1;
nodes = (
(38,230,l),
(493,501,l),
(493,798,l),
(38,1069,l),
(38,857,l),
(345,650,l),
(38,441,l)
);
}
);
width = 528;
}
);
unicode = 8250;
},
{
glyphname = guillemotleft;
lastChange = "2013-12-31 02:57:01 +0000";
layers = (
{
layerId = "E322F6D1-BA90-436B-BB35-51D9BD3EA9D1";
name = Regular;
shapes = (
{
closed = 1;
nodes = (
(498,250,l),
(498,391,l),
(151,650,l),
(498,907,l),
(498,1049,l),
(53,748,l),
(53,551,l)
);
},
{
closed = 1;
nodes = (
(936,250,l),
(936,391,l),
(589,650,l),
(936,907,l),
(936,1049,l),
(491,748,l),
(491,551,l)
);
}
);
width = 946;
},
{
layerId = "5D328E58-2F78-4B3D-8E27-494E56F2C351";
name = Bold;
shapes = (
{
closed = 1;
nodes = (
(448,230,l),
(448,441,l),
(141,650,l),
(448,857,l),
(448,1069,l),
(-7,798,l),
(-7,501,l)
);
},
{
closed = 1;
nodes = (
(938,230,l),
(938,441,l),
(631,650,l),
(938,857,l),
(938,1069,l),
(483,798,l),
(483,501,l)
);
}
);
width = 946;
}
);
unicode = 171;
userData = {
anchors = (
);
b = {
};
com.typemytype.robofont.layerData = {
};
components = (
);
contours = (
);
lib = {
};
name = guillemotleft;
unicodes = (
);
width = 946;
};
},
{
glyphname = guillemotright;
lastChange = "2013-12-31 02:57:01 +0000";
layers = (
{
layerId = "E322F6D1-BA90-436B-BB35-51D9BD3EA9D1";
name = Regular;
shapes = (
{
closed = 1;
nodes = (
(53,250,l),
(498,551,l),
(498,748,l),
(53,1049,l),
(53,907,l),
(400,650,l),
(53,391,l)
);
},
{
closed = 1;
nodes = (
(491,250,l),
(936,551,l),
(936,748,l),
(491,1049,l),
(491,907,l),
(838,650,l),
(491,391,l)
);
}
);
width = 946;
},
{
layerId = "5D328E58-2F78-4B3D-8E27-494E56F2C351";
name = Bold;
shapes = (
{
closed = 1;
nodes = (
(-7,230,l),
(448,501,l),
(448,798,l),
(-7,1069,l),
(-7,857,l),
(300,650,l),
(-7,441,l)
);
},
{
closed = 1;
nodes = (
(483,230,l),
(938,501,l),
(938,798,l),
(483,1069,l),
(483,857,l),
(790,650,l),
(483,441,l)
);
}
);
width = 946;
}
);
unicode = 187;
userData = {
com.typemytype.robofont.layerData = {
};
};
},
{
glyphname = asterisk;
lastChange = "2013-12-31 02:57:01 +0000";
layers = (
{
layerId = "E322F6D1-BA90-436B-BB35-51D9BD3EA9D1";
name = Regular;
shapes = (
{
closed = 1;
nodes = (
(364,763,l),
(460,763,l),
(451,1051,l),
(708,896,l),
(753,984,l),
(486,1114,l),
(752,1244,l),
(707,1332,l),
(451,1177,l),
(460,1464,l),
(364,1464,l),
(373,1176,l),
(116,1331,l),
(71,1243,l),
(338,1113,l),
(72,983,l),
(117,895,l),
(373,1050,l)
);
}
);
width = 826;
},
{
layerId = "5D328E58-2F78-4B3D-8E27-494E56F2C351";
name = Bold;
shapes = (
{
closed = 1;
nodes = (
(361,753,l),
(474,753,l),
(467,1032,l),
(723,876,l),
(780,984,l),
(514,1114,l),
(779,1244,l),
(722,1352,l),
(467,1200,l),
(474,1474,l),
(361,1474,l),
(367,1199,l),
(111,1351,l),
(54,1243,l),
(320,1113,l),
(55,983,l),
(112,875,l),
(367,1031,l)
);
}
);
width = 826;
}
);
unicode = 42;
userData = {
com.typemytype.robofont.layerData = {
};
};
},
{
glyphname = period;
lastChange = "2013-12-31 02:57:01 +0000";
layers = (
{
layerId = "E322F6D1-BA90-436B-BB35-51D9BD3EA9D1";
name = Regular;
shapes = (
{
closed = 1;
nodes = (
(135,0,l),
(299,0,l),
(299,215,l),
(135,215,l)
);
}
);
width = 434;
},
{
layerId = "5D328E58-2F78-4B3D-8E27-494E56F2C351";
name = Bold;
shapes = (
{
closed = 1;
nodes = (
(85,0,l),
(345,0,l),
(345,240,l),
(85,240,l)
);
}
);
width = 434;
}
);
unicode = 46;
},
{
glyphname = comma;
lastChange = "2013-12-31 02:57:01 +0000";
layers = (
{
layerId = "E322F6D1-BA90-436B-BB35-51D9BD3EA9D1";
name = Regular;
shapes = (
{
closed = 1;
nodes = (
(163,-254,l),
(305,-163,o),
(305,-24,o),
(310,134,c),
(310,219,l),
(90,219,l),
(90,29,l),
(184,16,l),
(181,-105,o),
(129,-172,o),
(104,-192,c)
);
}
);
width = 445;
},
{
layerId = "5D328E58-2F78-4B3D-8E27-494E56F2C351";
name = Bold;
shapes = (
{
closed = 1;
nodes = (
(182,-295,l),
(324,-214,o),
(355,-103,o),
(355,95,cs),
(355,240,l),
(85,240,l),
(85,0,l),
(204,-13,l),
(204,-92,o),
(144,-172,o),
(111,-203,c)
);
}
);
width = 445;
}
);
unicode = 44;
},
{
glyphname = colon;
lastChange = "2013-12-31 02:57:01 +0000";
layers = (
{
layerId = "E322F6D1-BA90-436B-BB35-51D9BD3EA9D1";
name = Regular;
shapes = (
{
closed = 1;
nodes = (
(159,171,l),
(332,171,l),
(332,387,l),
(159,387,l)
);
},
{
closed = 1;
nodes = (
(159,808,l),
(332,808,l),
(332,1024,l),
(159,1024,l)
);
}
);
width = 482;
},
{
layerId = "5D328E58-2F78-4B3D-8E27-494E56F2C351";
name = Bold;
shapes = (
{
closed = 1;
nodes = (
(116,171,l),
(375,171,l),
(375,408,l),
(116,408,l)
);
},
{
closed = 1;
nodes = (
(116,808,l),
(375,808,l),
(375,1047,l),
(116,1047,l)
);
}
);
width = 482;
}
);
unicode = 58;
},
{
glyphname = semicolon;
lastChange = "2013-12-31 02:57:01 +0000";
layers = (
{
layerId = "E322F6D1-BA90-436B-BB35-51D9BD3EA9D1";
name = Regular;
shapes = (
{
closed = 1;
nodes = (
(213,-254,l),
(345,-163,o),
(345,-24,o),
(350,134,c),
(350,219,l),
(130,219,l),
(130,29,l),
(224,16,l),
(221,-105,o),
(169,-162,o),
(144,-182,c)
);
},
{
closed = 1;
nodes = (
(149,808,l),
(342,808,l),
(342,1024,l),
(149,1024,l)
);
}
);
width = 478;
},
{
layerId = "5D328E58-2F78-4B3D-8E27-494E56F2C351";
name = Bold;
shapes = (
{
closed = 1;
nodes = (
(220,-295,l),
(362,-214,o),
(393,-103,o),
(393,95,cs),
(393,240,l),
(123,240,l),
(123,0,l),
(242,-13,l),
(242,-92,o),
(182,-172,o),
(149,-203,c)
);
},
{
closed = 1;
nodes = (
(116,808,l),
(375,808,l),
(375,1047,l),
(116,1047,l)
);
}
);
width = 478;
}
);
unicode = 59;
},
{
glyphname = exclam;
lastChange = "2013-12-31 02:57:01 +0000";
layers = (
{
layerId = "E322F6D1-BA90-436B-BB35-51D9BD3EA9D1";
name = Regular;
shapes = (
{
closed = 1;
nodes = (
(148,0,l),
(292,0,l),
(292,177,l),
(148,177,l)
);
},
{
closed = 1;
nodes = (
(191,325,l),
(250,325,l),
(309,1464,l),
(136,1464,l)
);
}
);
width = 428;
},
{
layerId = "5D328E58-2F78-4B3D-8E27-494E56F2C351";
name = Bold;
shapes = (
{
closed = 1;
nodes = (
(117,0,l),
(334,0,l),
(334,217,l),
(117,217,l)
);
},
{
closed = 1;
nodes = (
(181,349,l),
(267,349,l),
(349,1464,l),
(87,1464,l)
);
}
);
width = 428;
}
);
unicode = 33;
userData = {
com.typemytype.robofont.layerData = {
};
};
},
{
glyphname = question;
lastChange = "2013-12-31 02:57:01 +0000";
layers = (
{
layerId = "E322F6D1-BA90-436B-BB35-51D9BD3EA9D1";
name = Regular;
shapes = (
{
closed = 1;
nodes = (
(363,358,c),
(491,357,l),
(749,754,o),
(941,805,o),
(941,1094,cs),
(941,1286,o),
(816,1491,o),
(497,1491,cs),
(335,1491,o),
(154,1439,o),
(35,1250,c),
(134,1177,l),
(164,1222.61,o),
(269,1374,o),
(488,1374,cs),
(723,1374,o),
(795,1227,o),
(795,1089,cs),
(795,828,o),
(620,791,o)
);
},
{
closed = 1;
nodes = (
(350,0,l),
(514,0,l),
(514,215,l),
(350,215,l)
);
}
);
width = 1010;
},
{
layerId = "5D328E58-2F78-4B3D-8E27-494E56F2C351";
name = Bold;
shapes = (
{
closed = 1;
nodes = (
(332,358,c),
(526,358,l),
(734,715,o),
(941,805,o),
(941,1094,cs),
(941,1296,o),
(816,1491,o),
(497,1491,cs),
(327,1491,o),
(154,1440,o),
(35,1251,c),
(184,1143,l),
(214,1189,o),
(305,1316,o),
(488,1316,cs),
(659,1316,o),
(722,1227,o),
(722,1089,cs),
(722,841,o),
(538,775,o)
);
},
{
closed = 1;
nodes = (
(315,0,l),
(557,0,l),
(557,235,l),
(315,235,l)
);
}
);
width = 1010;
}
);
unicode = 63;
userData = {
com.typemytype.robofont.layerData = {
};
};
},
{
glyphname = slash;
lastChange = "2013-12-31 02:57:01 +0000";
layers = (
{
layerId = "E322F6D1-BA90-436B-BB35-51D9BD3EA9D1";
name = Regular;
shapes = (
{
closed = 1;
nodes = (
(152,-35,l),
(575,1507,l),
(458,1534,l),
(43,-8,l)
);
}
);
width = 592;
},
{
layerId = "5D328E58-2F78-4B3D-8E27-494E56F2C351";
name = Bold;
shapes = (
{
closed = 1;
nodes = (
(203,-47,l),
(632,1495,l),
(458,1534,l),
(43,-8,l)
);
}
);
width = 592;
}
);
unicode = 47;
},
{
glyphname = backslash;
lastChange = "2013-12-31 02:57:01 +0000";
layers = (
{
layerId = "E322F6D1-BA90-436B-BB35-51D9BD3EA9D1";
name = Regular;
shapes = (
{
closed = 1;
nodes = (
(443,-5,l),
(588,-5,l),
(191,1464,l),
(46,1464,l)
);
}
);
width = 632;
},
{
layerId = "5D328E58-2F78-4B3D-8E27-494E56F2C351";
name = Bold;
shapes = (
{
closed = 1;
nodes = (
(433,-5,l),
(651,-5,l),
(254,1464,l),
(36,1464,l)
);
}
);
width = 632;
}
);
unicode = 92;
},
{
glyphname = bar;
lastChange = "2013-12-31 02:57:01 +0000";
layers = (
{
layerId = "E322F6D1-BA90-436B-BB35-51D9BD3EA9D1";
name = Regular;
shapes = (
{
closed = 1;
nodes = (
(135,-197,l),
(281,-197,l),
(281,1502,l),
(135,1502,l)
);
}
);
width = 416;
},
{
layerId = "5D328E58-2F78-4B3D-8E27-494E56F2C351";
name = Bold;
shapes = (
{
closed = 1;
nodes = (
(105,-197,l),
(325,-197,l),
(325,1502,l),
(105,1502,l)
);
}
);
width = 416;
}
);
unicode = 124;
},
{
glyphname = brokenbar;
lastChange = "2013-12-31 02:57:01 +0000";
layers = (
{
layerId = "E322F6D1-BA90-436B-BB35-51D9BD3EA9D1";
name = Regular;
shapes = (
{
closed = 1;
nodes = (
(135,-198,l),
(281,-198,l),
(281,463,l),
(135,463,l)
);
},
{
closed = 1;
nodes = (
(135,853,l),
(281,853,l),
(281,1504,l),
(135,1504,l)
);
}
);
width = 416;
},
{
layerId = "5D328E58-2F78-4B3D-8E27-494E56F2C351";
name = Bold;
shapes = (
{
closed = 1;
nodes = (
(101,-198,l),
(321,-198,l),
(321,473,l),
(101,473,l)
);
},
{
closed = 1;
nodes = (
(101,843,l),
(321,843,l),
(321,1504,l),
(101,1504,l)
);
}
);
width = 416;
}
);
unicode = 166;
userData = {
com.typemytype.robofont.layerData = {
};
};
},
{
glyphname = at;
lastChange = "2013-12-31 02:57:01 +0000";
layers = (
{
layerId = "E322F6D1-BA90-436B-BB35-51D9BD3EA9D1";
name = Regular;
shapes = (
{
closed = 1;
nodes = (
(842,-14,cs),
(974,-14,o),
(1123,17,o),
(1288,100,c),
(1246,183,l),
(1094,114,o),
(955,88,o),
(839,88,cs),
(425,88,o),
(240,371,o),
(240,676,cs),
(240,1004,o),
(488,1360,o),
(886,1360,cs),
(1189,1360,o),
(1473,1156,o),
(1473,817,cs),
(1473,499,o),
(1373,390,o),
(1277,397,cs),
(1198,403,o),
(1163,486,o),
(1177,569,cs),
(1268,1126,l),
(1169,1126,l),
(1145,1053,l),
(1045,1120,o),
(959,1150,o),
(874,1150,cs),
(622,1150,o),
(445,888,o),
(445,634,cs),
(445,451,o),
(549,282,o),
(764,276,cs),
(902,272,o),
(1053,373,o),
(1100,531,c),
(1101,365,o),
(1200,315,o),
(1256,309,cs),
(1435,290,o),
(1591,484,o),
(1591,805,cs),
(1591,1197,o),
(1256,1465,o),
(883,1465,cs),
(393,1465,o),
(114,1064,o),
(114,685,cs),
(114,326,o),
(340,-14,o)
);
},
{
closed = 1;
nodes = (
(779,372,cs),
(634,372,o),
(570,498,o),
(570,631,cs),
(570,864,o),
(695,1055,o),
(886,1055,cs),
(957,1055,o),
(1037,1030,o),
(1123,972,c),
(1080,716,ls),
(1032,428,o),
(869,372,o)
);
}
);
width = 1704;
},
{
layerId = "5D328E58-2F78-4B3D-8E27-494E56F2C351";
name = Bold;
shapes = (
{
closed = 1;
nodes = (
(842,-223,cs),
(1014,-223,o),
(1161,-179,o),
(1288,-105,c),
(1221,19,l),
(1163,-15,o),
(1017,-71,o),
(849,-71,cs),
(440,-71,o),
(274,171,o),
(274,467,cs),
(274,755,o),
(508,1097,o),
(886,1097,cs),
(1186,1097,o),
(1443,938,o),
(1443,608,cs),
(1443,339,o),
(1373,241,o),
(1276,241,cs),
(1223,241,o),
(1182,264,o),
(1191,326,cs),
(1280,917,l),
(1135,917,l),
(1105,844,l),
(1046,900,o),
(951,940,o),
(866,940,cs),
(614,940,o),
(425,679,o),
(425,425,cs),
(425,242,o),
(549,75,o),
(764,67,cs),
(892,62,o),
(1018,140,o),
(1073,239,c),
(1102,132,o),
(1202,106,o),
(1258,106,cs),
(1442,106,o),
(1621,275,o),
(1621,596,cs),
(1621,998,o),
(1277,1256,o),
(883,1256,cs),
(383,1256,o),
(84,865,o),
(84,476,cs),
(84,97,o),
(320,-223,o)
);
},
{
closed = 1;
nodes = (
(783,211,cs),
(687,211,o),
(614,295,o),
(614,422,cs),
(614,655,o),
(732,799,o),
(879,799,cs),
(950,799,o),
(1018,771,o),
(1073,724,c),
(1039,504,ls),
(1001,259,o),
(873,211,o)
);
}
);
width = 1704;
}
);
unicode = 64;
userData = {
com.typemytype.robofont.layerData = {
};
};
},
{
glyphname = ampersand;
lastChange = "2013-12-31 02:57:01 +0000";
layers = (
{
layerId = "E322F6D1-BA90-436B-BB35-51D9BD3EA9D1";
name = Regular;
shapes = (
{
closed = 1;
nodes = (
(1284,-24,l),
(1371,61,l),
(548,982,ls),
(479,1060,o),
(456,1141,o),
(460,1210,cs),
(466,1314,o),
(569,1374,o),
(678,1374,cs),
(782,1374,o),
(882,1315,o),
(882,1205,cs),
(882,1116,o),
(816,1000,o),
(548,893,cs),
(221,762,o),
(98,615,o),
(98,409,cs),
(98,169,o),
(292,-25,o),
(582,-25,cs),
(897,-25,o),
(1248,178,o),
(1311,782,c),
(1188,801,l),
(1150,399,o),
(943,93,o),
(603,93,cs),
(350,93,o),
(244,254,o),
(244,415,cs),
(244,557,o),
(318,669,o),
(617,811,cs),
(817,906,o),
(1010,1017,o),
(1010,1211,cs),
(1010,1393,o),
(861,1491,o),
(673,1491,cs),
(495,1491,o),
(331,1392,o),
(325,1210,cs),
(322,1112,o),
(354,1024,o),
(428,940,cs)
);
}
);
width = 1430;
},
{
layerId = "5D328E58-2F78-4B3D-8E27-494E56F2C351";
name = Bold;
shapes = (
{
closed = 1;
nodes = (
(1278,-35,l),
(1414,87,l),
(592,1008,ls),
(534,1073,o),
(510,1141,o),
(518,1208,cs),
(524,1262,o),
(579,1316,o),
(678,1316,cs),
(771,1316,o),
(825,1260,o),
(831,1205,cs),
(838,1143,o),
(824,1039,o),
(525,923,cs),
(229,808,o),
(102,661,o),
(98,420,cs),
(94,173,o),
(292,-25,o),
(582,-25,cs),
(857,-25,o),
(1236,91,o),
(1332,777,c),
(1150,803,l),
(1076,298,o),
(851,151,o),
(615,151,cs),
(403,151,o),
(321,270,o),
(316,421,cs),
(311,560,o),
(371,677,o),
(637,804,cs),
(947,952,o),
(1023,1038,o),
(1023,1211,cs),
(1023,1393,o),
(861,1491,o),
(673,1491,cs),
(489,1491,o),
(327,1392,o),
(316,1210,cs),
(310,1114,o),
(333,1036,o),
(405,955,cs)
);
}
);
width = 1430;
}
);
unicode = 38;
userData = {
anchors = (
);
b = {
};
com.typemytype.robofont.layerData = {
};
components = (
);
contours = {
};
lib = {
};
name = ampersand;
points = {
};
segmentType = line;
unicodes = (
);
width = 1430;
x = 1010;
y = 1044;
};
},
{
glyphname = section;
lastChange = "2013-12-31 02:57:01 +0000";
layers = (
{
layerId = "E322F6D1-BA90-436B-BB35-51D9BD3EA9D1";
name = Regular;
shapes = (
{
closed = 1;
nodes = (
(531,-25,cs),
(751,-25,o),
(883,68,o),
(900,253,cs),
(909,350,o),
(850,432,o),
(775,482,c),
(850,565,o),
(873,647,o),
(873,714,cs),
(873,1022,o),
(310,985,o),
(303,1198,cs),
(299,1314,o),
(374,1378,o),
(527,1378,cs),
(659,1378,o),
(731,1340.17,o),
(793,1229,c),
(793,1230,o),
(884,1286,o),
(884,1286,c),
(810,1437.7,o),
(704,1491,o),
(527,1491,cs),
(308,1491,o),
(164,1391,o),
(164,1210,cs),
(164,1092,o),
(239,1027,o),
(307,986,c),
(212,898,o),
(176,823,o),
(174,755,cs),
(166,437,o),
(812,499,o),
(774,251,cs),
(758,144,o),
(681,93,o),
(536,93,cs),
(374,93,o),
(273,162.478,o),
(229,310,c),
(127,273,l),
(165,49,o),
(366,-25,o)
);
},
{
closed = 1;
nodes = (
(677,532,c),
(425,652,o),
(155,655,o),
(391,939,c),
(686.513,825.234,o),
(838.163,807.767,o)
);
}
);
width = 1005;
},
{
layerId = "5D328E58-2F78-4B3D-8E27-494E56F2C351";
name = Bold;
shapes = (
{
closed = 1;
nodes = (
(541,-24,cs),
(772,-24,o),
(918,76,o),
(918,265,cs),
(918,367,o),
(846,433,o),
(771,483,c),
(875,588,o),
(878,645,o),
(885,712,cs),
(914,994,o),
(345,1060,o),
(358,1215,c),
(360,1274,o),
(414,1317,o),
(529,1319,cs),
(611,1320,o),
(691,1304,o),
(747,1198,c),
(747,1199,o),
(884,1284,o),
(884,1284,c),
(812,1436,o),
(707,1489,o),
(530,1489,cs),
(311,1489,o),
(147,1391,o),
(147,1203,cs),
(147,1085,o),
(225,1028,o),
(293,987,c),
(179,895,o),
(155,823,o),
(154,755,cs),
(149,429,o),
(753,406,o),
(728,247,cs),
(720,197,o),
(679,152,o),
(544,152,cs),
(422,152,o),
(329,196,o),
(280,328,c),
(127,273,l),
(168,49,o),
(376,-24,o)
);
},
{
closed = 1;
nodes = (
(622,558,c),
(354,675,o),
(240,725,o),
(418,916,c),
(712,791,o),
(752,739,o)
);
}
);
width = 1005;
}
);
unicode = 167;
userData = {
anchors = (
);
b = {
};
com.typemytype.robofont.layerData = {
};
components = (
);
contours = {
};
lib = {
};
name = section;
points = {
};
segmentType = curve;
unicodes = (
);
width = 1005;
x = 838;
y = 808;
};
},
{
glyphname = paragraph;
lastChange = "2013-12-31 02:57:01 +0000";
layers = (
{
layerId = "E322F6D1-BA90-436B-BB35-51D9BD3EA9D1";
name = Regular;
shapes = (
{
closed = 1;
nodes = (
(469,0,l),
(595,0,l),
(595,1349,l),
(698,1349,l),
(698,0,l),
(824,0,l),
(824,1349,l),
(974,1349,l),
(974,1464,l),
(626,1464,ls),
(186,1464,o),
(109,1303,o),
(109,1124,cs),
(109,928,o),
(254,799,o),
(469,799,c)
);
}
);
width = 1038;
},
{
layerId = "5D328E58-2F78-4B3D-8E27-494E56F2C351";
name = Bold;
shapes = (
{
closed = 1;
nodes = (
(386,0,l),
(575,0,l),
(575,1292,l),
(698,1292,l),
(698,0,l),
(887,0,l),
(887,1292,l),
(1014,1292,l),
(1014,1464,l),
(547,1464,ls),
(147,1464,o),
(57,1305,o),
(57,1126,cs),
(57,930,o),
(173,799,o),
(386,799,c)
);
}
);
width = 1038;
}
);
unicode = 182;
userData = {
com.typemytype.robofont.layerData = {
};
};
},
{
glyphname = periodcentered;
lastChange = "2013-12-31 02:57:01 +0000";
layers = (
{
layerId = "E322F6D1-BA90-436B-BB35-51D9BD3EA9D1";
name = Regular;
shapes = (
{
closed = 1;
nodes = (
(135,543,l),
(299,543,l),
(299,758,l),
(135,758,l)
);
}
);
width = 434;
},
{
layerId = "5D328E58-2F78-4B3D-8E27-494E56F2C351";
name = Bold;
shapes = (
{
closed = 1;
nodes = (
(85,526,l),
(345,526,l),
(345,766,l),
(85,766,l)
);
}
);
width = 434;
}
);
unicode = 183;
},
{
glyphname = plus;
lastChange = "2013-12-31 02:57:01 +0000";
layers = (
{
layerId = "E322F6D1-BA90-436B-BB35-51D9BD3EA9D1";
name = Regular;
shapes = (
{
closed = 1;
nodes = (
(376,350,l),
(478,350,l),
(478,673,l),
(778,673,l),
(778,773,l),
(478,773,l),
(478,1100,l),
(376,1100,l),
(376,773,l),
(72,773,l),
(72,673,l),
(376,673,l)
);
}
);
width = 860;
},
{
layerId = "5D328E58-2F78-4B3D-8E27-494E56F2C351";
name = Bold;
shapes = (
{
closed = 1;
nodes = (
(351,350,l),
(503,350,l),
(503,652,l),
(778,652,l),
(778,802,l),
(503,802,l),
(503,1100,l),
(351,1100,l),
(351,802,l),
(72,802,l),
(72,652,l),
(351,652,l)
);
}
);
width = 860;
}
);
unicode = 43;
},
{
glyphname = minus;
lastChange = "2013-12-31 02:57:01 +0000";
layers = (
{
layerId = "E322F6D1-BA90-436B-BB35-51D9BD3EA9D1";
name = Regular;
shapes = (
{
closed = 1;
nodes = (
(135,670,l),
(803,670,l),
(803,756,l),
(135,756,l)
);
}
);
width = 1024;
},
{
layerId = "5D328E58-2F78-4B3D-8E27-494E56F2C351";
name = Bold;
shapes = (
{
closed = 1;
nodes = (
(135,656,l),
(803,656,l),
(803,780,l),
(135,780,l)
);
}
);
width = 1024;
}
);
unicode = 8722;
},
{
glyphname = plusminus;
lastChange = "2013-12-31 02:57:01 +0000";
layers = (
{
layerId = "E322F6D1-BA90-436B-BB35-51D9BD3EA9D1";
name = Regular;
shapes = (
{
closed = 1;
nodes = (
(379,423,l),
(481,423,l),
(481,673,l),
(730,673,l),
(730,773,l),
(481,773,l),
(481,1023,l),
(379,1023,l),
(379,773,l),
(130,773,l),
(130,673,l),
(379,673,l)
);
},
{
closed = 1;
nodes = (
(129,247,l),
(730,247,l),
(730,333,l),
(129,333,l)
);
}
);
width = 860;
},
{
layerId = "5D328E58-2F78-4B3D-8E27-494E56F2C351";
name = Bold;
shapes = (
{
closed = 1;
nodes = (
(353,423,l),
(505,423,l),
(505,651,l),
(730,651,l),
(730,800,l),
(505,800,l),
(505,1023,l),
(353,1023,l),
(353,800,l),
(128,800,l),
(128,651,l),
(353,651,l)
);
},
{
closed = 1;
nodes = (
(127,212,l),
(730,212,l),
(730,339,l),
(127,339,l)
);
}
);
width = 860;
}
);
unicode = 177;
},
{
glyphname = divide;
lastChange = "2013-12-31 02:57:01 +0000";
layers = (
{
layerId = "E322F6D1-BA90-436B-BB35-51D9BD3EA9D1";
name = Regular;
shapes = (
{
closed = 1;
nodes = (
(392,171,l),
(565,171,l),
(565,385,l),
(392,385,l)
);
},
{
closed = 1;
nodes = (
(100,551,l),
(850,551,l),
(850,649,l),
(100,649,l)
);
},
{
closed = 1;
nodes = (
(392,808,l),
(565,808,l),
(565,1024,l),
(392,1024,l)
);
}
);
width = 1024;
},
{
layerId = "5D328E58-2F78-4B3D-8E27-494E56F2C351";
name = Bold;
shapes = (
{
closed = 1;
nodes = (
(334,171,l),
(595,171,l),
(595,395,l),
(334,395,l)
);
},
{
closed = 1;
nodes = (
(92,527,l),
(842,527,l),
(842,669,l),
(92,669,l)
);
},
{
closed = 1;
nodes = (
(334,798,l),
(595,798,l),
(595,1024,l),
(334,1024,l)
);
}
);
width = 1024;
}
);
unicode = 247;
},
{
glyphname = multiply;
lastChange = "2013-12-31 02:57:01 +0000";
layers = (
{
layerId = "E322F6D1-BA90-436B-BB35-51D9BD3EA9D1";
name = Regular;
shapes = (
{
closed = 1;
nodes = (
(200,193,l),
(367,359,l),
(534,193,l),
(624,283,l),
(458,450,l),
(624,617,l),
(534,707,l),
(367,541,l),
(200,707,l),
(110,617,l),
(276,450,l),
(110,283,l)
);
}
);
width = 734;
},
{
layerId = "5D328E58-2F78-4B3D-8E27-494E56F2C351";
name = Bold;
shapes = (
{
closed = 1;
nodes = (
(202,181,l),
(362,341,l),
(522,181,l),
(641,300,l),
(481,460,l),
(641,620,l),
(522,739,l),
(362,579,l),
(202,739,l),
(83,620,l),
(243,460,l),
(83,300,l)
);
}
);
width = 734;
}
);
unicode = 215;
userData = {
com.typemytype.robofont.layerData = {
};
};
},
{
glyphname = equal;
lastChange = "2013-12-31 02:57:01 +0000";
layers = (
{
layerId = "E322F6D1-BA90-436B-BB35-51D9BD3EA9D1";
name = Regular;
shapes = (
{
closed = 1;
nodes = (
(135,300,l),
(685,300,l),
(685,400,l),
(135,400,l)
);
},
{
closed = 1;
nodes = (
(135,550,l),
(685,550,l),
(685,650,l),
(135,650,l)
);
}
);
width = 820;
},
{
layerId = "5D328E58-2F78-4B3D-8E27-494E56F2C351";
name = Bold;
shapes = (
{
closed = 1;
nodes = (
(135,269,l),
(685,269,l),
(685,416,l),
(135,416,l)
);
},
{
closed = 1;
nodes = (
(135,518,l),
(685,518,l),
(685,665,l),
(135,665,l)
);
}
);
width = 820;
}
);
unicode = 61;
userData = {
com.typemytype.robofont.layerData = {
};
};
},
{
glyphname = less;
lastChange = "2013-12-31 02:57:01 +0000";
layers = (
{
layerId = "E322F6D1-BA90-436B-BB35-51D9BD3EA9D1";
name = Regular;
shapes = (
{
closed = 1;
nodes = (
(998,103,l),
(998,241,l),
(211,525,l),
(998,798,l),
(998,950,l),
(49,595,l),
(49,469,l)
);
}
);
width = 1051;
},
{
layerId = "5D328E58-2F78-4B3D-8E27-494E56F2C351";
name = Bold;
shapes = (
{
closed = 1;
nodes = (
(998,72,l),
(998,280,l),
(288,524,l),
(998,754,l),
(998,983,l),
(49,632,l),
(49,438,l)
);
}
);
width = 1051;
}
);
unicode = 60;
},
{
glyphname = greater;
lastChange = "2013-12-31 02:57:01 +0000";
layers = (
{
layerId = "E322F6D1-BA90-436B-BB35-51D9BD3EA9D1";
name = Regular;
shapes = (
{
closed = 1;
nodes = (
(53,103,l),
(1002,458,l),
(1002,584,l),
(53,950,l),
(53,812,l),
(840,528,l),
(53,255,l)
);
}
);
width = 1051;
},
{
layerId = "5D328E58-2F78-4B3D-8E27-494E56F2C351";
name = Bold;
shapes = (
{
closed = 1;
nodes = (
(49,72,l),
(998,423,l),
(998,617,l),
(49,983,l),
(49,775,l),
(759,531,l),
(49,301,l)
);
}
);
width = 1051;
}
);
unicode = 62;
},
{
glyphname = logicalnot;
lastChange = "2013-12-31 02:57:01 +0000";
layers = (
{
layerId = "E322F6D1-BA90-436B-BB35-51D9BD3EA9D1";
name = Regular;
shapes = (
{
closed = 1;
nodes = (
(803,335,l),
(889,335,l),
(889,756,l),
(135,756,l),
(135,670,l),
(803,670,l)
);
}
);
width = 1024;
},
{
layerId = "5D328E58-2F78-4B3D-8E27-494E56F2C351";
name = Bold;
shapes = (
{
closed = 1;
nodes = (
(782,325,l),
(909,325,l),
(909,756,l),
(135,756,l),
(135,628,l),
(782,628,l)
);
}
);
width = 1024;
}
);
unicode = 172;
},
{
glyphname = dollar;
lastChange = "2013-12-31 02:57:01 +0000";
layers = (
{
layerId = "E322F6D1-BA90-436B-BB35-51D9BD3EA9D1";
name = Regular;
shapes = (
{
closed = 1;
nodes = (
(601,-204,l),
(690,-204,l),
(690,1672,l),
(601,1672,l)
);
},
{
ref = S;
}
);
width = 1216;
},
{
layerId = "5D328E58-2F78-4B3D-8E27-494E56F2C351";
name = Bold;
shapes = (
{
closed = 1;
nodes = (
(581,-204,l),
(713,-204,l),
(713,1672,l),
(581,1672,l)
);
},
{
ref = S;
}
);
width = 1216;
}
);
unicode = 36;
userData = {
anchors = (
);
b = {
};
com.typemytype.robofont.layerData = {
};
components = (
);
contours = {
};
lib = {
};
name = dollar;
points = {
};
segmentType = curve;
unicodes = (
);
width = 1216;
x = 642;
y = "-24";
};
},
{
glyphname = cent;
lastChange = "2013-12-31 02:57:01 +0000";
layers = (
{
layerId = "E322F6D1-BA90-436B-BB35-51D9BD3EA9D1";
name = Regular;
shapes = (
{
closed = 1;
nodes = (
(484,-208,l),
(577,-208,l),
(577,-208,o),
(577,1253,o),
(577,1253,c),
(484,1253,l)
);
},
{
ref = c;
}
);
width = 982;
},
{
layerId = "5D328E58-2F78-4B3D-8E27-494E56F2C351";
name = Bold;
shapes = (
{
closed = 1;
nodes = (
(486,-208,l),
(624,-208,l),
(624,-208,o),
(624,1253,o),
(624,1253,c),
(486,1253,l)
);
},
{
ref = c;
}
);
width = 982;
}
);
unicode = 162;
userData = {
com.typemytype.robofont.layerData = {
};
};
},
{
glyphname = sterling;
lastChange = "2013-12-31 02:57:01 +0000";
layers = (
{
layerId = "E322F6D1-BA90-436B-BB35-51D9BD3EA9D1";
name = Regular;
shapes = (
{
closed = 1;
nodes = (
(219,-26,l),
(419,28,o),
(566,42,o),
(687,42,cs),
(817,42,o),
(878.668,20.512,o),
(979,0,c),
(1007,116,l),
(939,139,o),
(822,168,o),
(742,168,cs),
(618,168,o),
(493,159,o),
(310,92,c),
(357,181,o),
(403,311,o),
(399,492,cs),
(398,546,o),
(387,623,o),
(381,695,c),
(773,695,l),
(773,797,l),
(374,797,l),
(369,854,o),
(355,955,o),
(355,1007,cs),
(355,1257.85,o),
(447,1374,o),
(651,1374,cs),
(733,1374,o),
(848,1350.87,o),
(884,1134,c),
(1003,1152,l),
(971,1365.26,o),
(876,1491,o),
(645,1491,cs),
(359,1491,o),
(215,1321.33,o),
(215,988,cs),
(215,942,o),
(229,847,o),
(233,797,c),
(66,797,l),
(66,695,l),
(242,695,l),
(250,634,o),
(266,558,o),
(266,509,cs),
(266,312,o),
(219,178,o),
(159,57,c)
);
}
);
width = 1168;
},
{
layerId = "5D328E58-2F78-4B3D-8E27-494E56F2C351";
name = Bold;
shapes = (
{
closed = 1;
nodes = (
(219,-26,l),
(431,17,o),
(555.553,42,o),
(677,42,cs),
(807.432,42,o),
(878.668,20.512,o),
(979,0,c),
(1020,176,l),
(932,199,o),
(849,230,o),
(739,230,cs),
(615,230,o),
(535,214,o),
(352,147,c),
(392,226,o),
(449,318,o),
(449,502,cs),
(449,556,o),
(441,604,o),
(435,676,c),
(773,676,l),
(773,829,l),
(426,829,l),
(421,886,o),
(409,955,o),
(409,1007,cs),
(409,1221,o),
(484,1313,o),
(651,1313,cs),
(733,1313,o),
(790,1295,o),
(826,1126,c),
(1003,1152,l),
(971,1372,o),
(878,1489,o),
(645,1489,cs),
(359,1489,o),
(199,1321,o),
(199,988,cs),
(199,942,o),
(211,879,o),
(215,829,c),
(52,829,l),
(52,676,l),
(228,676,l),
(237,636,o),
(250,574,o),
(250,525,cs),
(250,341,o),
(173,172,o),
(125,97,c)
);
}
);
width = 1168;
}
);
unicode = 163;
userData = {
com.typemytype.robofont.layerData = {
};
};
},
{
glyphname = currency;
lastChange = "2013-12-31 02:57:01 +0000";
layers = (
{
layerId = "E322F6D1-BA90-436B-BB35-51D9BD3EA9D1";
name = Regular;
shapes = (
{
closed = 1;
nodes = (
(190,197,l),
(324,350,l),
(379,309,o),
(449,284,o),
(535,284,cs),
(641,284,o),
(722,322,o),
(780,381,c),
(934,246,l),
(990,309,l),
(831,449,l),
(866,510,o),
(883,581,o),
(883,653,cs),
(883,740,o),
(857,828,o),
(805,896,c),
(942,1052,l),
(878,1108,l),
(745,956,l),
(691,998,o),
(620,1023,o),
(534,1023,cs),
(427,1023,o),
(345,985,o),
(287,926,c),
(134,1061,l),
(78,997,l),
(236,859,l),
(200,799,o),
(183,727,o),
(183,656,cs),
(183,568,o),
(210,479,o),
(264,410,c),
(126,253,l)
);
},
{
closed = 1;
nodes = (
(536,385,cs),
(385,385,o),
(303,516,o),
(303,655,cs),
(303,794,o),
(386,925,o),
(535,925,cs),
(684,925,o),
(769,796,o),
(769,658,cs),
(769,518,o),
(681,385,o)
);
}
);
width = 1068;
},
{
layerId = "5D328E58-2F78-4B3D-8E27-494E56F2C351";
name = Bold;
shapes = (
{
closed = 1;
nodes = (
(190,197,l),
(324,350,l),
(379,309,o),
(449,284,o),
(535,284,cs),
(641,284,o),
(722,322,o),
(780,381,c),
(934,246,l),
(990,309,l),
(831,449,l),
(866,510,o),
(883,581,o),
(883,653,cs),
(883,740,o),
(857,828,o),
(805,896,c),
(942,1052,l),
(878,1108,l),
(745,956,l),
(691,998,o),
(620,1023,o),
(534,1023,cs),
(427,1023,o),
(345,985,o),
(287,926,c),
(134,1061,l),
(78,997,l),
(236,859,l),
(200,799,o),
(183,727,o),
(183,656,cs),
(183,568,o),
(210,479,o),
(264,410,c),
(126,253,l)
);
},
{
closed = 1;
nodes = (
(536,385,cs),
(385,385,o),
(303,516,o),
(303,655,cs),
(303,794,o),
(386,925,o),
(535,925,cs),
(684,925,o),
(769,796,o),
(769,658,cs),
(769,518,o),
(681,385,o)
);
}
);
width = 1068;
}
);
unicode = 164;
},
{
glyphname = yen;
lastChange = "2013-12-31 02:57:01 +0000";
layers = (
{
layerId = "E322F6D1-BA90-436B-BB35-51D9BD3EA9D1";
name = Regular;
shapes = (
{
closed = 1;
nodes = (
(256,334,l),
(256,334,o),
(910,334,o),
(910,334,c),
(910,420,l),
(910,420,o),
(256,420,o),
(256,420,c)
);
},
{
closed = 1;
nodes = (
(256,544,l),
(256,544,o),
(910,544,o),
(910,544,c),
(910,630,l),
(910,630,o),
(256,630,o),
(256,630,c)
);
},
{
ref = Y;
}
);
width = 1162;
},
{
layerId = "5D328E58-2F78-4B3D-8E27-494E56F2C351";
name = Bold;
shapes = (
{
closed = 1;
nodes = (
(216,304,l),
(216,304,o),
(950,304,o),
(950,304,c),
(950,432,l),
(950,432,o),
(216,432,o),
(216,432,c)
);
},
{
closed = 1;
nodes = (
(216,542,l),
(216,542,o),
(950,542,o),
(950,542,c),
(950,669,l),
(950,669,o),
(216,669,o),
(216,669,c)
);
},
{
ref = Y;
}
);
width = 1162;
}
);
unicode = 165;
userData = {
com.typemytype.robofont.layerData = {
};
};
},
{
glyphname = asciicircum;
lastChange = "2013-12-31 02:57:01 +0000";
layers = (
{
layerId = "E322F6D1-BA90-436B-BB35-51D9BD3EA9D1";
name = Regular;
shapes = (
{
closed = 1;
nodes = (
(103,100,l),
(241,100,l),
(525,837,l),
(798,100,l),
(950,100,l),
(595,999,l),
(469,999,l)
);
}
);
width = 1053;
},
{
layerId = "5D328E58-2F78-4B3D-8E27-494E56F2C351";
name = Bold;
shapes = (
{
closed = 1;
nodes = (
(73,100,l),
(280,100,l),
(520,761,l),
(758,100,l),
(987,100,l),
(625,999,l),
(434,999,l)
);
}
);
width = 1053;
}
);
unicode = 94;
},
{
glyphname = asciitilde;
lastChange = "2013-12-31 02:57:01 +0000";
layers = (
{
layerId = "E322F6D1-BA90-436B-BB35-51D9BD3EA9D1";
name = Regular;
shapes = (
{
closed = 1;
nodes = (
(758,694,cs),
(865,685,o),
(932,754,o),
(941,946,c),
(822,946,l),
(804,855,o),
(800,826,o),
(743,826,cs),
(669,826,o),
(338,941,o),
(226,950,cs),
(134,957,o),
(36,944,o),
(21,707,c),
(139,707,l),
(160,818,o),
(185,825,o),
(217,825,cs),
(314,825,o),
(606,707,o)
);
}
);
width = 962;
},
{
layerId = "5D328E58-2F78-4B3D-8E27-494E56F2C351";
name = Bold;
shapes = (
{
closed = 1;
nodes = (
(787,670,cs),
(894,676,o),
(942,784,o),
(951,976,c),
(773,976,l),
(755,905,o),
(751,876,o),
(694,876,cs),
(620,876,o),
(357,986,o),
(205,976,cs),
(113,970,o),
(26,914,o),
(11,677,c),
(189,677,l),
(210,768,o),
(235,775,o),
(267,775,cs),
(364,775,o),
(595,660,o)
);
}
);
width = 962;
}
);
unicode = 126;
userData = {
com.typemytype.robofont.layerData = {
};
};
},
{
glyphname = acute;
lastChange = "2013-12-31 02:57:01 +0000";
layers = (
{
anchors = (
{
name = _top;
pos = (144,1023);
}
);
layerId = "E322F6D1-BA90-436B-BB35-51D9BD3EA9D1";
name = Regular;
shapes = (
{
closed = 1;
nodes = (
(75,1155,l),
(169,1154,l),
(475,1474,l),
(280,1474,l)
);
}
);
width = 496;
},
{
anchors = (
{
name = _top;
pos = (89,1023);
}
);
layerId = "5D328E58-2F78-4B3D-8E27-494E56F2C351";
name = Bold;
shapes = (
{
closed = 1;
nodes = (
(5,1144,l),
(146,1144,l),
(497,1464,l),
(207,1464,l)
);
}
);
width = 496;
}
);
unicode = 180;
userData = {
anchors = (
);
b = {
};
com.typemytype.robofont.layerData = {
};
components = (
);
contours = (
);
lib = {
};
name = acute;
unicodes = (
);
width = 496;
};
},
{
glyphname = grave;
lastChange = "2013-12-31 02:57:01 +0000";
layers = (
{
anchors = (
{
name = _top;
pos = (404,1023);
}
);
layerId = "E322F6D1-BA90-436B-BB35-51D9BD3EA9D1";
name = Regular;
shapes = (
{
closed = 1;
nodes = (
(363,1154,l),
(457,1155,l),
(252,1474,l),
(57,1474,l)
);
}
);
width = 496;
},
{
anchors = (
{
name = _top;
pos = (418,1023);
}
);
layerId = "5D328E58-2F78-4B3D-8E27-494E56F2C351";
name = Bold;
shapes = (
{
closed = 1;
nodes = (
(346,1154,l),
(487,1154,l),
(285,1474,l),
(-5,1474,l)
);
}
);
width = 496;
}
);
unicode = 96;
},
{
glyphname = hungarumlaut;
lastChange = "2013-12-31 02:57:01 +0000";
layers = (
{
anchors = (
{
name = _top;
pos = (246,1023);
}
);
layerId = "E322F6D1-BA90-436B-BB35-51D9BD3EA9D1";
name = Regular;
shapes = (
{
closed = 1;
nodes = (
(87,1132,l),
(153,1132,l),
(381,1452,l),
(192,1452,l)
);
},
{
closed = 1;
nodes = (
(355,1132,l),
(428,1132,l),
(685,1452,l),
(490,1452,l)
);
}
);
width = 745;
},
{
anchors = (
{
name = _top;
pos = (250,1023);
}
);
layerId = "5D328E58-2F78-4B3D-8E27-494E56F2C351";
name = Bold;
shapes = (
{
closed = 1;
nodes = (
(47,1134,l),
(145,1134,l),
(391,1474,l),
(112,1474,l)
);
},
{
closed = 1;
nodes = (
(375,1134,l),
(483,1134,l),
(755,1474,l),
(467,1474,l)
);
}
);
width = 745;
}
);
unicode = 733;
},
{
glyphname = circumflex;
lastChange = "2013-12-31 02:57:01 +0000";
layers = (
{
anchors = (
{
name = _top;
pos = (422,1023);
}
);
layerId = "E322F6D1-BA90-436B-BB35-51D9BD3EA9D1";
name = Regular;
shapes = (
{
closed = 1;
nodes = (
(130,1154,l),
(227,1154,l),
(402,1407,l),
(578,1154,l),
(675,1154,l),
(490,1474,l),
(315,1474,l)
);
}
);
width = 838;
},
{
anchors = (
{
name = _top;
pos = (439,1023);
}
);
layerId = "5D328E58-2F78-4B3D-8E27-494E56F2C351";
name = Bold;
shapes = (
{
closed = 1;
nodes = (
(142,1154,l),
(284,1154,l),
(424,1372,l),
(565,1154,l),
(707,1154,l),
(552,1474,l),
(297,1474,l)
);
}
);
width = 838;
}
);
unicode = 710;
userData = {
com.typemytype.robofont.layerData = {
};
};
},
{
glyphname = caron;
lastChange = "2013-12-31 02:57:01 +0000";
layers = (
{
anchors = (
{
name = _top;
pos = (428,1023);
}
);
layerId = "E322F6D1-BA90-436B-BB35-51D9BD3EA9D1";
name = Regular;
shapes = (
{
closed = 1;
nodes = (
(337,1154,l),
(512,1154,l),
(697,1474,l),
(600,1474,l),
(424,1221,l),
(249,1474,l),
(152,1474,l)
);
}
);
width = 838;
},
{
anchors = (
{
name = _top;
pos = (435,1023);
}
);
layerId = "5D328E58-2F78-4B3D-8E27-494E56F2C351";
name = Bold;
shapes = (
{
closed = 1;
nodes = (
(297,1154,l),
(552,1154,l),
(707,1474,l),
(565,1474,l),
(424,1256,l),
(284,1474,l),
(142,1474,l)
);
}
);
width = 838;
}
);
unicode = 711;
userData = {
anchors = (
);
b = {
};
com.typemytype.robofont.layerData = {
};
components = (
);
contours = (
);
lib = {
};
name = caron;
unicodes = (
);
width = 838;
};
},
{
glyphname = breve;
lastChange = "2013-12-31 02:57:01 +0000";
layers = (
{
anchors = (
{
name = _top;
pos = (404,1023);
}
);
layerId = "E322F6D1-BA90-436B-BB35-51D9BD3EA9D1";
name = Regular;
shapes = (
{
closed = 1;
nodes = (
(399,1243,cs),
(546,1243,o),
(671,1318,o),
(675,1498,c),
(559,1498,l),
(559,1391,o),
(499,1346,o),
(399,1346,cs),
(300,1346,o),
(239,1391,o),
(239,1498,c),
(123,1498,l),
(127,1318,o),
(252,1243,o)
);
}
);
width = 805;
},
{
anchors = (
{
name = _top;
pos = (418,1023);
}
);
layerId = "5D328E58-2F78-4B3D-8E27-494E56F2C351";
name = Bold;
shapes = (
{
closed = 1;
nodes = (
(402,1198,cs),
(539,1198,o),
(677,1274,o),
(681,1474,c),
(508,1474,l),
(508,1407,o),
(496,1353,o),
(402,1353,cs),
(308,1353,o),
(296,1407,o),
(296,1474,c),
(123,1474,l),
(127,1274,o),
(265,1198,o)
);
}
);
width = 805;
}
);
unicode = 728;
userData = {
com.typemytype.robofont.layerData = {
};
};
},
{
glyphname = tilde;
lastChange = "2013-12-31 02:57:01 +0000";
layers = (
{
anchors = (
{
name = _top;
pos = (410,1023);
}
);
layerId = "E322F6D1-BA90-436B-BB35-51D9BD3EA9D1";
name = Regular;
shapes = (
{
closed = 1;
nodes = (
(548,1200,cs),
(606,1200,o),
(663,1225,o),
(663,1357,cs),
(663,1368,o),
(663,1380,o),
(662,1393,c),
(565,1393,l),
(565,1337,o),
(561,1297,o),
(530,1297,cs),
(486,1297,o),
(310,1389,o),
(232,1389,cs),
(186,1389,o),
(113,1368,o),
(113,1244,cs),
(113,1230,o),
(114,1215,o),
(116,1198,c),
(212,1198,l),
(212,1258,o),
(225,1286,o),
(249,1286,c),
(308,1282,o),
(454,1200,o)
);
}
);
width = 798;
},
{
anchors = (
{
name = _top;
pos = (418,1023);
}
);
layerId = "5D328E58-2F78-4B3D-8E27-494E56F2C351";
name = Bold;
shapes = (
{
closed = 1;
nodes = (
(595,1192,cs),
(666,1192,o),
(698,1272,o),
(698,1384,cs),
(698,1401,o),
(698,1418,o),
(696,1436,c),
(565,1436,l),
(565,1377,o),
(554,1359,o),
(527,1359,cs),
(450,1359,o),
(349,1443,o),
(224,1443,cs),
(160,1443,o),
(106,1385,o),
(106,1261,cs),
(106,1242,o),
(107,1222,o),
(110,1201,c),
(240,1201,l),
(240,1261,o),
(262,1281,o),
(286,1281,c),
(398,1273,o),
(481,1192,o)
);
}
);
width = 798;
}
);
unicode = 732;
userData = {
com.typemytype.robofont.layerData = {
};
};
},
{
glyphname = macron;
lastChange = "2013-12-31 02:57:01 +0000";
layers = (
{
anchors = (
{
name = _top;
pos = (352,1023);
}
);
layerId = "E322F6D1-BA90-436B-BB35-51D9BD3EA9D1";
name = Regular;
shapes = (
{
closed = 1;
nodes = (
(130,1259,l),
(584,1259,l),
(584,1359,l),
(130,1359,l)
);
}
);
width = 724;
},
{
anchors = (
{
name = _top;
pos = (363,1023);
}
);
layerId = "5D328E58-2F78-4B3D-8E27-494E56F2C351";
name = Bold;
shapes = (
{
closed = 1;
nodes = (
(151,1178,l),
(605,1178,l),
(605,1328,l),
(151,1328,l)
);
}
);
width = 724;
}
);
unicode = 175;
userData = {
com.typemytype.robofont.layerData = {
};
};
},
{
glyphname = dieresis;
lastChange = "2013-12-31 02:57:01 +0000";
layers = (
{
anchors = (
{
name = _top;
pos = (407,1023);
}
);
layerId = "E322F6D1-BA90-436B-BB35-51D9BD3EA9D1";
name = Regular;
shapes = (
{
closed = 1;
nodes = (
(135,1191,l),
(301,1191,l),
(301,1365,l),
(135,1365,l)
);
},
{
closed = 1;
nodes = (
(514,1191,l),
(680,1191,l),
(680,1365,l),
(514,1365,l)
);
}
);
width = 860;
},
{
anchors = (
{
name = _top;
pos = (418,1023);
}
);
layerId = "5D328E58-2F78-4B3D-8E27-494E56F2C351";
name = Bold;
shapes = (
{
closed = 1;
nodes = (
(75,1164,l),
(311,1164,l),
(311,1398,l),
(75,1398,l)
);
},
{
closed = 1;
nodes = (
(524,1164,l),
(760,1164,l),
(760,1398,l),
(524,1398,l)
);
}
);
width = 860;
}
);
unicode = 168;
userData = {
com.typemytype.robofont.layerData = {
};
};
},
{
glyphname = dotaccent;
lastChange = "2013-12-31 02:57:01 +0000";
layers = (
{
anchors = (
{
name = _top;
pos = (221,1023);
}
);
layerId = "E322F6D1-BA90-436B-BB35-51D9BD3EA9D1";
name = Regular;
shapes = (
{
closed = 1;
nodes = (
(146,1231,l),
(290,1231,l),
(290,1446,l),
(146,1446,l)
);
}
);
width = 434;
},
{
anchors = (
{
name = _top;
pos = (221,1023);
}
);
layerId = "5D328E58-2F78-4B3D-8E27-494E56F2C351";
name = Bold;
shapes = (
{
closed = 1;
nodes = (
(106,1234,l),
(324,1234,l),
(324,1474,l),
(106,1474,l)
);
}
);
width = 434;
}
);
unicode = 729;
userData = {
anchors = (
);
b = {
};
com.typemytype.robofont.layerData = {
};
components = (
);
contours = (
);
lib = {
};
name = dotaccent;
unicodes = (
);
width = 434;
};
},
{
glyphname = ring;
lastChange = "2013-12-31 02:57:01 +0000";
layers = (
{
anchors = (
{
name = _top;
pos = (364,1023);
}
);
layerId = "E322F6D1-BA90-436B-BB35-51D9BD3EA9D1";
name = Regular;
shapes = (
{
closed = 1;
nodes = (
(361,1256,c),
(267,1256,o),
(219,1333,o),
(219,1407,c),
(219,1481,o),
(267,1558,o),
(361,1558,c),
(455,1558,o),
(503,1481,o),
(503,1407,c),
(503,1333,o),
(455,1256,o)
);
},
{
closed = 1;
nodes = (
(361,1172,c),
(509,1172,o),
(601,1283,o),
(601,1407,c),
(601,1531,o),
(509,1642,o),
(361,1642,c),
(213,1642,o),
(121,1531,o),
(121,1407,c),
(121,1283,o),
(213,1172,o)
);
}
);
width = 728;
},
{
anchors = (
{
name = _top;
pos = (348,1023);
}
);
layerId = "5D328E58-2F78-4B3D-8E27-494E56F2C351";
name = Bold;
shapes = (
{
closed = 1;
nodes = (
(366,1350,c),
(291,1350,o),
(248,1406,o),
(248,1480,c),
(248,1554,o),
(291,1610,o),
(366,1610,c),
(441,1610,o),
(484,1554,o),
(484,1480,c),
(484,1406,o),
(441,1350,o)
);
},
{
closed = 1;
nodes = (
(366,1225,c),
(534,1225,o),
(628,1347,o),
(628,1480,c),
(628,1613,o),
(534,1735,o),
(366,1735,c),
(198,1735,o),
(104,1613,o),
(104,1480,c),
(104,1347,o),
(198,1225,o)
);
}
);
width = 728;
}
);
unicode = 730;
userData = {
com.typemytype.robofont.layerData = {
};
};
},
{
glyphname = cedilla;
lastChange = "2013-12-31 02:57:01 +0000";
layers = (
{
anchors = (
{
name = _bot;
pos = (252,0);
}
);
layerId = "E322F6D1-BA90-436B-BB35-51D9BD3EA9D1";
name = Regular;
shapes = (
{
closed = 1;
nodes = (
(214,-472,cs),
(313,-472,o),
(350,-363,o),
(350,-271,cs),
(350,-92,l),
(150,-92,l),
(150,-256,l),
(249,-256,l),
(249,-376,o),
(238,-406,o),
(209,-406,cs),
(199,-406,o),
(187,-402,o),
(172,-398,c),
(172,-463,l),
(186,-469,o),
(200,-472,o)
);
}
);
width = 435;
},
{
anchors = (
{
name = _bot;
pos = (249,0);
}
);
layerId = "5D328E58-2F78-4B3D-8E27-494E56F2C351";
name = Bold;
shapes = (
{
closed = 1;
nodes = (
(204,-520,cs),
(324,-520,o),
(380,-411,o),
(380,-319,cs),
(380,-110,l),
(112,-110,l),
(112,-304,l),
(231,-304,l),
(231,-399,o),
(225,-425,o),
(196,-425,cs),
(186,-425,o),
(169,-420,o),
(154,-416,c),
(154,-511,l),
(168,-517,o),
(190,-520,o)
);
}
);
width = 435;
}
);
unicode = 184;
},
{
glyphname = ogonek;
lastChange = "2013-12-31 02:57:01 +0000";
layers = (
{
anchors = (
{
name = _ogonek;
pos = (282,0);
}
);
layerId = "E322F6D1-BA90-436B-BB35-51D9BD3EA9D1";
name = Regular;
shapes = (
{
closed = 1;
nodes = (
(346,-361,c),
(346,-280,l),
(263,-299,o),
(235,-268,o),
(235,-219,cs),
(235,-161,o),
(281,-74,o),
(315,0,c),
(244,0,l),
(179,-88,o),
(120,-166,o),
(117,-241,cs),
(114,-321,o),
(188,-400,o)
);
}
);
width = 462;
},
{
anchors = (
{
name = _ogonek;
pos = (303,0);
}
);
layerId = "5D328E58-2F78-4B3D-8E27-494E56F2C351";
name = Bold;
shapes = (
{
closed = 1;
nodes = (
(396,-379,c),
(396,-260,l),
(313,-279,o),
(292,-247,o),
(292,-202,cs),
(292,-144,o),
(320,-82,o),
(355,0,c),
(254,0,l),
(191,-68,o),
(117,-153,o),
(117,-241,cs),
(117,-321,o),
(195,-427,o)
);
}
);
width = 462;
}
);
unicode = 731;
userData = {
com.typemytype.robofont.layerData = {
};
};
},
{
glyphname = copyright;
lastChange = "2013-12-31 02:57:01 +0000";
layers = (
{
layerId = "E322F6D1-BA90-436B-BB35-51D9BD3EA9D1";
name = Regular;
shapes = (
{
closed = 1;
nodes = (
(858,324,cs),
(994,324,o),
(1096,393,o),
(1140,541,c),
(1074,564,l),
(1041,461,o),
(981,395,o),
(862,395,cs),
(670,395,o),
(606,524,o),
(606,779,c),
(606,1034,o),
(670,1163,o),
(862,1163,cs),
(981,1163,o),
(1041,1097,o),
(1074,994,c),
(1140,1017,l),
(1096,1165,o),
(994,1234,o),
(858,1234,cs),
(644,1234,o),
(525,1103,o),
(525,779,c),
(525,455,o),
(644,324,o)
);
},
{
closed = 1;
nodes = (
(849,98,cs),
(479,98,o),
(179,363,o),
(179,773,cs),
(179,1174,o),
(480,1452,o),
(850,1452,cs),
(1221,1452,o),
(1523,1144,o),
(1523,773,cs),
(1523,403,o),
(1220,98,o)
);
},
{
closed = 1;
nodes = (
(850,53,cs),
(1251,53,o),
(1579,375,o),
(1579,774,cs),
(1579,1175,o),
(1251,1497,o),
(850,1497,cs),
(451,1497,o),
(123,1205,o),
(123,774,cs),
(123,335,o),
(451,53,o)
);
}
);
width = 1702;
},
{
layerId = "5D328E58-2F78-4B3D-8E27-494E56F2C351";
name = Bold;
shapes = (
{
closed = 1;
nodes = (
(856,326,cs),
(998,326,o),
(1095,394,o),
(1138,543,c),
(1041,576,l),
(1008,473,o),
(961,431,o),
(860,431,cs),
(708,431,o),
(642,526,o),
(642,781,c),
(642,1036,o),
(708,1131,o),
(860,1131,cs),
(961,1131,o),
(1008,1089,o),
(1041,986,c),
(1138,1019,l),
(1095,1168,o),
(998,1236,o),
(856,1236,cs),
(642,1236,o),
(523,1105,o),
(523,781,c),
(523,457,o),
(642,326,o)
);
},
{
closed = 1;
nodes = (
(849,118,cs),
(482,118,o),
(204,383,o),
(204,773,cs),
(204,1154,o),
(483,1432,o),
(850,1432,cs),
(1218,1432,o),
(1498,1124,o),
(1498,773,cs),
(1498,423,o),
(1217,118,o)
);
},
{
closed = 1;
nodes = (
(850,53,cs),
(1251,53,o),
(1579,375,o),
(1579,774,cs),
(1579,1175,o),
(1251,1497,o),
(850,1497,cs),
(451,1497,o),
(123,1205,o),
(123,774,cs),
(123,335,o),
(451,53,o)
);
}
);
width = 1702;
}
);
unicode = 169;
userData = {
anchors = (
);
b = {
};
com.typemytype.robofont.layerData = {
};
components = (
);
contours = (
);
lib = {
};
name = copyright;
unicodes = (
);
width = 1702;
};
},
{
glyphname = registered;
lastChange = "2013-12-31 02:57:01 +0000";
layers = (
{
layerId = "E322F6D1-BA90-436B-BB35-51D9BD3EA9D1";
name = Regular;
shapes = (
{
closed = 1;
nodes = (
(1095,379,l),
(1186,379,l),
(1000,793,l),
(1120,825,o),
(1179,900,o),
(1179,1017,cs),
(1179,1173,o),
(1071,1248,o),
(857,1248,cs),
(578,1248,l),
(578,381,l),
(661,381,l),
(661,779,l),
(916,779,l)
);
},
{
closed = 1;
nodes = (
(664,846,l),
(664,1184,l),
(848,1184,ls),
(960,1184,o),
(1092,1169,o),
(1092,1015,cs),
(1092,864,o),
(984,846,o),
(852,846,cs)
);
},
{
closed = 1;
nodes = (
(849,98,cs),
(479,98,o),
(179,363,o),
(179,773,cs),
(179,1174,o),
(480,1452,o),
(850,1452,cs),
(1221,1452,o),
(1523,1144,o),
(1523,773,cs),
(1523,403,o),
(1220,98,o)
);
},
{
closed = 1;
nodes = (
(850,53,cs),
(1251,53,o),
(1579,375,o),
(1579,774,cs),
(1579,1175,o),
(1251,1497,o),
(850,1497,cs),
(451,1497,o),
(123,1205,o),
(123,774,cs),
(123,335,o),
(451,53,o)
);
}
);
width = 1702;
},
{
layerId = "5D328E58-2F78-4B3D-8E27-494E56F2C351";
name = Bold;
shapes = (
{
closed = 1;
nodes = (
(1067,379,l),
(1200,379,l),
(1014,790,l),
(1122,827,o),
(1179,900,o),
(1179,1017,cs),
(1179,1173,o),
(1071,1248,o),
(857,1248,cs),
(578,1248,l),
(578,381,l),
(699,381,l),
(699,770,l),
(892,770,l)
);
},
{
closed = 1;
nodes = (
(702,867,l),
(702,1157,l),
(848,1157,ls),
(960,1157,o),
(1052,1139,o),
(1052,1015,cs),
(1052,864,o),
(947,867,o),
(829,867,cs)
);
},
{
closed = 1;
nodes = (
(849,118,cs),
(482,118,o),
(204,383,o),
(204,773,cs),
(204,1154,o),
(483,1432,o),
(850,1432,cs),
(1218,1432,o),
(1498,1124,o),
(1498,773,cs),
(1498,423,o),
(1217,118,o)
);
},
{
closed = 1;
nodes = (
(850,53,cs),
(1251,53,o),
(1579,375,o),
(1579,774,cs),
(1579,1175,o),
(1251,1497,o),
(850,1497,cs),
(451,1497,o),
(123,1205,o),
(123,774,cs),
(123,335,o),
(451,53,o)
);
}
);
width = 1702;
}
);
unicode = 174;
userData = {
com.typemytype.robofont.layerData = {
};
};
},
{
glyphname = trademark;
lastChange = "2013-12-31 02:57:01 +0000";
layers = (
{
layerId = "E322F6D1-BA90-436B-BB35-51D9BD3EA9D1";
name = Regular;
shapes = (
{
closed = 1;
nodes = (
(938,615,l),
(1044,615,l),
(1044,1276,l),
(1282,731,l),
(1371,731,l),
(1616,1273,l),
(1616,615,l),
(1718,615,l),
(1718,1463,l),
(1593,1463,l),
(1330,878,l),
(1071,1464,l),
(938,1464,l)
);
},
{
closed = 1;
nodes = (
(384,615,l),
(496,615,l),
(496,1381,l),
(757,1381,l),
(757,1464,l),
(116,1464,l),
(116,1381,l),
(384,1381,l)
);
}
);
width = 1847;
},
{
layerId = "5D328E58-2F78-4B3D-8E27-494E56F2C351";
name = Bold;
shapes = (
{
closed = 1;
nodes = (
(912,615,l),
(1069,615,l),
(1069,1188,l),
(1262,731,l),
(1398,731,l),
(1593,1185,l),
(1593,615,l),
(1744,615,l),
(1744,1463,l),
(1557,1463,l),
(1335,945,l),
(1111,1464,l),
(912,1464,l)
);
},
{
closed = 1;
nodes = (
(352,615,l),
(518,615,l),
(518,1341,l),
(757,1341,l),
(757,1464,l),
(116,1464,l),
(116,1341,l),
(352,1341,l)
);
}
);
width = 1847;
}
);
unicode = 8482;
userData = {
com.typemytype.robofont.layerData = {
};
};
},
{
glyphname = degree;
lastChange = "2013-12-31 02:57:01 +0000";
layers = (
{
layerId = "E322F6D1-BA90-436B-BB35-51D9BD3EA9D1";
name = Regular;
shapes = (
{
closed = 1;
nodes = (
(240,1116,c),
(146,1116,o),
(98,1193,o),
(98,1267,c),
(98,1341,o),
(146,1418,o),
(240,1418,c),
(334,1418,o),
(382,1341,o),
(382,1267,c),
(382,1193,o),
(334,1116,o)
);
},
{
closed = 1;
nodes = (
(240,1032,c),
(388,1032,o),
(480,1143,o),
(480,1267,c),
(480,1391,o),
(388,1502,o),
(240,1502,c),
(92,1502,o),
(0,1391,o),
(0,1267,c),
(0,1143,o),
(92,1032,o)
);
}
);
width = 483;
},
{
layerId = "5D328E58-2F78-4B3D-8E27-494E56F2C351";
name = Bold;
shapes = (
{
closed = 1;
nodes = (
(240,1137,c),
(165,1137,o),
(122,1193,o),
(122,1267,c),
(122,1341,o),
(165,1397,o),
(240,1397,c),
(315,1397,o),
(358,1341,o),
(358,1267,c),
(358,1193,o),
(315,1137,o)
);
},
{
closed = 1;
nodes = (
(240,1012,c),
(408,1012,o),
(502,1134,o),
(502,1267,c),
(502,1400,o),
(408,1522,o),
(240,1522,c),
(72,1522,o),
(-22,1400,o),
(-22,1267,c),
(-22,1134,o),
(72,1012,o)
);
}
);
width = 483;
}
);
unicode = 176;
userData = {
com.typemytype.robofont.layerData = {
};
};
},
{
color = (0,0,255,1);
glyphname = lc_ascender_stem;
lastChange = "2013-12-31 02:57:01 +0000";
layers = (
{
layerId = "E322F6D1-BA90-436B-BB35-51D9BD3EA9D1";
name = Regular;
shapes = (
{
closed = 1;
nodes = (
(127,0,l),
(270,0,l),
(270,0,o),
(269,1474,o),
(269,1474,c),
(127,1474,l)
);
}
);
width = 1086;
},
{
layerId = "5D328E58-2F78-4B3D-8E27-494E56F2C351";
name = Bold;
shapes = (
{
closed = 1;
nodes = (
(98,0,l),
(311,0,l),
(311,0,o),
(311,1474,o),
(311,1474,c),
(98,1474,l)
);
}
);
width = 1086;
}
);
userData = {
anchors = (
);
b = {
};
com.typemytype.robofont.layerData = {
};
com.typemytype.robofont.mark = (
0,
0,
1,
1
);
components = (
);
contours = {
};
lib = {
};
name = lc_main_stem;
points = {
};
segmentType = line;
unicodes = (
);
width = 1086;
x = 127;
y = 1023;
};
},
{
color = (0,0,255,1);
glyphname = lc_ascender_stem_2;
lastChange = "2013-12-31 02:57:01 +0000";
layers = (
{
layerId = "E322F6D1-BA90-436B-BB35-51D9BD3EA9D1";
name = Regular;
shapes = (
{
closed = 1;
nodes = (
(128,0,l),
(238,0,l),
(238,0,o),
(270,758,o),
(270,758,c),
(270,1474,l),
(128,1474,l)
);
}
);
width = 1078;
},
{
layerId = "5D328E58-2F78-4B3D-8E27-494E56F2C351";
name = Bold;
shapes = (
{
closed = 1;
nodes = (
(87,0,l),
(250,0,l),
(250,0,o),
(299,735,o),
(299,735,c),
(299,1474,l),
(87,1474,l)
);
}
);
width = 1078;
}
);
userData = {
anchors = (
);
b = {
};
com.typemytype.robofont.layerData = {
};
com.typemytype.robofont.mark = (
0,
0,
1,
1
);
components = (
);
contours = {
};
lib = {
};
name = lc_ascender_stem_2;
points = {
};
segmentType = curve;
unicodes = (
);
width = 1078;
x = 200;
y = 301;
};
},
{
color = (0,0,255,1);
glyphname = lc_ascender_stem_3;
lastChange = "2013-12-31 02:57:01 +0000";
layers = (
{
layerId = "E322F6D1-BA90-436B-BB35-51D9BD3EA9D1";
name = Regular;
shapes = (
{
closed = 1;
nodes = (
(867,0,c),
(977,0,l),
(977,1474,l),
(835,1474,l),
(835,758,l),
(835,758,o),
(867,0,o)
);
}
);
width = 1078;
},
{
layerId = "5D328E58-2F78-4B3D-8E27-494E56F2C351";
name = Bold;
shapes = (
{
closed = 1;
nodes = (
(825,0,c),
(988,0,l),
(988,1474,l),
(776,1474,l),
(776,735,l),
(776,735,o),
(825,0,o)
);
}
);
width = 1078;
}
);
userData = {
anchors = (
);
b = {
};
com.typemytype.robofont.layerData = {
};
com.typemytype.robofont.mark = (
0,
0,
1,
1
);
components = (
);
contours = {
};
lib = {
};
name = lc_ascender_stem_2;
points = {
};
segmentType = curve;
unicodes = (
);
width = 1078;
x = 200;
y = 301;
};
},
{
color = (0,0,255,1);
glyphname = lc_curved_stem;
lastChange = "2013-12-31 02:57:01 +0000";
layers = (
{
anchors = (
{
name = top;
pos = (652,1143);
}
);
layerId = "E322F6D1-BA90-436B-BB35-51D9BD3EA9D1";
name = Regular;
shapes = (
{
closed = 1;
nodes = (
(823,0,l),
(965,0,l),
(965,584,ls),
(965,790,o),
(946,1044,o),
(623,1044,cs),
(371,1044,o),
(228,885,o),
(204,610,c),
(204,610,o),
(269,499,o),
(269,499,cs),
(269,747,o),
(344,942,o),
(603,942,cs),
(780,942,o),
(823,812,o),
(823,603,cs)
);
}
);
width = 1086;
},
{
anchors = (
{
name = top;
pos = (683,1163);
}
);
layerId = "5D328E58-2F78-4B3D-8E27-494E56F2C351";
name = Bold;
shapes = (
{
closed = 1;
nodes = (
(798,0,l),
(1010,0,l),
(1010,595,ls),
(1010,801,o),
(969,1044,o),
(646,1044,cs),
(393,1044,o),
(274,884,o),
(224,624,c),
(224,624,o),
(325,491,o),
(325,491,cs),
(325,695,o),
(381,896,o),
(600,896,cs),
(748,896,o),
(798,801,o),
(798,602,cs)
);
}
);
width = 1086;
}
);
userData = {
com.typemytype.robofont.layerData = {
};
com.typemytype.robofont.mark = (
0,
0,
1,
1
);
};
},
{
color = (0,0,255,1);
glyphname = lc_main_stem;
lastChange = "2013-12-31 02:57:01 +0000";
layers = (
{
layerId = "E322F6D1-BA90-436B-BB35-51D9BD3EA9D1";
name = Regular;
shapes = (
{
closed = 1;
nodes = (
(128,0,l),
(270,0,l),
(270,0,o),
(269,1023,o),
(269,1023,c),
(128,1023,l)
);
}
);
width = 1086;
},
{
layerId = "5D328E58-2F78-4B3D-8E27-494E56F2C351";
name = Bold;
shapes = (
{
closed = 1;
nodes = (
(98,0,l),
(310,0,l),
(310,0,o),
(310,1023,o),
(310,1023,c),
(98,1023,l)
);
}
);
width = 1086;
}
);
userData = {
anchors = (
);
b = {
};
com.typemytype.robofont.layerData = {
};
com.typemytype.robofont.mark = (
0,
0,
1,
1
);
components = (
);
contours = {
};
lib = {
};
name = lc_main_stem;
points = {
};
segmentType = line;
unicodes = (
);
width = 1086;
x = 127;
y = 1023;
};
},
{
glyphname = .notdef;
lastChange = "2013-12-31 02:57:01 +0000";
layers = (
{
layerId = "E322F6D1-BA90-436B-BB35-51D9BD3EA9D1";
name = Regular;
shapes = (
{
closed = 1;
nodes = (
(204,102,l),
(204,990,l),
(820,990,l),
(820,102,l)
);
},
{
closed = 1;
nodes = (
(102,0,l),
(922,0,l),
(922,1092,l),
(102,1092,l)
);
}
);
width = 1024;
},
{
layerId = "5D328E58-2F78-4B3D-8E27-494E56F2C351";
name = Bold;
shapes = (
{
closed = 1;
nodes = (
(204,102,l),
(204,990,l),
(820,990,l),
(820,102,l)
);
},
{
closed = 1;
nodes = (
(102,0,l),
(922,0,l),
(922,1092,l),
(102,1092,l)
);
}
);
width = 1024;
}
);
},
{
glyphname = Eng;
lastChange = "2013-12-31 02:57:01 +0000";
layers = (
{
layerId = "E322F6D1-BA90-436B-BB35-51D9BD3EA9D1";
name = Regular;
shapes = (
{
closed = 1;
nodes = (
(916,-547,l),
(1198,-544,o),
(1347,-365,o),
(1347,-78,cs),
(1347,723,l),
(1218,723,l),
(1218,-82,l),
(1218,-304,o),
(1117,-440,o),
(915,-440,c)
);
},
{
ref = N;
}
);
width = 1499;
},
{
layerId = "5D328E58-2F78-4B3D-8E27-494E56F2C351";
name = Bold;
shapes = (
{
closed = 1;
nodes = (
(881,-476,l),
(1165,-476,o),
(1360,-380,o),
(1360,-25,cs),
(1360,554,l),
(1170,554,l),
(1170,-21,ls),
(1170,-236,o),
(1090,-314,o),
(884,-317,c)
);
},
{
ref = N;
}
);
width = 1496;
}
);
unicode = 330;
},
{
glyphname = Tbar;
lastChange = "2013-12-31 02:57:01 +0000";
layers = (
{
anchors = (
{
name = _top;
pos = (572,1464);
}
);
layerId = "E322F6D1-BA90-436B-BB35-51D9BD3EA9D1";
name = Regular;
shapes = (
{
closed = 1;
nodes = (
(239,764,l),
(883,764,l),
(883,864,l),
(239,864,l)
);
},
{
ref = T;
}
);
width = 1119;
},
{
anchors = (
{
name = _top;
pos = (585,1464);
}
);
layerId = "5D328E58-2F78-4B3D-8E27-494E56F2C351";
name = Bold;
shapes = (
{
closed = 1;
nodes = (
(249,661,l),
(885,661,l),
(885,811,l),
(249,811,l)
);
},
{
ref = T;
}
);
width = 1119;
}
);
unicode = 358;
},
{
glyphname = dotlessj;
lastChange = "2013-12-31 02:57:01 +0000";
layers = (
{
anchors = (
{
name = top;
pos = (286,1023);
}
);
layerId = "E322F6D1-BA90-436B-BB35-51D9BD3EA9D1";
name = Regular;
shapes = (
{
closed = 1;
nodes = (
(140,-325,cs),
(322,-325,o),
(356,-217,o),
(356,-12,cs),
(356,1023,l),
(214,1023,l),
(214,-91,ls),
(214,-182,o),
(177,-207,o),
(118,-207,cs),
(65,-207,o),
(29,-189,o),
(2,-177,c),
(-27,-284,l),
(13,-306,o),
(69,-325,o)
);
}
);
width = 482;
},
{
anchors = (
{
name = top;
pos = (302,1023);
}
);
layerId = "5D328E58-2F78-4B3D-8E27-494E56F2C351";
name = Bold;
shapes = (
{
closed = 1;
nodes = (
(134,-380,cs),
(323,-380,o),
(407,-304,o),
(407,-42,cs),
(407,1023,l),
(195,1023,l),
(195,-91,ls),
(195,-177,o),
(155,-207,o),
(100,-207,cs),
(64,-207,o),
(22,-195,o),
(-20,-176,c),
(-61,-334,l),
(-13,-362,o),
(63,-380,o)
);
}
);
width = 513;
}
);
userData = {
anchors = (
);
b = {
};
com.typemytype.robofont.layerData = {
};
components = (
);
contours = (
);
lib = {
};
name = j;
unicodes = (
);
width = 482;
};
},
{
glyphname = eng;
lastChange = "2013-12-31 02:57:01 +0000";
layers = (
{
layerId = "E322F6D1-BA90-436B-BB35-51D9BD3EA9D1";
name = Regular;
shapes = (
{
closed = 1;
nodes = (
(534,-410,l),
(816,-407,o),
(965,-228,o),
(965,-21,cs),
(965,223,l),
(823,223,l),
(823,-25,l),
(823,-167,o),
(735,-303,o),
(533,-303,c)
);
},
{
ref = n;
}
);
width = 1089;
},
{
layerId = "5D328E58-2F78-4B3D-8E27-494E56F2C351";
name = Bold;
shapes = (
{
closed = 1;
nodes = (
(542,-410,l),
(826,-410,o),
(1021,-314,o),
(1021,-25,cs),
(1021,154,l),
(809,154,l),
(809,-21,ls),
(809,-170,o),
(751,-248,o),
(545,-251,c)
);
},
{
ref = n;
}
);
width = 1135;
}
);
unicode = 331;
},
{
glyphname = tbar;
lastChange = "2013-12-31 02:57:01 +0000";
layers = (
{
layerId = "E322F6D1-BA90-436B-BB35-51D9BD3EA9D1";
name = Regular;
shapes = (
{
closed = 1;
nodes = (
(68,534,l),
(522,534,l),
(522,634,l),
(68,634,l)
);
},
{
ref = t;
}
);
width = 656;
},
{
layerId = "5D328E58-2F78-4B3D-8E27-494E56F2C351";
name = Bold;
shapes = (
{
closed = 1;
nodes = (
(95,533,l),
(549,533,l),
(549,683,l),
(95,683,l)
);
},
{
ref = t;
}
);
width = 693;
}
);
unicode = 359;
},
{
glyphname = fraction;
lastChange = "2013-12-31 02:57:01 +0000";
layers = (
{
layerId = "E322F6D1-BA90-436B-BB35-51D9BD3EA9D1";
name = Regular;
shapes = (
{
closed = 1;
nodes = (
(195,-14,l),
(1430,1415,l),
(1354,1481,l),
(118,52,l)
);
}
);
width = 1548;
},
{
layerId = "5D328E58-2F78-4B3D-8E27-494E56F2C351";
name = Bold;
shapes = (
{
closed = 1;
nodes = (
(146,-14,l),
(1381,1415,l),
(1265,1513,l),
(29,84,l)
);
}
);
width = 1410;
}
);
unicode = 8260;
},
{
glyphname = bullet;
lastChange = "2013-12-31 02:57:01 +0000";
layers = (
{
layerId = "E322F6D1-BA90-436B-BB35-51D9BD3EA9D1";
name = Regular;
shapes = (
{
closed = 1;
nodes = (
(558,212,cs),
(792,212,o),
(947,374,o),
(947,618,cs),
(947,862,o),
(792,1025,o),
(560,1025,cs),
(324,1025,o),
(168,862,o),
(168,618,cs),
(168,374,o),
(324,212,o)
);
}
);
width = 1115;
},
{
layerId = "5D328E58-2F78-4B3D-8E27-494E56F2C351";
name = Bold;
shapes = (
{
closed = 1;
nodes = (
(558,212,cs),
(792,212,o),
(947,374,o),
(947,618,cs),
(947,862,o),
(792,1025,o),
(560,1025,cs),
(324,1025,o),
(168,862,o),
(168,618,cs),
(168,374,o),
(324,212,o)
);
}
);
width = 1115;
}
);
unicode = 8226;
},
{
glyphname = approxequal;
lastChange = "2013-12-31 02:57:01 +0000";
layers = (
{
layerId = "E322F6D1-BA90-436B-BB35-51D9BD3EA9D1";
name = Regular;
shapes = (
{
closed = 1;
nodes = (
(825,429,cs),
(932,425,o),
(981,478,o),
(990,653,c),
(871,653,l),
(866,582,o),
(834,558,o),
(781,558,cs),
(674,558,o),
(480,657,o),
(255,666,cs),
(163,669,o),
(85,651,o),
(70,436,c),
(188,436,l),
(187,512,o),
(221,537,o),
(280,537,cs),
(395,537,o),
(604,439,o)
);
},
{
closed = 1;
nodes = (
(776,717,cs),
(883,713,o),
(932,767,o),
(941,941,c),
(822,941,l),
(817,870,o),
(785,847,o),
(732,847,cs),
(625,847,o),
(431,946,o),
(206,954,cs),
(114,957,o),
(36,939,o),
(21,724,c),
(139,724,l),
(138,800,o),
(172,826,o),
(231,826,cs),
(346,826,o),
(555,727,o)
);
}
);
width = 962;
},
{
layerId = "5D328E58-2F78-4B3D-8E27-494E56F2C351";
name = Bold;
shapes = (
{
closed = 1;
nodes = (
(855,403,cs),
(962,398,o),
(1011,457,o),
(1020,649,c),
(901,649,l),
(896,571,o),
(864,545,o),
(811,545,cs),
(704,545,o),
(510,654,o),
(285,663,cs),
(193,667,o),
(115,647,o),
(100,410,c),
(218,410,l),
(217,494,o),
(251,522,o),
(310,522,cs),
(425,522,o),
(634,414,o)
);
},
{
closed = 1;
nodes = (
(806,738,cs),
(913,733,o),
(962,792,o),
(971,984,c),
(852,984,l),
(847,906,o),
(815,880,o),
(762,880,cs),
(655,880,o),
(461,989,o),
(236,998,cs),
(144,1002,o),
(66,982,o),
(51,745,c),
(169,745,l),
(168,829,o),
(202,857,o),
(261,857,cs),
(376,857,o),
(585,749,o)
);
}
);
width = 1070;
}
);
unicode = 8776;
},
{
glyphname = emptyset;
lastChange = "2013-12-31 02:57:01 +0000";
layers = (
{
layerId = "E322F6D1-BA90-436B-BB35-51D9BD3EA9D1";
name = Regular;
shapes = (
{
closed = 1;
nodes = (
(258,-57,l),
(404,115,l),
(527,25,o),
(682,-25,o),
(850,-25,cs),
(1251,-25,o),
(1579,297,o),
(1579,696,cs),
(1579,906,o),
(1489,1094,o),
(1346,1226,c),
(1499,1406,l),
(1438,1450,l),
(1289,1273,l),
(1167,1365,o),
(1015,1419,o),
(850,1419,cs),
(451,1419,o),
(123,1127,o),
(123,696,cs),
(123,469,o),
(211,284,o),
(351,158,c),
(204,-16,l)
);
},
{
closed = 1;
nodes = (
(397,213,l),
(277,329,o),
(204,495,o),
(204,695,cs),
(204,1076,o),
(483,1354,o),
(850,1354,cs),
(1000,1354,o),
(1135,1303,o),
(1243,1218,c)
);
},
{
closed = 1;
nodes = (
(849,40,cs),
(696,40,o),
(558,86,o),
(449,169,c),
(1299,1170,l),
(1423,1048,o),
(1498,877,o),
(1498,695,cs),
(1498,345,o),
(1217,40,o)
);
}
);
width = 1702;
},
{
layerId = "5D328E58-2F78-4B3D-8E27-494E56F2C351";
name = Bold;
shapes = (
{
closed = 1;
nodes = (
(276,-78,l),
(426,99,l),
(546,19,o),
(692,-25,o),
(850,-25,cs),
(1251,-25,o),
(1579,297,o),
(1579,696,cs),
(1579,896,o),
(1497,1076,o),
(1366,1207,c),
(1517,1385,l),
(1431,1459,l),
(1280,1280,l),
(1159,1367,o),
(1011,1419,o),
(850,1419,cs),
(451,1419,o),
(123,1127,o),
(123,696,cs),
(123,473,o),
(207,291,o),
(342,166,c),
(197,-7,l)
);
},
{
closed = 1;
nodes = (
(428,268,l),
(325,372,o),
(263,520,o),
(263,695,cs),
(263,1042,o),
(516,1294,o),
(850,1294,cs),
(981,1294,o),
(1100,1251,o),
(1196,1180,c)
);
},
{
closed = 1;
nodes = (
(849,100,cs),
(721,100,o),
(605,135,o),
(511,199,c),
(1279,1105,l),
(1379,996,o),
(1439,850,o),
(1439,695,cs),
(1439,377,o),
(1184,100,o)
);
}
);
width = 1702;
}
);
unicode = 8709;
},
{
glyphname = greaterequal;
lastChange = "2013-12-31 02:57:01 +0000";
layers = (
{
layerId = "E322F6D1-BA90-436B-BB35-51D9BD3EA9D1";
name = Regular;
shapes = (
{
closed = 1;
nodes = (
(53,233,l),
(1002,548,l),
(1002,674,l),
(53,970,l),
(53,832,l),
(840,618,l),
(53,385,l)
);
},
{
closed = 1;
nodes = (
(55,0,l),
(1014,0,l),
(1014,112,l),
(55,112,l)
);
}
);
width = 1051;
},
{
layerId = "5D328E58-2F78-4B3D-8E27-494E56F2C351";
name = Bold;
shapes = (
{
closed = 1;
nodes = (
(49,252,l),
(998,523,l),
(998,717,l),
(49,1033,l),
(49,825,l),
(759,631,l),
(49,461,l)
);
},
{
closed = 1;
nodes = (
(52,0,l),
(1014,0,l),
(1014,135,l),
(52,135,l)
);
}
);
width = 1051;
}
);
unicode = 8805;
},
{
glyphname = infinity;
lastChange = "2013-12-31 02:57:01 +0000";
layers = (
{
layerId = "E322F6D1-BA90-436B-BB35-51D9BD3EA9D1";
name = Regular;
shapes = (
{
closed = 1;
nodes = (
(1182,318,cs),
(1447,318,o),
(1580,527,o),
(1580,736,cs),
(1580,946,o),
(1446,1156,o),
(1180,1156,cs),
(1018,1156,o),
(899,1068,o),
(832,900,c),
(739,1076,o),
(606,1168,o),
(446,1168,cs),
(188,1168,o),
(59,946,o),
(59,727,cs),
(59,511,o),
(183,298,o),
(432,298,cs),
(587,298,o),
(727,389,o),
(840,564,c),
(921,402,o),
(1039,318,o)
);
},
{
closed = 1;
nodes = (
(448,442,cs),
(266,442,o),
(174,591,o),
(174,740,cs),
(174,887,o),
(264,1033,o),
(449,1033,cs),
(600,1033,o),
(720,904,o),
(797,658,c),
(704,516,o),
(584,442,o)
);
},
{
closed = 1;
nodes = (
(1185,455,cs),
(1061,455,o),
(954,574,o),
(873,801,c),
(951,944,o),
(1057,1019,o),
(1182,1019,cs),
(1367,1019,o),
(1459,877,o),
(1459,736,cs),
(1459,595,o),
(1368,455,o)
);
}
);
width = 1628;
},
{
layerId = "5D328E58-2F78-4B3D-8E27-494E56F2C351";
name = Bold;
shapes = (
{
closed = 1;
nodes = (
(1168,299,cs),
(1426,298,o),
(1556,519,o),
(1556,738,cs),
(1556,951,o),
(1432,1163,o),
(1182,1168,cs),
(1034,1171,o),
(877,1082,o),
(789,946,c),
(723,1074,o),
(580,1160,o),
(432,1160,cs),
(169,1160,o),
(37,945,o),
(37,731,cs),
(37,515,o),
(169,300,o),
(432,300,cs),
(576,300,o),
(711,394,o),
(767,537,c),
(843,394,o),
(1003,299,o)
);
},
{
closed = 1;
nodes = (
(432,506,cs),
(286,506,o),
(213,618,o),
(213,730,cs),
(213,841,o),
(285,951,o),
(429,951,cs),
(539,951,o),
(650,845,o),
(706,685,c),
(645,578,o),
(535,506,o)
);
},
{
closed = 1;
nodes = (
(1165,502,cs),
(1036,502,o),
(911,624,o),
(853,808,c),
(915,896,o),
(1029,952,o),
(1142,952,cs),
(1242,952,o),
(1379,892,o),
(1379,721,cs),
(1379,610,o),
(1308,502,o)
);
}
);
width = 1601;
}
);
unicode = 8734;
},
{
glyphname = integral;
lastChange = "2013-12-31 02:57:01 +0000";
layers = (
{
layerId = "E322F6D1-BA90-436B-BB35-51D9BD3EA9D1";
name = Regular;
shapes = (
{
closed = 1;
nodes = (
(182,-209,cs),
(357,-209,o),
(425,-99,o),
(449,123,cs),
(556,1146,ls),
(572,1305,o),
(591,1366,o),
(683,1366,cs),
(725,1366,o),
(759,1353,o),
(788,1338,c),
(834,1428,l),
(807,1449,o),
(748,1474,o),
(680,1474,cs),
(505,1474,o),
(437,1364,o),
(413,1142,cs),
(306,119,ls),
(290,-40,o),
(271,-101,o),
(179,-101,cs),
(137,-101,o),
(103,-88,o),
(74,-73,c),
(28,-163,l),
(55,-184,o),
(114,-209,o)
);
}
);
width = 757;
},
{
layerId = "5D328E58-2F78-4B3D-8E27-494E56F2C351";
name = Bold;
shapes = (
{
closed = 1;
nodes = (
(185,-292,cs),
(365,-292,o),
(475,-235,o),
(499,47,cs),
(594,1143,ls),
(606,1282,o),
(622,1312,o),
(708,1312,cs),
(740,1312,o),
(780,1300,o),
(811,1283,c),
(877,1424,l),
(835,1448,o),
(755,1474,o),
(697,1474,cs),
(517,1474,o),
(407,1417,o),
(383,1135,cs),
(288,39,ls),
(276,-100,o),
(260,-130,o),
(174,-130,cs),
(142,-130,o),
(102,-118,o),
(71,-101,c),
(5,-242,l),
(47,-266,o),
(127,-292,o)
);
}
);
width = 823;
}
);
unicode = 8747;
},
{
glyphname = lessequal;
lastChange = "2013-12-31 02:57:01 +0000";
layers = (
{
layerId = "E322F6D1-BA90-436B-BB35-51D9BD3EA9D1";
name = Regular;
shapes = (
{
closed = 1;
nodes = (
(998,242,l),
(998,380,l),
(211,614,l),
(998,826,l),
(998,978,l),
(49,684,l),
(49,558,l)
);
},
{
closed = 1;
nodes = (
(41,0,l),
(1000,0,l),
(1000,112,l),
(41,112,l)
);
}
);
width = 1051;
},
{
layerId = "5D328E58-2F78-4B3D-8E27-494E56F2C351";
name = Bold;
shapes = (
{
closed = 1;
nodes = (
(998,252,l),
(998,440,l),
(288,625,l),
(998,794,l),
(998,1023,l),
(49,722,l),
(49,528,l)
);
},
{
closed = 1;
nodes = (
(46,0,l),
(1008,0,l),
(1008,135,l),
(46,135,l)
);
}
);
width = 1051;
}
);
unicode = 8804;
},
{
glyphname = notequal;
lastChange = "2013-12-31 02:57:01 +0000";
layers = (
{
layerId = "E322F6D1-BA90-436B-BB35-51D9BD3EA9D1";
name = Regular;
shapes = (
{
closed = 1;
nodes = (
(353,290,l),
(461,555,l),
(848,555,l),
(848,655,l),
(502,655,l),
(563,805,l),
(848,805,l),
(848,905,l),
(604,905,l),
(699,1137,l),
(582,1164,l),
(479,905,l),
(48,905,l),
(48,805,l),
(439,805,l),
(379,655,l),
(48,655,l),
(48,555,l),
(339,555,l),
(244,317,l)
);
}
);
width = 896;
},
{
layerId = "5D328E58-2F78-4B3D-8E27-494E56F2C351";
name = Bold;
shapes = (
{
closed = 1;
nodes = (
(364,197,l),
(475,506,l),
(868,506,l),
(868,653,l),
(528,653,l),
(564,755,l),
(868,755,l),
(868,902,l),
(617,902,l),
(717,1180,l),
(543,1219,l),
(434,902,l),
(48,902,l),
(48,755,l),
(383,755,l),
(348,653,l),
(48,653,l),
(48,506,l),
(297,506,l),
(204,236,l)
);
}
);
width = 916;
}
);
unicode = 8800;
},
{
glyphname = partialdiff;
lastChange = "2013-12-31 02:57:01 +0000";
layers = (
{
layerId = "E322F6D1-BA90-436B-BB35-51D9BD3EA9D1";
name = Regular;
shapes = (
{
closed = 1;
nodes = (
(510,-24,cs),
(827,-24,o),
(975,213,o),
(1009,529,cs),
(1015,581,o),
(1018,635,o),
(1018,688,cs),
(1018,1061,o),
(865,1432,o),
(314,1432,c),
(304,1338,l),
(757,1338,o),
(880,1006,o),
(885,772,c),
(816,866,o),
(710,908,o),
(596,908,cs),
(386,908,o),
(166,748,o),
(136,454,cs),
(134,431,o),
(132,409,o),
(132,386,cs),
(132,167,o),
(250,-24,o)
);
},
{
closed = 1;
nodes = (
(528,85,cs),
(378,85,o),
(273,194,o),
(273,383,cs),
(273,402,o),
(274,421,o),
(276,441,cs),
(300,670,o),
(444,798,o),
(601,798,cs),
(707,798,o),
(797,748,o),
(878,650,c),
(879,645,o),
(879,639,o),
(879,631,cs),
(879,594,o),
(873,531,o),
(871,511,cs),
(845,262,o),
(739,85,o)
);
}
);
width = 1141;
},
{
layerId = "5D328E58-2F78-4B3D-8E27-494E56F2C351";
name = Bold;
shapes = (
{
closed = 1;
nodes = (
(531,-24,cs),
(856,-24,o),
(1023,215,o),
(1057,529,cs),
(1062,578,o),
(1065,627,o),
(1065,676,cs),
(1065,1065,o),
(890,1432,o),
(330,1432,c),
(315,1293,l),
(712,1293,o),
(862,1008,o),
(867,774,c),
(812,864,o),
(716,908,o),
(608,908,cs),
(387,908,o),
(152,746,o),
(122,454,cs),
(120,434,o),
(119,413,o),
(119,394,cs),
(119,170,o),
(254,-24,o)
);
},
{
closed = 1;
nodes = (
(559,138,cs),
(430,138,o),
(330,228,o),
(330,395,cs),
(330,411,o),
(331,427,o),
(333,444,cs),
(352,624,o),
(469,744,o),
(611,744,cs),
(707,744,o),
(773,697,o),
(855,596,c),
(856,588,o),
(856,579,o),
(856,570,cs),
(856,550,o),
(854,528,o),
(853,511,cs),
(832,314,o),
(739,138,o)
);
}
);
width = 1194.03;
}
);
unicode = 8706;
},
{
glyphname = perthousand;
lastChange = "2013-12-31 02:57:01 +0000";
layers = (
{
layerId = "E322F6D1-BA90-436B-BB35-51D9BD3EA9D1";
name = Regular;
shapes = (
{
closed = 1;
nodes = (
(2068,93,c),
(1936,93,o),
(1871,212,o),
(1871,348,c),
(1871,484,o),
(1936,604,o),
(2068,604,c),
(2200,604,o),
(2266,487,o),
(2266,348,c),
(2266,212,o),
(2200,93,o)
);
},
{
closed = 1;
nodes = (
(2068,0,c),
(2271,0,o),
(2375,175,o),
(2375,348,c),
(2375,521,o),
(2271,696,o),
(2068,696,c),
(1865,696,o),
(1761,521,o),
(1761,348,c),
(1761,175,o),
(1865,0,o)
);
},
{
ref = percent;
}
);
width = 2425;
},
{
layerId = "5D328E58-2F78-4B3D-8E27-494E56F2C351";
name = Bold;
shapes = (
{
closed = 1;
nodes = (
(2059,115,cs),
(1959,115,o),
(1907,207,o),
(1907,325,cs),
(1907,436,o),
(1964,531,o),
(2059,531,cs),
(2157,531,o),
(2210,440,o),
(2210,324,cs),
(2210,207,o),
(2156,115,o)
);
},
{
closed = 1;
nodes = (
(2060,-24,cs),
(2261,-24,o),
(2373,148,o),
(2373,322,cs),
(2373,494,o),
(2261,668,o),
(2060,668,cs),
(1857,668,o),
(1743,493,o),
(1743,320,cs),
(1743,147,o),
(1855,-24,o)
);
},
{
ref = percent;
}
);
width = 2413;
}
);
unicode = 8240;
},
{
glyphname = product;
lastChange = "2013-12-31 02:57:01 +0000";
layers = (
{
anchors = (
{
name = top;
pos = (715,1464);
}
);
layerId = "E322F6D1-BA90-436B-BB35-51D9BD3EA9D1";
name = Regular;
shapes = (
{
closed = 1;
nodes = (
(152,0,l),
(298,0,l),
(298,1352,l),
(1107,1352,l),
(1107,0,l),
(1253,0,l),
(1253,1464,l),
(152,1464,l)
);
}
);
width = 1405;
},
{
layerId = "5D328E58-2F78-4B3D-8E27-494E56F2C351";
name = Bold;
shapes = (
{
closed = 1;
nodes = (
(136,0,l),
(356,0,l),
(356,1300,l),
(1017,1300,l),
(1017,0,l),
(1237,0,l),
(1237,1464,l),
(136,1464,l)
);
}
);
width = 1373;
}
);
unicode = 8719;
},
{
glyphname = radical;
lastChange = "2013-12-31 02:57:01 +0000";
layers = (
{
layerId = "E322F6D1-BA90-436B-BB35-51D9BD3EA9D1";
name = Regular;
shapes = (
{
closed = 1;
nodes = (
(471,0,l),
(597,0,l),
(1161,1464,l),
(1023,1464,l),
(527,136,l),
(252,543,l),
(108,543,l)
);
}
);
width = 1240;
},
{
layerId = "5D328E58-2F78-4B3D-8E27-494E56F2C351";
name = Bold;
shapes = (
{
closed = 1;
nodes = (
(493,0,l),
(639,0,l),
(1263,1464,l),
(1045,1464,l),
(549,236,l),
(324,643,l),
(110,643,l)
);
}
);
width = 1373;
}
);
unicode = 8730;
},
{
glyphname = summation;
lastChange = "2013-12-31 02:57:01 +0000";
layers = (
{
layerId = "E322F6D1-BA90-436B-BB35-51D9BD3EA9D1";
name = Regular;
shapes = (
{
closed = 1;
nodes = (
(161,-18,ls),
(1142,-18,ls),
(1142,97,ls),
(306,97,ls),
(865,680,ls),
(865,789,ls),
(309,1382,ls),
(1142,1382,ls),
(1142,1491,ls),
(161,1491,ls),
(161,1375,ls),
(734,737,ls),
(161,115,ls)
);
}
);
width = 1288;
},
{
layerId = "5D328E58-2F78-4B3D-8E27-494E56F2C351";
name = Bold;
shapes = (
{
closed = 1;
nodes = (
(161,-18,ls),
(1142,-18,ls),
(1142,147,ls),
(371,147,ls),
(905,680,ls),
(905,789,ls),
(374,1332,ls),
(1142,1332,ls),
(1142,1491,ls),
(161,1491,ls),
(161,1325,ls),
(719,737,ls),
(161,165,ls)
);
}
);
width = 1229;
}
);
unicode = 8721;
},
{
glyphname = lozenge;
lastChange = "2013-12-31 02:57:01 +0000";
layers = (
{
layerId = "E322F6D1-BA90-436B-BB35-51D9BD3EA9D1";
name = Regular;
shapes = (
{
closed = 1;
nodes = (
(453,0,l),
(592,0,l),
(1025,699,l),
(592,1398,l),
(453,1398,l),
(32,699,l)
);
},
{
closed = 1;
nodes = (
(530,119,l),
(190,699,l),
(530,1279,l),
(873,699,l)
);
}
);
width = 1057;
},
{
layerId = "5D328E58-2F78-4B3D-8E27-494E56F2C351";
name = Bold;
shapes = (
{
closed = 1;
nodes = (
(451,0,l),
(590,0,l),
(1023,699,l),
(590,1398,l),
(451,1398,l),
(30,699,l)
);
},
{
closed = 1;
nodes = (
(528,220,l),
(247,699,l),
(528,1178,l),
(812,699,l)
);
}
);
width = 1053;
}
);
unicode = 9674;
},
{
glyphname = dagger;
lastChange = "2013-12-31 02:57:01 +0000";
layers = (
{
layerId = "E322F6D1-BA90-436B-BB35-51D9BD3EA9D1";
name = Regular;
shapes = (
{
closed = 1;
nodes = (
(493,0,l),
(639,0,l),
(639,962,l),
(980,962,l),
(980,1074,l),
(639,1074,l),
(639,1464,l),
(493,1464,l),
(493,1074,l),
(137,1074,l),
(137,962,l),
(493,962,l)
);
}
);
width = 1119;
},
{
layerId = "5D328E58-2F78-4B3D-8E27-494E56F2C351";
name = Bold;
shapes = (
{
closed = 1;
nodes = (
(453,0,l),
(679,0,l),
(679,932,l),
(1000,932,l),
(1000,1104,l),
(679,1104,l),
(679,1464,l),
(453,1464,l),
(453,1104,l),
(117,1104,l),
(117,932,l),
(453,932,l)
);
}
);
width = 1117;
}
);
unicode = 8224;
},
{
glyphname = daggerdbl;
lastChange = "2013-12-31 02:57:01 +0000";
layers = (
{
layerId = "E322F6D1-BA90-436B-BB35-51D9BD3EA9D1";
name = Regular;
shapes = (
{
closed = 1;
nodes = (
(493,0,l),
(639,0,l),
(639,492,l),
(979,492,l),
(979,603,l),
(639,603,l),
(639,962,l),
(980,962,l),
(980,1074,l),
(639,1074,l),
(639,1464,l),
(493,1464,l),
(493,1074,l),
(137,1074,l),
(137,962,l),
(493,962,l),
(493,603,l),
(137,603,l),
(137,492,l),
(493,492,l)
);
}
);
width = 1117;
},
{
layerId = "5D328E58-2F78-4B3D-8E27-494E56F2C351";
name = Bold;
shapes = (
{
closed = 1;
nodes = (
(453,0,l),
(679,0,l),
(679,451,l),
(1000,451,l),
(1000,622,l),
(679,622,l),
(679,932,l),
(1000,932,l),
(1000,1104,l),
(679,1104,l),
(679,1464,l),
(453,1464,l),
(453,1104,l),
(117,1104,l),
(117,932,l),
(453,932,l),
(453,622,l),
(119,622,l),
(119,451,l),
(453,451,l)
);
}
);
width = 1117;
}
);
unicode = 8225;
},
{
color = (0,0,255,1);
glyphname = lc_descender_stem;
lastChange = "2013-12-31 02:57:01 +0000";
layers = (
{
layerId = "E322F6D1-BA90-436B-BB35-51D9BD3EA9D1";
name = Regular;
shapes = (
{
closed = 1;
nodes = (
(127,-350,l),
(269,-350,l),
(269,-350,o),
(268,798,o),
(268,798,c),
(249,1023,l),
(127,1023,l)
);
}
);
width = 1057;
},
{
layerId = "5D328E58-2F78-4B3D-8E27-494E56F2C351";
name = Bold;
shapes = (
{
closed = 1;
nodes = (
(57,-370,l),
(269,-370,l),
(269,-370,o),
(269,758,o),
(269,758,c),
(243,1023,l),
(57,1023,l)
);
}
);
width = 1057;
}
);
userData = {
anchors = (
);
b = {
};
com.typemytype.robofont.layerData = {
};
com.typemytype.robofont.mark = (
0,
0,
1,
1
);
components = (
);
contours = (
);
lib = {
};
name = lc_descender_stem;
unicodes = (
);
width = 1057;
};
},
{
color = (0,0,255,1);
glyphname = lc_descender_stem_2;
lastChange = "2013-12-31 02:57:01 +0000";
layers = (
{
layerId = "E322F6D1-BA90-436B-BB35-51D9BD3EA9D1";
name = Regular;
shapes = (
{
closed = 1;
nodes = (
(127,-350,c),
(269,-350,l),
(269,1023,l),
(147,1023,l),
(128,798,l),
(128,798,o),
(127,-350,o)
);
}
);
width = 1057;
},
{
layerId = "5D328E58-2F78-4B3D-8E27-494E56F2C351";
name = Bold;
shapes = (
{
closed = 1;
nodes = (
(57,-350,c),
(269,-350,l),
(269,1023,l),
(83,1023,l),
(57,758,l),
(57,758,o),
(57,-350,o)
);
}
);
width = 1057;
}
);
userData = {
anchors = (
);
b = {
};
com.typemytype.robofont.layerData = {
};
com.typemytype.robofont.mark = (
0,
0,
1,
1
);
components = (
);
contours = (
);
lib = {
};
name = lc_descender_stem;
unicodes = (
);
width = 1057;
};
},
{
color = (255,0,0,1);
glyphname = uc_main_stem;
lastChange = "2013-12-31 02:57:01 +0000";
layers = (
{
layerId = "E322F6D1-BA90-436B-BB35-51D9BD3EA9D1";
name = Regular;
shapes = (
{
closed = 1;
nodes = (
(148,0,l),
(294,0,l),
(294,0,o),
(294,1464,o),
(294,1464,c),
(148,1464,l)
);
}
);
width = 1457;
},
{
layerId = "5D328E58-2F78-4B3D-8E27-494E56F2C351";
name = Bold;
shapes = (
{
closed = 1;
nodes = (
(104,0,l),
(324,0,l),
(324,0,o),
(324,1464,o),
(324,1464,c),
(104,1464,l)
);
}
);
width = 1457;
}
);
userData = {
anchors = (
);
b = {
};
com.typemytype.robofont.layerData = {
};
com.typemytype.robofont.mark = (
1,
0,
0,
1
);
components = (
);
contours = (
);
lib = {
};
name = uc_main_stem;
unicodes = (
);
width = 1457;
};
},
{
glyphname = Delta;
lastChange = "2013-12-31 02:57:01 +0000";
layers = (
{
layerId = "E322F6D1-BA90-436B-BB35-51D9BD3EA9D1";
name = Regular;
shapes = (
{
closed = 1;
nodes = (
(114,0,l),
(1243,0,l),
(722,1482,l),
(635,1482,l)
);
},
{
closed = 1;
nodes = (
(258,116,l),
(662,1307,l),
(1072,116,l)
);
}
);
width = 1332;
},
{
layerId = "5D328E58-2F78-4B3D-8E27-494E56F2C351";
name = Bold;
shapes = (
{
closed = 1;
nodes = (
(43,0,l),
(1300,0,l),
(759,1482,l),
(576,1482,l)
);
},
{
closed = 1;
nodes = (
(230,146,l),
(634,1307,l),
(1044,146,l)
);
}
);
width = 1332;
}
);
unicode = 916;
},
{
glyphname = pi;
lastChange = "2013-12-31 02:57:01 +0000";
layers = (
{
layerId = "E322F6D1-BA90-436B-BB35-51D9BD3EA9D1";
name = Regular;
shapes = (
{
closed = 1;
nodes = (
(1083,-13,cs),
(1157,-13,o),
(1221,10,o),
(1254,42,c),
(1254,166,l),
(1227,156,o),
(1170,131,o),
(1131,131,cs),
(1054,131,o),
(1012,227,o),
(1012,435,cs),
(1012,548,o),
(1023,688,o),
(1048,863,c),
(1276,863,l),
(1276,1023,l),
(417,1023,ls),
(187,1023,o),
(116,945,o),
(116,735,c),
(208,735,l),
(220,809,o),
(258,863,o),
(336,863,cs),
(458,863,l),
(397,375,ls),
(371,165,o),
(250,108,o),
(127,108,c),
(127,3,l),
(462,3,o),
(530,101,o),
(540,313,cs),
(565,863,l),
(927,863,l),
(898,641,o),
(858,430,o),
(858,273,cs),
(858,99,o),
(908,-13,o)
);
}
);
width = 1367;
},
{
layerId = "5D328E58-2F78-4B3D-8E27-494E56F2C351";
name = Bold;
shapes = (
{
closed = 1;
nodes = (
(1083,-13,cs),
(1157,-13,o),
(1221,10,o),
(1254,42,c),
(1254,166,l),
(1227,156,o),
(1170,131,o),
(1131,131,cs),
(1054,131,o),
(1012,227,o),
(1012,435,cs),
(1012,548,o),
(1023,688,o),
(1048,863,c),
(1276,863,l),
(1276,1023,l),
(417,1023,ls),
(187,1023,o),
(116,945,o),
(116,735,c),
(208,735,l),
(220,809,o),
(258,863,o),
(336,863,cs),
(458,863,l),
(397,375,ls),
(371,165,o),
(250,108,o),
(127,108,c),
(127,3,l),
(462,3,o),
(530,101,o),
(540,313,cs),
(565,863,l),
(927,863,l),
(898,641,o),
(858,430,o),
(858,273,cs),
(858,99,o),
(908,-13,o)
);
}
);
width = 1346;
}
);
unicode = 960;
},
{
glyphname = onesuperior;
lastChange = "2013-12-31 03:21:43 +0000";
layers = (
{
layerId = "E322F6D1-BA90-436B-BB35-51D9BD3EA9D1";
name = Regular;
shapes = (
{
closed = 1;
nodes = (
(262,1365,l),
(262,769,l),
(375,769,l),
(375,1464,l),
(272,1464,l),
(124,1397,l),
(145,1307,l)
);
}
);
width = 546;
},
{
layerId = "5D328E58-2F78-4B3D-8E27-494E56F2C351";
name = Bold;
shapes = (
{
closed = 1;
nodes = (
(282,1288,l),
(433,1355,l),
(433,516,l),
(610,516,l),
(610,1492,l),
(452,1492,l),
(239,1405,l)
);
}
);
width = 924;
}
);
unicode = 185;
},
